<?xml version="1.0" encoding="utf-8"?>
<!-- Generator: Adobe Illustrator 27.1.1, SVG Export Plug-In . SVG Version: 6.00 Build 0)  -->
<svg version="1.1" id="Layer_1" xmlns="http://www.w3.org/2000/svg" xmlns:xlink="http://www.w3.org/1999/xlink" x="0px" y="0px"
	 viewBox="0 0 600 331.6" style="enable-background:new 0 0 600 331.6;" xml:space="preserve">
<style type="text/css">
	.st0{fill:#FFFFFF;}
</style>
<path class="st0" d="M100.4,111.8c-0.2,24.1-0.4,48.2-0.7,72.3c-7.9,0-15.7,0-23.6,0c-0.2-4.4-0.4-8.8-0.6-13.2
	c-0.4,0-0.6-0.1-0.9-0.1c-5.4,0-10.8,0-16.1,0c-0.7,0-1.1,0.2-1.5,0.8c-2.9,4-5.8,8-8.7,12c-0.2,0.3-0.7,0.6-1,0.6
	c-7.5,0-14.9,0-22.4,0c-0.1,0-0.2,0-0.4,0c0.2-0.3,0.3-0.6,0.5-0.8c16-23.6,32-47.2,47.9-70.8c0.4-0.6,0.8-0.8,1.5-0.8
	c8.3,0,16.7,0,25,0C99.6,111.8,99.9,111.8,100.4,111.8z M76.9,140.5c-0.1,0-0.2-0.1-0.3-0.1c-3.6,4.8-6.9,9.8-10.3,14.9
	c3.5,0,6.8,0,10.2,0C76.7,150.3,76.8,145.4,76.9,140.5z"/>
<path class="st0" d="M327.3,145.2c0.5,0.1,1.1,0.2,1.6,0.4c6.7,1.7,10.3,7.5,8.4,14.4c-3.1,11-10.1,18.5-21,22.3
	c-4,1.4-8.1,1.9-12.2,2c-9.7,0-19.4,0-29.1,0c-0.2,0-0.5,0-0.8,0c0.7-1.8,1.3-3.5,1.9-5.3c8-22.1,16.1-44.1,24.1-66.2
	c0.3-0.7,0.6-0.9,1.3-0.9c9.1,0,18.2,0,27.3,0c3.8,0,7.6,0.3,11.2,1.6c0.9,0.3,1.7,0.6,2.6,1.1c4.3,2.2,6.1,5.9,5.3,10.6
	c-1.3,7.6-5.7,13-12.2,16.8c-2.4,1.4-4.9,2.4-7.5,3c-0.2,0.1-0.5,0.1-0.7,0.2C327.3,145.1,327.3,145.2,327.3,145.2z M298.8,169.5
	c2.6,0,5.1,0.1,7.6,0c5.1-0.3,9.4-4,10.5-8.9c0.7-3.2-1-5.6-4.3-5.8c-0.4,0-0.8,0-1.2-0.1c-2.1,0-4.2,0-6.4,0
	c-0.6,0-0.9,0.2-1.2,0.8c-1.6,4.4-3.2,8.8-4.8,13.2C298.9,168.9,298.9,169.2,298.8,169.5z M309.5,140.1c2,0,3.9,0.1,5.9,0
	c4.6-0.2,8.6-3.4,9.8-7.7c0.8-3-0.2-5-3.2-5.5c-2.2-0.4-4.4-0.3-6.7-0.5c-0.6,0-0.9,0.2-1.1,0.8c-1.5,4.1-3,8.1-4.4,12.2
	C309.7,139.5,309.6,139.7,309.5,140.1z"/>
<path class="st0" d="M540.9,163.6c-0.6,2.2,0.3,4.4,2.1,5.7c2,1.5,4.4,1.8,6.8,1.8c4.6,0.1,9.1-0.9,13.4-2.6c0.3-0.1,0.5-0.2,1-0.3
	c-0.4,1.3-0.7,2.5-1.1,3.7c-0.9,3.2-1.9,6.4-2.9,9.6c-0.1,0.3-0.4,0.8-0.6,0.9c-8.3,3-16.8,4.1-25.4,2.3c-8.3-1.8-13.1-8-12.5-16.5
	c0.9-13.2,6.3-24.2,16.9-32.4c4.4-3.4,9.5-5.6,15-6.3c6.7-0.8,12.1,1.6,14.8,7.4c1.2,2.5,1.6,5.2,1.7,7.9c0.1,3.6-0.6,7.1-1.6,10.5
	c-0.7,2.5-1.5,5-2.2,7.5c-0.2,0.7-0.5,0.9-1.2,0.9c-7.6,0-15.2,0-22.9,0C541.7,163.6,541.3,163.6,540.9,163.6z M544.2,152
	c4,0,7.8,0,11.6,0c0.2,0,0.5-0.2,0.5-0.4c0.5-1.9,1-3.8,0.6-5.8c-0.3-1.7-1.4-2.8-3.2-3c-1.5-0.2-2.8,0.2-4,1.1
	C547,145.9,545.4,148.7,544.2,152z"/>
<path class="st0" d="M425.4,168.1c-0.8,2.8-1.6,5.4-2.3,8c-0.5,1.8-1,3.6-1.6,5.4c-0.1,0.3-0.4,0.8-0.7,0.9
	c-8.1,2.9-16.4,4-24.9,2.3c-6.7-1.3-11.1-5.2-12.6-12c-0.9-4.1-0.4-8.1,0.6-12.1c2.2-8.5,6-16.1,12.6-22.2c4.8-4.5,10.5-7.6,17-8.8
	c3.7-0.7,7.4-0.5,10.8,1.4c3.8,2.1,5.7,5.6,6.5,9.7c1,4.9,0.2,9.7-1.2,14.5c-0.7,2.5-1.5,5-2.2,7.6c-0.2,0.7-0.5,0.9-1.2,0.9
	c-7.7,0-15.4,0-23.1,0c-1.2,0-1.2,0-1.2,1.2c0,2.6,1.4,4.2,3.6,5.3c1.8,0.8,3.7,1,5.6,1c4.5,0,8.9-0.9,13.1-2.5
	C424.5,168.4,424.8,168.3,425.4,168.1z M405.5,152c3.9,0,7.7,0,11.5,0c0.2,0,0.5-0.2,0.5-0.4c0.6-1.8,0.9-3.7,0.7-5.6
	c-0.2-1.9-1.5-3-3.3-3.1c-1.7-0.2-3.1,0.4-4.4,1.4c-2.4,2-3.9,4.6-5,7.4C405.5,151.7,405.5,151.8,405.5,152z"/>
<path class="st0" d="M472.7,168.2c0,0.3-0.1,0.4-0.1,0.6c-1.3,4.2-2.5,8.5-3.8,12.7c-0.1,0.3-0.4,0.7-0.7,0.9
	c-8.1,2.9-16.4,4-24.9,2.3c-8-1.5-12.8-7.4-12.9-15.5c-0.1-6.5,1.8-12.5,4.5-18.3c3.6-7.6,9-13.8,16.5-17.8c4.1-2.2,8.3-3.7,13-3.8
	c7.2-0.1,12.2,3.8,13.8,10.8c1.1,4.8,0.5,9.6-0.8,14.2c-0.8,2.8-1.6,5.5-2.4,8.3c-0.2,0.7-0.5,0.9-1.2,0.9c-7.7,0-15.4,0-23,0
	c-1.2,0-1.2,0-1.2,1.2c0,2.5,1.4,4.2,3.6,5.2c2.4,1.1,5,1.1,7.6,1c4-0.2,7.8-1.1,11.5-2.6C472.2,168.4,472.4,168.3,472.7,168.2z
	 M452.8,152c4,0,7.8,0,11.7,0c0.2,0,0.5-0.2,0.5-0.4c0.5-1.8,1-3.6,0.7-5.6c-0.3-1.9-1.2-3-2.9-3.2c-1.3-0.2-2.6-0.1-3.7,0.6
	C455.8,145.3,454.2,148.4,452.8,152z"/>
<path class="st0" d="M263.7,133.3c-1.9,5.7-3.7,11.2-5.6,16.8c-2-1.6-4.2-2.5-6.7-2.9c-10-1.5-18.7,4.1-20,14.9
	c-0.5,3.8,2.1,6.8,6.2,7.4c4.7,0.7,9.2-0.2,13.5-2.1c0.4-0.1,0.7-0.3,1.2-0.5c-0.1,0.4-0.2,0.7-0.3,1c-1.6,4.7-3.1,9.3-4.7,14
	c-0.2,0.6-0.6,1-1.2,1.2c-3,1.1-6.1,1.7-9.3,1.9c-3.6,0.2-7.2,0.4-10.8,0.2c-4.3-0.2-8.3-1.5-11.8-4.2c-3.7-2.9-5.5-6.7-5.8-11.3
	c-0.4-5.6,1.2-10.7,3.7-15.6c6.1-12.3,16-19.5,29.4-22c6.5-1.3,13.1-1.1,19.6,0.3C262,132.6,262.8,133,263.7,133.3z"/>
<path class="st0" d="M499,169.3c5.9,0,11.8,0,17.8,0c-1.4,5-2.8,9.9-4.2,14.8c-14,0-28,0-42,0c0-0.2,0.1-0.4,0.1-0.7
	c0.4-1.4,0.9-2.8,1.2-4.2c0.6-3.7,2.6-6.3,5.2-8.8c7.7-7.3,15.2-14.8,22.8-22.3c0.2-0.2,0.4-0.4,0.7-0.8c-6,0-11.9,0-17.8,0
	c0-0.3,0-0.5,0.1-0.7c1.2-4.4,2.5-8.8,3.7-13.3c0.2-0.7,0.5-0.9,1.2-0.9c12.6,0,25.2,0,37.8,0c0.3,0,0.6,0,1.1,0
	c-0.9,3.2-1.9,6.2-2.6,9.3c-0.5,2-1.5,3.5-2.9,5c-7.3,7.2-14.5,14.4-21.8,21.6c-0.2,0.2-0.6,0.4-0.9,0.6
	C498.8,169.1,498.9,169.2,499,169.3z"/>
<path class="st0" d="M354,184.2c-7.1,0-14.2,0-21.4,0c0.1-0.3,0.1-0.5,0.2-0.8c5.6-16.7,11.1-33.3,16.7-50c0.2-0.5,0.3-0.9,1-0.9
	c6.7,0,13.4,0,20.2,0c0.1,0,0.3,0,0.6,0c-1,3-2,5.9-2.9,8.9c0.1,0,0.2,0.1,0.3,0.1c0.3-0.5,0.6-1,0.9-1.6c1.8-4.3,4.6-7.8,8.5-10.3
	c1.6-1,3.4-1.7,5.3-1.9c4.1-0.3,7.1,2.2,7.8,6.4c0.6,3.9-0.3,7.5-2,10.9c-2.2,4.4-5.3,7.9-9.9,10c-1.5,0.7-3.1,1-4.7,0.9
	c-2.4-0.2-4.1-1.3-5.3-3.3c-0.2-0.3-0.4-0.7-0.6-1.1c-1.5,0.9-2.7,2.2-3.8,3.5c-1.6,2.2-2.7,4.6-3.5,7.1c-2.3,7-4.7,14.1-7,21.1
	C354.2,183.6,354.1,183.9,354,184.2z"/>
<path class="st0" d="M113.3,143.8c-2.6,0-5.2,0-7.7,0c0-0.1-0.1-0.1-0.1-0.2c13-10.2,26.1-20.3,39.4-30.7c-1.8,5.5-3.5,10.7-5.3,16
	c3.6,0,7.1,0,10.7,0c-0.2,0.7-0.4,1.2-0.6,1.8c-1.4,4.1-2.7,8.1-4.1,12.2c-0.2,0.7-0.5,0.9-1.2,0.8c-3,0-6,0-9.1,0
	c-0.5,0-0.9,0.1-1,0.7c-2.1,6.3-4.2,12.6-6.2,18.9c-0.3,1-0.5,2.1-0.5,3.2c0,1.9,1.1,3,3,3.2c1.9,0.2,3.8-0.2,5.6-0.8
	c0.2-0.1,0.4-0.1,0.7-0.2c-0.1,0.3-0.1,0.5-0.2,0.7c-1.5,4.5-3,8.9-4.5,13.4c-0.1,0.3-0.4,0.7-0.8,0.8c-6,1.8-12.1,2.5-18.3,1.2
	c-6.4-1.3-9.6-6.4-8.7-12.9c0.5-3.7,1.9-7.2,3.1-10.7c1.8-5.5,3.6-10.9,5.5-16.4C113.1,144.5,113.2,144.2,113.3,143.8z"/>
<path class="st0" d="M154.3,143.8c-2.6,0-5.2,0-7.7,0c0-0.1-0.1-0.1-0.1-0.2c13-10.1,26-20.3,39-30.4c0.1,0,0.1,0.1,0.2,0.1
	c-1.7,5.2-3.4,10.3-5.2,15.6c3.6,0,7.1,0,10.7,0c-0.9,2.7-1.8,5.3-2.6,7.9c-0.7,2-1.4,4.1-2,6.1c-0.2,0.7-0.5,0.9-1.2,0.9
	c-3-0.1-6,0-9,0c-0.6,0-0.9,0.1-1.2,0.8c-2,6.1-4.1,12.2-6.1,18.3c-0.3,1-0.6,2.1-0.7,3.1c-0.2,2.2,1,3.7,3.2,3.7
	c1.6,0,3.2-0.4,4.9-0.6c0.4-0.1,0.8-0.2,1.3-0.4c-0.1,0.3-0.1,0.6-0.2,0.8c-1.5,4.4-3,8.9-4.5,13.3c-0.1,0.3-0.5,0.7-0.8,0.8
	c-6.2,1.8-12.5,2.5-18.8,1.1c-5.7-1.3-8.6-5.7-8.2-11.5c0.3-3.7,1.5-7.1,2.7-10.5c2-6,4-11.9,6-17.9
	C154.1,144.4,154.2,144.2,154.3,143.8z"/>
<path class="st0" d="M176.7,184.2c6.2-18.6,12.4-37.2,18.7-55.8c3.2,2.4,6.7,3.4,10.6,3.4c3.8,0.1,7.4-0.8,10.8-3.1
	c-0.8,2.4-1.5,4.6-2.3,6.8c-5.3,15.9-10.6,31.8-15.9,47.7c-0.2,0.7-0.5,1-1.3,1c-6.5,0-13,0-19.4,0
	C177.5,184.2,177.2,184.2,176.7,184.2z"/>
<path class="st0" d="M220.9,119.3c-0.2,3.6-2.1,7-5.7,9.3c-3.1,1.9-6.3,0.9-7.7-2.4c-1.8-4.4-0.7-8.3,2.4-11.7c1-1.1,2.2-2,3.5-2.7
	c2.4-1.3,4.8-0.4,6.2,2C220.5,115.2,221,116.8,220.9,119.3z"/>
<path class="st0" d="M62.3,208.9c-1.1,0-2.1,0-3.2,0c0-0.3,0-0.7,0-1c0-2.3,0-4.5,0-6.8c0-1.5-0.8-2.4-2.2-2.4
	c-1.3,0-2.2,0.9-2.2,2.4c0,2.6,0,5.1,0,7.8c-1.1,0-2.1,0-3.1,0c0-4.2,0-8.5,0-12.8c1,0,1.9,0,3,0c0.1,0.3,0.1,0.6,0.2,0.9
	c2.3-1.6,4.5-1.7,6.7,0.4c1.1-1.2,2.5-1.7,4.2-1.6c2.1,0.1,3.9,1.4,4.1,3.4c0.2,3.2,0.1,6.4,0.1,9.6c-1,0-1.9,0-3,0
	c0-0.3,0-0.6,0-0.9c0-2.4,0-4.8,0-7.2c-0.1-1.7-1.8-2.6-3.3-1.7c-0.8,0.5-1,1.3-1,2.2c0,2.2,0,4.4,0,6.6
	C62.3,208.2,62.3,208.5,62.3,208.9z"/>
<path class="st0" d="M365.6,200.8c-0.8,2.5-1.6,4.8-2.4,7.1c-0.2,0.8-0.6,1.2-1.4,1c-0.2,0-0.4,0-0.6,0c-0.8,0.1-1.1-0.2-1.3-1
	c-1.1-3.6-2.2-7.2-3.3-10.9c-0.1-0.3-0.2-0.7-0.3-1.1c1.1,0,2,0,3,0c0.2,0,0.5,0.4,0.5,0.6c0.6,2.2,1.2,4.4,1.7,6.6
	c0,0.2,0.1,0.3,0.2,0.7c0.4-1.3,0.8-2.4,1.2-3.4c0.3-1,0.6-2,1-3c0.5-1.5,0.5-1.5,2.1-1.5c0.6,0,0.8,0.2,1,0.8c0.6,2,1.3,4.1,2,6.1
	c0.1,0.3,0.2,0.5,0.4,1.1c0.2-0.6,0.3-0.9,0.4-1.2c0.5-1.9,1-3.9,1.5-5.8c0.2-0.8,0.5-1,1.3-0.9c0.7,0.1,1.5,0,2.4,0
	c-0.5,1.8-1.1,3.5-1.6,5.2c-0.7,2.3-1.4,4.6-2.1,6.9c-0.2,0.6-0.4,0.8-1,0.8c-1.9,0-1.9,0-2.5-1.8c-0.6-1.8-1.2-3.5-1.7-5.3
	C365.9,201.6,365.8,201.3,365.6,200.8z"/>
<path class="st0" d="M33.9,208.9c1.4-3.8,2.7-7.5,4.1-11.2c0.7-1.9,1.4-3.8,2.1-5.7c0.2-0.6,0.5-0.9,1.2-0.8c0.6,0.1,1.2,0,1.8,0
	c2.2,5.9,4.3,11.8,6.5,17.7c-1.1,0-2.2,0-3.2,0c-0.2,0-0.5-0.3-0.6-0.5c-0.3-0.6-0.5-1.3-0.7-1.9c-0.1-0.5-0.4-0.6-0.9-0.6
	c-1.7,0-3.3,0-5,0c-0.5,0-0.7,0.2-0.9,0.6c-0.3,0.8-0.4,2-0.9,2.3c-0.7,0.4-1.8,0.1-2.7,0.2C34.4,209,34.2,208.9,33.9,208.9z
	 M39.5,202.9c1.6,0,2.9,0,4.4,0c-0.7-2.1-1.4-4.2-2.2-6.5C41,198.7,40.3,200.7,39.5,202.9z"/>
<path class="st0" d="M329.4,191.2c2.5,0,4.9-0.1,7.2,0c3.3,0.1,5.4,2.4,5.4,5.6c0,3.1-2.3,5.3-5.5,5.4c-1.2,0-2.4,0-3.8,0
	c0,1.2,0,2.3,0,3.4c0,1.1,0,2.1,0,3.3c-1.2,0-2.2,0-3.4,0C329.4,203,329.4,197.2,329.4,191.2z M332.7,194.3c0,1.5,0,3,0,4.4
	c0,0.2,0.3,0.5,0.5,0.5c1,0,2,0.1,3,0c1.4-0.1,2.3-1,2.3-2.4c0-1.4-0.8-2.4-2.3-2.5C335.2,194.2,334,194.3,332.7,194.3z"/>
<path class="st0" d="M262.9,206.8c0.7-0.7,1.4-1.4,2.2-2.1c1.6,1.3,3.5,1.6,5.5,1.2c1.3-0.3,1.9-1,1.9-2.2c-0.1-1.2-0.7-1.7-2-2
	c-1-0.2-2.1-0.3-3.1-0.5c-1.7-0.4-3.1-1.2-3.6-3.1c-0.5-1.9-0.3-3.8,1.1-5.3c2.4-2.6,8.1-2.4,10.4,0.3c-0.7,0.6-1.4,1.3-2.1,2
	c-1-0.9-2.4-1.1-3.7-1.1c-0.4,0-0.8,0.1-1.1,0.2c-0.9,0.3-1.5,1.2-1.5,2.1c0,0.9,0.6,1.6,1.6,1.8c1.1,0.2,2.2,0.4,3.3,0.6
	c2.3,0.4,3.7,1.7,4.1,3.7c0.4,2.5-0.4,4.5-2.4,5.7C270.3,209.9,265.1,209.2,262.9,206.8z"/>
<path class="st0" d="M421.9,207.9c-1.3,1.3-2.8,1.5-4.3,1.1c-1.8-0.4-2.9-1.6-3-3.3c-0.2-2.1-0.3-4.2,0-6.3c0.4-3.2,4.2-4.6,6.9-2.7
	c0.1,0.1,0.3,0.2,0.5,0.4c0-2,0-3.9,0-5.8c1.1,0,2.1,0,3.2,0c0,5.9,0,11.7,0,17.6c-1,0-2,0-3,0C422,208.6,422,208.3,421.9,207.9z
	 M417.4,202.5c0.1,0.7,0.1,1.4,0.3,2.1c0.2,1.1,0.9,1.6,1.9,1.7c1.1,0,1.8-0.4,2.1-1.5c0.4-1.5,0.4-3.1,0-4.6c-0.3-1-1-1.5-2.1-1.4
	c-1,0-1.7,0.6-1.9,1.6C417.5,201,417.5,201.7,417.4,202.5z"/>
<path class="st0" d="M200.8,191.2c1.1,0,2.1,0,3.2,0c0,5.9,0,11.7,0,17.6c-1,0-2,0-3,0c0-0.3-0.1-0.6-0.1-1
	c-1.3,1.2-2.7,1.5-4.2,1.2c-1.7-0.3-2.7-1.3-3.1-2.9c-0.5-2.3-0.6-4.7,0-7c0.7-3,4.3-4.3,6.8-2.4c0.1,0.1,0.3,0.2,0.5,0.4
	C200.8,195.1,200.8,193.2,200.8,191.2z M196.3,202.5c0.1,0.7,0.1,1.4,0.3,2.1c0.2,1.1,0.9,1.6,1.9,1.6c1,0,1.8-0.4,2.1-1.5
	c0.4-1.5,0.4-3.1,0-4.6c-0.3-1-1-1.5-2.1-1.5c-1,0-1.7,0.6-1.9,1.6C196.4,201,196.4,201.8,196.3,202.5z"/>
<path class="st0" d="M435,191.2c1.1,0,2.1,0,3.1,0c0.2,0,0.5,0.4,0.6,0.7c1,3.3,2,6.5,3,9.8c0.1,0.3,0.2,0.5,0.4,1
	c0.7-2.1,1.2-4,1.8-5.9c0.6-1.9,1.2-3.7,1.7-5.6c1.2,0,2.3,0,3.6,0c-0.4,1.2-0.7,2.3-1.1,3.4c-1.5,4.5-3,9.1-4.5,13.6
	c-0.2,0.6-0.4,0.8-1,0.8c-1.8,0-1.8,0-2.3-1.7c-1.7-5-3.3-10-5-15C435.2,191.9,435.1,191.6,435,191.2z"/>
<path class="st0" d="M511,201.3c0.1-1,0.1-1.8-0.8-2.4c-1.1-0.7-2.7-0.4-4.2,0.7c-0.6-0.6-1.2-1.3-1.9-2c0.6-0.8,1.5-1.5,2.5-1.5
	c1.4-0.1,2.9-0.2,4.3,0c2,0.3,3.1,1.7,3.2,3.7c0.1,3,0,6,0,9.1c-1,0-2,0-3,0c-0.1-0.2-0.1-0.5-0.2-0.9c-1.3,1.1-2.8,1.3-4.4,1
	c-2-0.4-3.1-1.9-3.1-4c0-1.9,1.3-3.3,3.2-3.5c1-0.1,2-0.1,3-0.1C510.2,201.3,510.6,201.3,511,201.3z M511,203.5
	c-1.1,0-2.1-0.1-3.1,0c-0.8,0.1-1.2,0.6-1.2,1.4c0,0.7,0.4,1.3,1.1,1.4C509.6,206.7,511.4,206.3,511,203.5z"/>
<path class="st0" d="M123.8,208c-1.4,1.1-2.8,1.3-4.4,1c-1.9-0.4-3.1-1.9-3.1-3.9c0-1.9,1.2-3.3,3.1-3.6c0.7-0.1,1.5-0.1,2.2-0.2
	c0.7,0,1.4,0,2.1,0c0.1-1,0.1-1.8-0.7-2.4c-1.1-0.7-2.7-0.4-4.2,0.7c-0.6-0.6-1.2-1.3-2-2.1c0.8-0.5,1.6-1.1,2.4-1.3
	c1.7-0.5,3.4-0.4,5,0.1c1.6,0.5,2.6,1.6,2.6,3.3c0.1,3.1,0,6.2,0,9.4c-1,0-1.9,0-2.9,0C124,208.7,123.9,208.4,123.8,208z
	 M123.7,203.5c-1,0-2.1,0-3.1,0c-0.8,0-1.2,0.5-1.3,1.3c0,0.8,0.4,1.4,1.2,1.5C122.5,206.7,124.2,206.2,123.7,203.5z"/>
<path class="st0" d="M310.4,208.9c-1,0-2,0-3,0c-0.1-0.3-0.1-0.6-0.2-0.9c-1.4,1.2-2.9,1.3-4.5,1c-1.9-0.4-3-1.9-3-3.9
	c0-1.9,1.2-3.3,3.1-3.6c1.4-0.2,2.8-0.2,4.3-0.2c0.1-0.9,0.1-1.7-0.7-2.3c-1.1-0.7-2.8-0.4-4.2,0.7c-0.6-0.6-1.2-1.3-1.8-2
	c0.7-1,1.9-1.6,3.3-1.6c1.3,0,2.7,0,4,0.3c1.7,0.4,2.6,1.7,2.7,3.4C310.5,202.7,310.4,205.8,310.4,208.9z M307.1,203.5
	c-1.1,0-2.1,0-3.1,0c-0.7,0-1.2,0.5-1.3,1.3c-0.1,0.8,0.3,1.4,1,1.5C305.7,206.8,307.7,206.3,307.1,203.5z"/>
<path class="st0" d="M190.1,208.9c-1,0-2,0-3,0c0-0.3-0.1-0.6-0.1-1c-1.4,1.2-2.9,1.4-4.5,1c-1.9-0.4-3-1.8-3-3.9
	c0-1.9,1.2-3.3,3.1-3.6c0.8-0.1,1.7-0.1,2.5-0.2c0.6,0,1.2,0,1.9,0c0.1-1,0.1-1.9-0.8-2.4c-1.1-0.7-2.7-0.4-4.3,0.8
	c-0.2-0.3-0.4-0.7-0.7-1c-0.3-0.3-0.7-0.6-1.1-0.9c0.8-1,1.8-1.6,2.9-1.8c1.6-0.3,3.1-0.3,4.6,0.2c1.5,0.5,2.5,1.5,2.6,3.1
	C190.2,202.5,190.1,205.7,190.1,208.9z M186.9,203.5c-1.1,0-2.1,0-3.1,0c-0.7,0-1.1,0.5-1.2,1.2c-0.1,0.7,0.1,1.3,0.9,1.6
	c1,0.3,1.9,0.3,2.8-0.3C187.1,205.4,187,204.5,186.9,203.5z"/>
<path class="st0" d="M411.4,207.1c-2.1,2.2-4.6,2.5-7.3,1.7c-2.5-0.7-3.4-2.8-3.5-5.1c-0.1-1.3,0-2.7,0.4-4c0.7-2.6,2.8-3.9,5.7-3.8
	c2.5,0.1,4.4,1.7,4.9,4.3c0.2,1,0.2,2.1,0.3,3.3c-2.8,0-5.4,0-8,0c-0.2,1.1,0.1,2.1,1,2.5c1.7,0.9,3.2,0.5,4.6-0.7
	C410.1,205.8,410.7,206.4,411.4,207.1z M403.7,201.2c1.6,0,3.2,0,4.8,0c0.1-1.6-0.9-2.7-2.4-2.7
	C404.6,198.5,403.6,199.6,403.7,201.2z"/>
<path class="st0" d="M218.5,203.5c-2.8,0-5.5,0-8.2,0c0,1.2,0.4,2.2,1.5,2.6c1.6,0.7,3,0.3,4.4-0.9c0.5,0.7,1.1,1.3,1.7,2.1
	c-0.8,1-2.1,1.7-3.7,1.8c-1,0.1-2,0-3-0.2c-2-0.4-3.2-1.8-3.7-3.8c-0.4-1.7-0.4-3.4,0-5.1c0.7-2.8,2.8-4.3,5.9-4.2
	c2.6,0.1,4.6,2,5,4.7C218.4,201.4,218.4,202.4,218.5,203.5z M215.1,201.2c0.1-1.6-0.9-2.7-2.3-2.7c-1.6,0-2.5,1-2.5,2.7
	C211.9,201.2,213.5,201.2,215.1,201.2z"/>
<path class="st0" d="M177.4,203.5c-2.8,0-5.5,0-8.2,0c0,1.2,0.4,2.2,1.4,2.6c1.6,0.7,3,0.3,4.4-0.9c0.6,0.7,1.2,1.3,1.8,2
	c-1.5,1.8-4.4,2.5-7.2,1.6c-2-0.6-3.4-2.5-3.5-5c0-1.3,0-2.7,0.3-4c0.7-2.8,2.9-4.2,5.9-3.9c2.5,0.2,4.4,2,4.8,4.6
	C177.3,201.4,177.3,202.4,177.4,203.5z M174.1,201.2c0.1-1.5-0.9-2.6-2.2-2.7c-1.6-0.1-2.6,0.9-2.6,2.7
	C170.9,201.2,172.5,201.2,174.1,201.2z"/>
<path class="st0" d="M75.9,203.5c0.1,1.3,0.4,2.2,1.5,2.6c1.6,0.7,3,0.3,4.4-0.9c0.6,0.7,1.1,1.3,1.7,2c-1.5,1.7-3.6,2.1-5.8,1.8
	c-2.9-0.4-4.6-2.2-4.8-5.2c-0.1-1.3-0.1-2.6,0.2-3.8c0.6-2.8,2.8-4.3,5.8-4.2c2.6,0.1,4.6,2,5,4.8c0.4,2.8,0.4,2.8-2.4,2.8
	C79.7,203.5,77.8,203.5,75.9,203.5z M80.8,201.2c0-1.6-0.9-2.7-2.3-2.7c-1.5,0-2.5,1-2.5,2.7C77.6,201.2,79.2,201.2,80.8,201.2z"/>
<path class="st0" d="M461.2,203.5c-2.7,0-5.3,0-7.9,0c-0.1,1.1,0.3,2.2,1.2,2.6c1.6,0.8,3.1,0.4,4.5-0.8c0.6,0.7,1.2,1.3,1.8,2
	c-0.9,1-2.1,1.7-3.7,1.8c-1,0.1-2,0-3-0.2c-2-0.4-3.1-1.8-3.7-3.7c-0.5-1.7-0.5-3.4,0-5.1c0.8-2.9,2.9-4.4,6-4.2
	c2.6,0.2,4.6,2.2,4.9,5.1C461.3,201.7,461.2,202.6,461.2,203.5z M458.1,201.2c0-1.8-1-2.8-2.6-2.7c-1.4,0.1-2.3,1.3-2.2,2.7
	C454.9,201.2,456.5,201.2,458.1,201.2z"/>
<path class="st0" d="M385.1,205.2c0.6,0.7,1.2,1.3,1.8,1.9c-1.6,1.9-3.7,2.3-6,1.9c-2.9-0.4-4.5-2.2-4.7-5.1
	c-0.1-1.3-0.1-2.6,0.2-3.8c0.6-3,2.8-4.5,5.9-4.3c2.6,0.2,4.6,2.1,4.9,4.9c0.1,0.8,0,1.7,0,2.7c-2.7,0-5.3,0-8,0
	c0,1.2,0.3,2.1,1.3,2.6C382.3,206.8,383.8,206.4,385.1,205.2z M384.2,201.2c0-1.7-1-2.7-2.5-2.7c-1.4,0-2.4,1.1-2.3,2.8
	c1.4,0,2.8,0,4.2,0C383.8,201.3,384,201.2,384.2,201.2z"/>
<path class="st0" d="M254.8,208.9c-1.1,0-2.1,0-3.2,0c0-0.3,0-0.6,0-0.9c0-2.3,0-4.7,0-7c0-1.7-1.5-2.8-3.1-2.1
	c-0.9,0.4-1.3,1.1-1.3,2.1c0,2.3,0,4.5,0,6.8c0,0.3,0,0.7,0,1.1c-1.1,0-2.1,0-3.1,0c0-4.2,0-8.5,0-12.8c1,0,1.9,0,3,0
	c0,0.3,0.1,0.6,0.1,0.8c0.9-0.3,1.8-0.8,2.7-1c2.7-0.4,4.8,1.3,4.9,4C254.9,202.9,254.8,205.9,254.8,208.9z"/>
<path class="st0" d="M551.9,208.9c-1.1,0-2.1,0-3.1,0c0-4.3,0-8.5,0-12.8c1,0,2,0,3,0c0,0.3,0.1,0.6,0.1,0.7
	c1.1-0.3,2.3-0.8,3.4-0.8c2.2-0.1,3.8,1.3,4,3.5c0.2,1.8,0.1,3.7,0.2,5.5c0,1.3,0,2.6,0,4c-1.1,0-2.1,0-3.2,0c0-0.4,0-0.8,0-1.2
	c0-2.2,0-4.4,0-6.5c0-1.8-1.5-2.9-3.1-2.2c-1,0.4-1.3,1.3-1.3,2.2c0,2.2,0,4.5,0,6.7C551.9,208.2,551.9,208.5,551.9,208.9z"/>
<path class="st0" d="M534.1,202.5c0.1-0.8,0.1-1.7,0.3-2.5c0.5-2.7,2.6-4.2,5.7-4.1c2.6,0.1,4.6,1.9,4.9,4.5c0.1,1.4,0.2,2.7,0,4.1
	c-0.3,3.1-2.4,4.7-5.7,4.7c-2.8-0.1-4.8-2-5-4.9c0-0.6,0-1.1,0-1.7C534.2,202.5,534.2,202.5,534.1,202.5z M537.3,202.2
	c0,0.8,0.1,1.4,0.1,2c0,0.2,0.1,0.3,0.1,0.5c0.3,1,1.1,1.6,2.1,1.5c1,0,1.9-0.7,2-1.7c0.1-1.4,0.1-2.8,0-4.2c-0.1-1-1-1.6-2-1.7
	c-1,0-1.9,0.5-2.1,1.6C537.4,201,537.4,201.7,537.3,202.2z"/>
<path class="st0" d="M343.9,202.3c0.1-0.9,0.2-1.9,0.4-2.8c0.7-2.4,2.8-3.7,5.7-3.6c2.4,0.1,4.4,1.8,4.7,4.2c0.2,1.6,0.2,3.3,0,4.9
	c-0.3,2.5-2.4,4.2-5.1,4.2c-2.8,0-5-1.6-5.4-4.1C344,204.2,344,203.3,343.9,202.3z M347.1,202.5c0.1,0.7,0.1,1.5,0.3,2.2
	c0.2,1,1,1.6,2,1.6c1,0,2-0.6,2.1-1.6c0.1-1.4,0.1-2.9,0-4.3c-0.1-1-1-1.6-2.1-1.6c-1,0-1.8,0.6-2.1,1.6
	C347.2,201,347.2,201.8,347.1,202.5z"/>
<path class="st0" d="M289.4,202.8c-0.1,0.8-0.1,1.5-0.2,2.1c-0.4,2.6-2.4,4.2-5.1,4.3c-2.9,0.1-5.1-1.4-5.5-4.1
	c-0.2-1.7-0.3-3.4,0-5.1c0.4-2.7,2.7-4.2,5.7-4.1c2.6,0.1,4.5,1.9,4.9,4.5C289.3,201.2,289.4,202.1,289.4,202.8z M281.6,202.4
	c0.1,0.6,0.1,1.3,0.2,1.9c0.2,1.1,1,1.8,2.1,1.9c1.1,0,2.1-0.7,2.2-1.8c0.1-1.3,0.1-2.6,0-3.9c-0.1-1.2-1-1.8-2.2-1.8
	c-1.1,0-1.9,0.7-2.1,1.8C281.7,201.2,281.6,201.8,281.6,202.4z"/>
<path class="st0" d="M464.8,196.1c1,0,2,0,3,0c0,0.3,0.1,0.6,0.1,1c0.3-0.2,0.5-0.3,0.7-0.5c2.8-1.8,6.5-0.3,6.7,3
	c0.2,3.1,0,6.1,0,9.3c-1,0-2,0-3.1,0c0-0.3,0-0.6,0-1c0-2.2,0-4.4,0-6.6c0-0.8-0.1-1.6-0.9-2.2c-1.4-1-3.4-0.2-3.5,1.6
	c-0.1,2.3-0.1,4.7-0.1,7c0,0.4,0,0.8,0,1.2c-1.1,0-2.1,0-3.1,0C464.8,204.6,464.8,200.4,464.8,196.1z"/>
<path class="st0" d="M164,205.9c0,1.1,0,2,0,3c-3.8,0-7.6,0-11.4,0c0-5.8,0-11.7,0-17.6c1.1,0,2.2,0,3.4,0c0,4.9,0,9.7,0,14.6
	C158.7,205.9,161.3,205.9,164,205.9z"/>
<path class="st0" d="M144.7,197.4c-0.6,0.6-1.3,1.2-1.7,1.6c-1.2-0.2-2.3-0.4-3.5-0.5c-0.3,0-0.7,0-0.9,0.2
	c-0.3,0.3-0.6,0.8-0.6,1.2c0,0.3,0.5,0.8,0.8,0.9c0.8,0.2,1.6,0.2,2.4,0.3c2.1,0.2,3.4,1.1,3.8,2.7c0.4,1.6,0.1,3-1.2,4.1
	c-2.3,1.9-7.5,1.6-9.5-0.6c0.7-0.6,1.4-1.3,2.1-2c1.2,0.9,2.6,1.3,4.2,1c0.3-0.1,0.7-0.1,0.8-0.3c0.3-0.3,0.6-0.8,0.5-1.2
	c0-0.3-0.5-0.8-0.8-0.9c-0.9-0.2-1.9-0.3-2.8-0.4c-2-0.2-3.1-1.2-3.4-2.9c-0.3-1.9,0.5-3.5,2.3-4.3
	C139.4,195.3,143.2,195.8,144.7,197.4z"/>
<path class="st0" d="M114.7,197.6c-0.7,0.7-1.4,1.4-2.1,2.1c-0.2-0.1-0.3-0.3-0.5-0.4c-1.5-1.1-3.4-0.6-3.9,1.2
	c-0.3,1.1-0.3,2.4-0.1,3.5c0.4,2.3,2.5,2.9,4.2,1.5c0.1-0.1,0.2-0.1,0.3-0.2c0.7,0.7,1.3,1.4,2.1,2.1c-1.4,1.5-3.2,1.9-5.1,1.6
	c-2.5-0.3-4.1-1.8-4.6-4.3c-0.4-1.9-0.4-3.9,0.4-5.7C106.9,195.5,112.2,194.7,114.7,197.6z"/>
<path class="st0" d="M482.9,196.4c0.9,0,1.5,0,2.3,0c0,0.8,0,1.5,0,2.4c-0.7,0-1.4,0-2.3,0c0,1.5,0,3,0,4.4c0,0.2,0,0.4,0,0.6
	c0.1,2.1-0.3,2.4,2.3,2.6c0,0.8,0,1.6,0,2.7c-1.1-0.1-2.2,0-3.2-0.4c-1.6-0.5-2.2-1.8-2.2-3.4c0-1.8,0-3.6,0-5.4c0-0.3,0-0.6,0-1
	c-0.5-0.1-0.9-0.1-1.3-0.2c0-0.8,0-1.5,0-2.3c0.4,0,0.8-0.1,1.2-0.1c0-1.2,0-2.5,0-3.7c1.1,0,2.1,0,3.2,0
	C482.9,193.8,482.9,195,482.9,196.4z"/>
<path class="st0" d="M518.5,198.9c-0.5-0.1-0.9-0.1-1.3-0.1c0-0.7,0-1.5,0-2.3c0.4,0,0.7-0.1,1.2-0.1c0-1.2,0-2.5,0-3.8
	c1.1,0,2.1,0,3.2,0c0,1.2,0,2.5,0,3.8c0.8,0,1.5,0,2.2,0c0,0.8,0,1.6,0,2.4c-0.6,0-1.1,0-1.6,0c-0.5,0-0.6,0.2-0.6,0.6
	c0,1.9,0,3.7,0,5.6c0,1,0.4,1.3,1.3,1.3c0.3,0,0.5,0,0.9,0c0,0.9,0,1.7,0,2.6c-0.9,0-1.8,0.1-2.6,0c-1.5-0.2-2.5-1.3-2.7-2.9
	c-0.1-1.9-0.1-3.9-0.1-5.8C518.5,199.7,518.5,199.3,518.5,198.9z"/>
<path class="st0" d="M298,206.3c0,0.9,0,1.7,0,2.7c-1.1-0.1-2.2,0-3.3-0.3c-1.6-0.4-2.3-1.7-2.3-3.3c0-4.6,0-9.3,0-13.9
	c0-0.1,0.1-0.2,0.1-0.3c1,0,2,0,3.1,0c0,0.3,0,0.7,0,1c0,4,0,8,0,12c0,1.8,0.1,1.9,1.9,2C297.6,206.3,297.8,206.3,298,206.3z"/>
<path class="st0" d="M501.4,206.3c0,0.9,0,1.7,0,2.7c-1.1-0.1-2.1,0-3.1-0.3c-1.4-0.3-2.4-1.5-2.4-3c0-4.8,0-9.6,0-14.5
	c1,0,2.1,0,3.2,0c0,0.4,0,0.7,0,1.1c0,4,0,8,0,12c0,1.8,0.1,1.9,1.8,1.9C501,206.3,501.2,206.3,501.4,206.3z"/>
<path class="st0" d="M96.6,197c-0.9,0.9-1.6,1.6-2.5,2.4c-0.1-0.1-0.2-0.2-0.4-0.3c-1.5-1-3.2-0.2-3.4,1.6c-0.1,0.9-0.1,1.7-0.1,2.6
	c0,1.8,0,3.7,0,5.6c-1.1,0-2.1,0-3.1,0c0-4.3,0-8.5,0-12.8c1,0,2,0,3,0c0,0.3,0.1,0.6,0.1,1C92.4,195.6,94.4,195.3,96.6,197z"/>
<path class="st0" d="M393.6,196.1c0,0.3,0,0.6,0.1,1c2.1-1.5,4.1-1.8,6.3-0.1c-0.9,0.8-1.7,1.5-2.5,2.3c0,0-0.2-0.1-0.4-0.3
	c-1.3-0.8-2.8-0.2-3.2,1.3c-0.1,0.5-0.1,0.9-0.1,1.4c0,2.4,0,4.7,0,7.1c-1.1,0-2.1,0-3.1,0c0-4.3,0-8.5,0-12.8
	C391.6,196.1,392.6,196.1,393.6,196.1z"/>
<path class="st0" d="M221.5,196.1c1,0,2,0,3,0c0,0.3,0.1,0.6,0.1,1c3-1.5,4.8-1.5,6.2,0.1c-0.8,0.7-1.6,1.4-2.5,2.3
	c0.2,0,0.1,0,0.1,0c-0.8-0.6-1.6-0.9-2.6-0.4c-1,0.5-1.2,1.4-1.2,2.4c0,2.2,0,4.4,0,6.5c0,0.3,0,0.6,0,1c-1.1,0-2.1,0-3.1,0
	C221.5,204.6,221.5,200.4,221.5,196.1z"/>
<path class="st0" d="M323.5,197c-0.9,0.8-1.7,1.5-2.5,2.3c0,0-0.1,0-0.2-0.1c-0.7-0.6-1.5-0.7-2.3-0.2c-0.8,0.4-1.1,1.1-1.1,2
	c0,2.3,0,4.6,0,6.9c0,0.3,0,0.6,0,1c-1.1,0-2.1,0-3.1,0c0-4.2,0-8.5,0-12.8c1,0,1.9,0,3,0c0,0.3,0.1,0.6,0.1,1
	C319.2,195.6,321.3,195.3,323.5,197z"/>
<path class="st0" d="M530.6,208.9c-1,0-2,0-3.1,0c0-4.1,0-8.3,0-12.5c1,0,2,0,3.1,0C530.6,200.6,530.6,204.7,530.6,208.9z"/>
<path class="st0" d="M101.6,208.9c-1,0-2,0-3.1,0c0-4.1,0-8.3,0-12.5c1,0,2,0,3.1,0C101.6,200.6,101.6,204.7,101.6,208.9z"/>
<path class="st0" d="M488.7,196.4c1.1,0,2,0,3.1,0c0,4.2,0,8.3,0,12.5c-1,0-2,0-3.1,0C488.7,204.8,488.7,200.6,488.7,196.4z"/>
<path class="st0" d="M237.2,196.4c1,0,2,0,3.1,0c0,4.1,0,8.3,0,12.4c-1,0-2,0-3.1,0C237.2,204.7,237.2,200.6,237.2,196.4z"/>
<path class="st0" d="M130.5,191.3c1.1,0,2.1,0,3.3,0c0,0.9,0,1.8,0,2.7c0,0.2-0.1,0.4-0.3,0.5c-1,0.8-1.9,1.5-3,2.3
	C130.5,194.9,130.5,193.1,130.5,191.3z"/>
<path class="st0" d="M240.4,191.2c0,0.8,0,1.6,0,2.5c-1.1,0-2.1,0-3.2,0c0-0.8,0-1.6,0-2.5C238.3,191.2,239.3,191.2,240.4,191.2z"/>
<path class="st0" d="M488.7,193.6c0-0.8,0-1.6,0-2.4c1.1,0,2.1,0,3.1,0c0,0.8,0,1.6,0,2.4C490.8,193.6,489.8,193.6,488.7,193.6z"/>
<path class="st0" d="M101.7,191.1c0,0.9,0,1.7,0,2.5c-1,0-2,0-3.2,0c0-0.7,0-1.4,0-2.1c0-0.2,0.3-0.4,0.5-0.4
	C99.9,191.1,100.7,191.1,101.7,191.1z"/>
<path class="st0" d="M530.6,193.7c-1.1,0-2.1,0-3.1,0c0-0.8,0-1.6,0-2.5c1,0,2.1,0,3.1,0C530.6,192,530.6,192.8,530.6,193.7z"/>
</svg>
