<?xml version="1.0" encoding="UTF-8"?>
<svg xmlns="http://www.w3.org/2000/svg" xmlns:xlink="http://www.w3.org/1999/xlink" version="1.1" viewBox="0 0 64.9 30.1">
  <defs>
    <style>
      .cls-1 {
        fill: none;
      }

      .cls-2 {
        fill: #fff;
        fill-rule: evenodd;
      }

      .cls-3 {
        clip-path: url(#clippath-1);
      }

      .cls-4 {
        clip-path: url(#clippath-3);
      }

      .cls-5 {
        clip-path: url(#clippath-4);
      }

      .cls-6 {
        clip-path: url(#clippath-2);
      }

      .cls-7 {
        fill: #b9971a;
      }

      .cls-8 {
        clip-path: url(#clippath);
      }

      .cls-9 {
        fill: #bb981d;
      }
    </style>
    <clipPath id="clippath">
      <rect class="cls-1" x="2.3" y="6.1" width="58.7" height="17.8"/>
    </clipPath>
    <clipPath id="clippath-1">
      <rect class="cls-1" x="3.1" y="7" width="56.9" height="16.1"/>
    </clipPath>
    <clipPath id="clippath-2">
      <rect class="cls-1" x="2.3" y="6.1" width="58.7" height="17.8"/>
    </clipPath>
    <clipPath id="clippath-3">
      <rect class="cls-1" x="3.1" y="7" width="56.9" height="16.1"/>
    </clipPath>
    <clipPath id="clippath-4">
      <rect class="cls-1" x="2.3" y="6.1" width="58.7" height="17.8"/>
    </clipPath>
  </defs>
  <!-- Generator: Adobe Illustrator 28.7.1, SVG Export Plug-In . SVG Version: 1.2.0 Build 142)  -->
  <g>
    <g id="_x3F__x3F__x3F__x3F__1">
      <rect class="cls-7" x="14.6" y="7" width="9.2" height="2"/>
      <polygon class="cls-2" points="53.3 8.8 56.4 13.7 51.3 13.7 50 15.7 60 15.7 54.5 7 52.1 7 46.7 15.7 49 15.7 53.3 8.8"/>
      <g class="cls-8">
        <path class="cls-2" d="M46.1,10.5v-.8c0-.8-.3-1.5-.8-2-.5-.5-1.2-.8-1.9-.8h-7.6v8.8h1.9v-2.5h4.7l1.5,2.5h2.3l-1.6-2.7c.3-.1.6-.3.8-.6.5-.5.8-1.2.8-2M44.1,10.5c0,.5-.3.7-.8.7h-5.7v-2.2h5.7c.5,0,.8.2.8.7v.8Z"/>
        <path class="cls-2" d="M13.3,13c0,.8-.3,1.5-.8,2-.5.5-1.2.8-1.9.8H3.1v-5.5h1.9v3.5h5.5c.5,0,.7-.2.7-.7v-3.2c0-.5-.2-.7-.7-.7H3.1v-2h7.5c.8,0,1.4.3,1.9.8.5.5.8,1.2.8,2v3.2Z"/>
        <polygon class="cls-2" points="23.4 10.3 23.4 12.4 16.6 12.4 16.6 13.7 23.8 13.7 23.8 15.7 14.6 15.7 14.6 10.3 23.4 10.3"/>
        <path class="cls-2" d="M34.5,15.7h-7c-.8,0-1.4-.3-1.9-.8-.5-.5-.8-1.2-.8-2v-3.2c0-.8.3-1.5.8-2,.5-.5,1.2-.8,1.9-.8h7v2h-7c-.5,0-.8.2-.8.7v3.2c0,.5.3.7.8.7h7v2Z"/>
        <path class="cls-2" d="M57.7,7.3c-.5,0-1,.5-1,1s.4,1,1,1,1-.5,1-1-.4-1-1-1M57.7,9.2c-.5,0-.8-.4-.8-.9s.4-.9.8-.9.8.4.8.9-.4.9-.8.9"/>
        <path class="cls-2" d="M57.8,7.8h-.5v1.1h.2v-.4h.3l.2.4h.2l-.2-.4c.3-.2.2-.7-.2-.7M57.8,8.4h-.3v-.4h.3c.3,0,.3.4,0,.4"/>
        <polygon class="cls-9" points="5.9 23 5.5 23 5.5 21.2 5.6 20.5 5.6 20.5 4.6 23 4.3 23 3.4 20.5 3.4 20.5 3.4 21.2 3.4 23 3.1 23 3.1 20.2 3.6 20.2 4.3 21.9 4.5 22.6 4.5 22.6 4.7 21.9 5.3 20.2 5.9 20.2 5.9 23"/>
        <polygon class="cls-9" points="10.8 23 8.7 23 8.7 20.2 10.7 20.2 10.7 20.5 9 20.5 9 21.4 10.3 21.4 10.3 21.7 9 21.7 9 22.7 10.8 22.7 10.8 23"/>
        <polygon class="cls-9" points="14.4 23 14 23 14 20.5 13 20.5 13 20.2 15.4 20.2 15.4 20.5 14.4 20.5 14.4 23"/>
        <path class="cls-9" d="M18.4,20.5v.4c-.1,0-.5,1-.5,1h1l-.4-1v-.4h-.1ZM19.7,23h-.4l-.3-.8h-1.3l-.3.8h-.4l1.1-2.9h.4l1.1,2.9"/>
        <polygon class="cls-9" points="24.2 23 22.2 23 22.2 20.2 22.5 20.2 22.5 22.7 24.2 22.7 24.2 23"/>
      </g>
      <g class="cls-3">
        <path class="cls-9" d="M30.2,20.5v1h.7c.4,0,.6-.2.6-.5s-.2-.5-.6-.5h-.7M32.1,23h-.4l-.8-1.2h-.7v1.2h-.3v-2.9h1.1c.3,0,.5,0,.7.2.2.2.3.4.3.6s0,.4-.2.5c-.1.1-.3.2-.5.3l.8,1.2"/>
        <path class="cls-9" d="M35.8,20.4c-.3,0-.5.1-.7.3-.2.2-.3.5-.3.8s0,.6.3.8c.2.2.4.3.7.3s.5-.1.7-.3c.2-.2.3-.5.3-.8s0-.6-.3-.8c-.2-.2-.4-.3-.7-.3M35.8,23.1c-.3,0-.5,0-.7-.2-.2-.1-.4-.3-.5-.5-.1-.2-.2-.5-.2-.8s0-.6.2-.8c.1-.2.3-.4.5-.5.2-.1.4-.2.7-.2s.5,0,.7.2c.2.1.4.3.5.5.1.2.2.5.2.8s0,.6-.2.8c-.1.2-.3.4-.5.5-.2.1-.4.2-.7.2"/>
        <path class="cls-9" d="M40.9,20.4c-.3,0-.5.1-.7.3-.2.2-.3.5-.3.8s0,.6.3.8c.2.2.4.3.7.3s.5-.1.7-.3c.2-.2.3-.5.3-.8s0-.6-.3-.8c-.2-.2-.4-.3-.7-.3M40.9,23.1c-.3,0-.5,0-.7-.2-.2-.1-.4-.3-.5-.5-.1-.2-.2-.5-.2-.8s0-.6.2-.8c.1-.2.3-.4.5-.5.2-.1.4-.2.7-.2s.5,0,.7.2c.2.1.4.3.5.5.1.2.2.5.2.8s0,.6-.2.8c-.1.2-.3.4-.5.5-.2.1-.4.2-.7.2"/>
      </g>
      <g class="cls-6">
        <polygon class="cls-9" points="45.2 23 44.9 23 44.9 20.2 46.9 20.2 46.9 20.5 45.2 20.5 45.2 21.4 46.5 21.4 46.5 21.7 45.2 21.7 45.2 23"/>
        <rect class="cls-9" x="49.4" y="20.2" width=".3" height="2.9"/>
      </g>
      <g class="cls-4">
        <polygon class="cls-9" points="54.8 23 54.4 23 53.2 21.1 52.9 20.5 52.9 20.5 52.9 21 52.9 23 52.5 23 52.5 20.2 53 20.2 54.2 22.1 54.5 22.7 54.5 22.7 54.5 22.2 54.5 20.2 54.8 20.2 54.8 23"/>
        <path class="cls-9" d="M58.8,23.1c-.3,0-.5,0-.7-.2-.2-.1-.4-.3-.5-.5-.1-.2-.2-.5-.2-.8s0-.6.2-.8c.1-.2.3-.4.5-.5.2-.1.4-.2.7-.2s.5,0,.7.2c.2.1.3.3.4.5l-.3.2c0-.2-.2-.3-.3-.4-.1,0-.3-.1-.5-.1s-.4,0-.5.1c-.1,0-.3.2-.3.4,0,.2-.1.4-.1.6,0,.4,0,.6.3.9.2.2.4.3.7.3s.5,0,.6-.2c.2-.1.2-.3.2-.5h0c0-.1-.9-.1-.9-.1v-.3h1.2v1.4h-.3v-.4c0,.1-.2.2-.4.3-.2,0-.3.1-.6.1"/>
      </g>
      <g class="cls-5">
        <rect class="cls-7" x="3.1" y="17.8" width="56.9" height=".3"/>
      </g>
    </g>
  </g>
</svg>