<?xml version="1.0" encoding="utf-8"?>
<!-- Generator: Adobe Illustrator 27.1.1, SVG Export Plug-In . SVG Version: 6.00 Build 0)  -->
<svg version="1.1" id="Layer_1" xmlns="http://www.w3.org/2000/svg" xmlns:xlink="http://www.w3.org/1999/xlink" x="0px" y="0px"
	 viewBox="0 0 600 331.6" style="enable-background:new 0 0 600 331.6;" xml:space="preserve">
<style type="text/css">
	.st0{fill:#FFFFFF;}
</style>
<g>
	<path class="st0" d="M151.2,142.7c10.5-7.6,17.3-19.3,17.3-32.5c0-22.6-20-41.1-44.6-41.4L151.2,142.7z"/>
	<polygon class="st0" points="152,154.3 125.3,154.3 142.9,178.6 	"/>
	<path class="st0" d="M151.9,151.6l-2-5.3c-3.6,2.2-7.5,4-11.7,5.3H151.9z"/>
	<path class="st0" d="M78.1,110.2c0,13.1,6.7,24.9,17.2,32.4l26.9-73.8C97.7,69.4,78.1,87.7,78.1,110.2z"/>
	<path class="st0" d="M123.2,151.6l0.1-0.1l0.1,0.1c9.6,0,18.5-2.8,25.8-7.5L123,73.4L97.3,144C104.6,148.7,113.5,151.5,123.2,151.6
		z"/>
	<path class="st0" d="M96.5,146.2l-2,5.4h13.7C104,150.3,100.1,148.5,96.5,146.2z"/>
	<polygon class="st0" points="104.6,181.7 123,232.1 141.9,181.2 123.3,155.5 	"/>
	<polygon class="st0" points="181.7,232.1 153.9,156.8 144.8,181.2 	"/>
	<polygon class="st0" points="121.2,154.3 94.6,154.3 103.6,179 	"/>
	<polygon class="st0" points="64.8,233.3 101.7,181.6 92.6,156.8 	"/>
</g>
<polygon class="st0" points="247.5,114.7 254.1,114.7 254.1,128.8 254.2,128.8 265.2,114.7 272.8,114.7 259.5,130.7 272.8,147.1 
	265.2,147.1 254.2,132.9 254.1,132.9 254.1,147.1 247.5,147.1 "/>
<path class="st0" d="M293.5,132.9c-0.7-3.9-4-5.7-7.1-5.7c-2.3,0-6.3,1.2-7.5,5.7L293.5,132.9z M279.1,137.6c0.3,1.6,2.8,5,7.3,5
	c2.8,0,4.9-1.1,6.1-3.1h6.7c-1.5,4.4-6.6,8.5-12.8,8.5c-7.9,0-13.9-5.8-13.9-12.9c0-6.9,5.8-13.2,13.9-13.2
	c8.4,0,13.7,6.7,13.7,12.8c0,1.1-0.2,2.1-0.4,2.9H279.1z"/>
<path class="st0" d="M304,122.8h5.9v2.1c1-0.9,3.2-2.9,7.2-2.9c2.3,0,5.8,0.9,8,3.4c2.4,2.7,2.4,6.7,2.4,8.6l0,13.1h-6.3v-12
	c0-2,0-7.8-5.3-7.8c-1.1,0-3.2,0.5-4.3,2.1c-1.1,1.5-1.1,4-1.1,6.1v11.6l-6.3,0L304,122.8z"/>
<path class="st0" d="M332.5,122.8h5.9v2.1c1-0.9,3.2-2.9,7.2-2.9c2.3,0,5.8,0.9,7.9,3.4c2.4,2.7,2.4,6.7,2.4,8.6v13.1h-6.3l0-12
	c0-2,0-7.8-5.3-7.8c-1.1,0-3.2,0.5-4.3,2.1c-1.1,1.5-1.1,4-1.1,6.1l0,11.6h-6.3L332.5,122.8z"/>
<path class="st0" d="M381.1,132.9c-0.7-3.9-4-5.7-7.1-5.7c-2.3,0-6.3,1.2-7.5,5.7H381.1z M366.7,137.6c0.3,1.6,2.8,5,7.3,5
	c2.8,0,4.9-1.1,6.1-3.1h6.7c-1.5,4.4-6.6,8.5-12.8,8.5c-7.9,0-13.9-5.8-13.9-12.9c0-6.9,5.8-13.2,13.9-13.2
	c8.4,0,13.7,6.7,13.7,12.8c0,1.1-0.2,2.1-0.4,2.9H366.7z"/>
<path class="st0" d="M404.7,142.6c4.8,0,7.8-3.9,7.8-7.6c0-4-3.3-7.6-7.8-7.6c-4.7,0-7.8,4-7.8,7.4
	C396.9,139.3,400.6,142.6,404.7,142.6 M418.4,147.1h-5.8v-3h-0.1c-1.2,1.8-4,3.8-8.4,3.8c-6.7,0-13.5-5.1-13.5-12.9
	c0-8.2,7.1-13,13.5-13c3.9,0,6.1,1.2,8,3v-10.2h6.3L418.4,147.1z"/>
<polygon class="st0" points="430.4,144.9 420.8,122.8 428,122.8 434,138.4 440.4,122.8 447.6,122.8 432.4,155.3 425.6,155.3 "/>
<path class="st0" d="M253.2,195.9c0.5,5.2,4.3,7,7.5,7c4.1,0,7.8-2.6,7.8-6.6c0-5.4-3.8-6.3-10.8-8.8c-4.4-1.6-13.5-4-13.5-15
	c0-8.3,7-14.9,16.6-14.9c6.6,0,16.2,4.2,16.8,14.9h-10.7c-0.5-4.7-3.5-5.9-6.4-5.9c-3.3,0-5.8,2.2-5.8,5.3c0,4.5,3.7,5.5,9.4,7.3
	c4.7,1.4,14.9,4.7,14.9,16.1c0,11.3-9.5,16.6-18.4,16.6c-7.3,0-17.9-4.5-18.5-16L253.2,195.9z"/>
<polygon class="st0" points="285.4,158.7 295.6,158.7 295.6,190.2 295.8,190.2 309.3,171.8 321,171.8 305.7,190.9 323,210.9 
	310.2,210.9 295.8,192.5 295.6,192.5 295.6,210.9 285.4,210.9 "/>
<polygon class="st0" points="339.5,207.2 324,171.8 335.6,171.8 345.3,196.8 355.5,171.8 367.1,171.8 342.7,223.9 331.7,223.9 "/>
<rect x="370.1" y="158.7" class="st0" width="10.2" height="52.2"/>
<path class="st0" d="M388.5,171.8h10.2l0,39.1h-10.2L388.5,171.8z M388.5,158.7h10.2v8.6l-10.2,0L388.5,158.7z"/>
<path class="st0" d="M427.8,179c-6.1,0-12.4,4.6-12.4,12c0,8,6.5,12.5,12.7,12.5c6.1,0,12.2-4.8,12.2-12.6
	C440.3,185.4,435.4,179,427.8,179 M450.5,171.8l0,31.9c0,18.8-15.2,23.1-23.2,23.1c-8.7,0-17.7-4.2-21.4-13h11.6
	c4,4.4,8.9,4.4,10.5,4.4c5.7,0,12.5-3.7,13-12.2l-0.2-0.1c-1.4,1.8-5.3,6.3-13.9,6.3c-10.3,0-21.8-8.1-21.8-21.2
	c0-12.3,10.9-20.5,21.7-20.5c8.7,0,12.4,4.6,13.6,6.1h0.1l0-4.8H450.5z"/>
<path class="st0" d="M457.5,158.7h10.2v15.8c1.3-1.1,4.7-4.1,11-4.1c4.7,0,10,2.4,13.1,6c3.4,3.9,3.4,9.5,3.4,12.4v22.1H485l0-20
	c0-4.2-0.3-11.8-8.7-11.8c-8.6,0-8.6,8.7-8.6,12l0,19.9h-10.2L457.5,158.7z"/>
<polygon class="st0" points="505.9,180.1 500.9,180.1 500.9,171.8 505.9,171.8 505.9,158.7 516.1,158.7 516.1,171.8 522.2,171.8 
	522.2,180.1 516.1,180.1 516.1,210.9 505.9,210.9 "/>
<path class="st0" d="M545.2,182.4c-0.7-3.1-3-3.4-4.1-3.4c-2.5,0-3.9,1.8-3.9,3.4c0,2.3,1.8,2.8,7.2,4.4c5.3,1.5,11.9,3.8,11.9,11.7
	c0,8.8-7.6,13.7-14.9,13.7c-4.2,0-9.4-1.3-12.7-5.1c-2.6-3-3-6.1-3.2-8.5h10.4c0.5,1.8,1.4,5,5.6,5c3.3,0,4.6-2.3,4.6-3.9
	c0-2.9-2.3-3.6-9.6-5.9c-4.8-1.5-9.5-4.8-9.5-11.2c0-7.6,7.4-12.1,14.2-12.1c6.4,0,13.5,4.2,13.9,12H545.2z"/>
</svg>
