<?xml version="1.0" encoding="UTF-8"?>
<svg id="Layer_1" xmlns="http://www.w3.org/2000/svg" version="1.1" viewBox="0 0 600 331.6">
  <!-- Generator: Adobe Illustrator 29.6.0, SVG Export Plug-In . SVG Version: 2.1.1 Build 207)  -->
  <defs>
    <style>
      .st0 {
        fill: #fff;
      }
    </style>
  </defs>
  <path class="st0" d="M280.4,195.3c0-4.4-.6-8.3,1.5-12.3v-46.9c-4.8,1-.1,9.2-3.2,12h-11c-.8-7.9-1.3-16,0-23.9h46.1v22.9l-1.1,1.1h-11l-.7-12h-2.1s0,46.8,0,46.8c0,.3,1.6,2.5,1.8,2.5h277.1c2.7,2.9,1.7,6.6.4,9.9h-297.7Z"/>
  <path class="st0" d="M21,195.3v-13.6c2.2-1.3,2.6-3.3,2.9-5.7.5-5.5.6-39.6-.9-42.8s-2-2.1-2-2.3v-14.4h29.8c-.4,4.1.5,9,0,13s-1.8,4.5-2.1,7.1.1,7.3,0,10.8c3.5-3.9,9.9-12.7,9.9-18v-13h26.9v13.6c-6.9,6.1-10.3,15.2-15.6,22.6l13.5,26.7c5.9,3.4,2.7,10.1,3.4,15.9h-28.3c1.5-12.1-3-22.8-9.9-32.4.3,4.2-.5,8.9,0,13s1.8,4.3,2.1,6.4c.6,3.9-.3,8.9,0,13h-29.8Z"/>
  <path class="st0" d="M580.2,136.9c.7,5.4.7,21.4,0,26.8-2.6,20-28.6,13-42.6,13.8-.9-.6-.9-7.7-.7-9.2s1.6-1.1,2.1-2.2c1.4-3.8,1.5-27.7-.4-31.1s-1.6-.8-1.6-.9v-9.9h30.8c6.2,0,11.7,6.9,12.4,12.7ZM556.8,166.4c3.8.4,5.4-.9,5.7-4.5s.5-21.6-.2-23.8-5.5-3.4-5.5-1.5v29.9Z"/>
  <path class="st0" d="M362.6,121.4v14.8c-5.9,1.4-12.4.7-18.4,0,2.4-15.4-14.4-2.9-2,1.6s17.1,2.1,21.2,11.3c2.8,6.1,1.7,18.8-3.3,23.7-8.5,8.3-32.7,7.2-41.5-1.1v-15.5l1.1-.9c.3,0,.5.6.7.6h17.4c-.2,5.3-.6,9.8,6.3,8.3,5.1-12.8-10.4-11.2-17.9-14.8-6.6-3.2-8.9-11-8.3-17.8,1.9-21.3,30.9-17.5,44.6-10.2Z"/>
  <path class="st0" d="M391.6,124.2c.9,7.2-2.3,13.2-1.4,20.4h5.3c1.9-7-1.9-13.4-1-20.4h20.6c.3,2.7.3,6,0,8.8-1.7,13.9-1.6,22,0,35.9s.1,6.2,0,8.8h-19.5c-3-3.6,0-8.7.4-12.3s-.3-7,0-10.2h-5.3c-1.9,7.7,2,14.8,1,22.5h-19.8c-.8-2.6-.8-6.6-.3-9.2,2.6-13.3,2-22,.4-35.5s-.6-5.8-.6-7.2.3-1.1.9-1.6h19.5Z"/>
  <path class="st0" d="M238.2,124.2c4,6.3-3.6,13.5-.4,20.1l5.7.3c.9-7.2-2.3-13.2-1.4-20.4h20.6c-.3,2.7.5,6.2,0,8.8s-1.5,2.1-1.8,3.2c-.9,2.9-.8,22.6-.3,26.4s1.8,4.3,2.1,6.4-.2,6,0,8.8h-20.6c-1-7.8,2.9-14.8,1-22.5h-6c-1.8,7.9,4.6,15.5,1.1,22.5h-19.5c.3-2.8-.4-6.1,0-8.8s1.6-2.5,1.9-3.7c.8-2.8.6-23.7.2-27.3s-1.8-3.7-2.1-5.7.2-5.5,0-8.1h19.5Z"/>
  <path class="st0" d="M108.9,124.2l8.9,22.5c1.8-7.8-2-14.8-1.1-22.5h17c1.5,5.4-1.6,9.9-2.1,14.4-1.4,12.2,1,26.7,0,39.1h-15.2l-10.6-22.5c-1.8,7.9,2.5,14.6,1.1,22.5h-16.3c.3-3-.5-6.6,0-9.5,1.8-10.1,2.9-18.2,2.1-28.9s-3.5-9.3-2.2-15.1h18.4Z"/>
  <path class="st0" d="M488.7,124.2v18.3h-15.6c.5-3.9-.8-7.4-5.2-7-2.2.7-.8,7.8-1.2,9.8h10.3c1.7,2.3,1.7,8.2,0,10.6h-10.3c.6,3.7-2.3,12.7,4,9.9,3.2-1.4,2.4-4.8,2.4-7.8h14.5l1.1,1.1v18.7h-40.4c.3-2.8-.4-6.2,0-8.8,1.9-13.7,1.7-22.2,0-35.9-.3-2.8.1-5.9,0-8.8h40.4Z"/>
  <path class="st0" d="M512.8,124.2c-.3,2.8.4,6.1,0,8.8s-1.5,2.6-1.7,4.5c-.3,3.4-.5,24.6,0,27.2s0,1.8.7,1.8c1-.1,4.6-1.6,4.6-2.5v-12.3h15.6v26h-39.7c.4-2.8-.6-6.8,0-9.4s1.8-.5,2.1-4.3c.8-10.2,0-21.2-1.4-31-.4-2.7.2-6,0-8.8h19.8Z"/>
  <path class="st0" d="M213.7,150.2c1.4,16-11.9,28.2-25.1,34.5-18.3-10.1-30-25.8-22-47.2,2.1-5.6,8-13.5,13.6-16s7.4-.6,8-4.4h1c1.9,3.2,4.9,2.7,7.4,3.9,6.5,3,12.5,10.3,14.2,17.2l-6-3.5c-5,.7-11.4,3.5-16.3,3.5s-10.3-2.9-14.8-3.5c-7,11-6.5,25.3,3.5,34.4s10.3,7.7,13.1,6.7,15.8-13.6,16.4-16.9c.3-1.4-.7-1.3-1.7-1-1.6.7-5.6,4.6-8.2,5.9s-6.6,2.9-7.1,2.4l-.4-19,13.5,2.8h11ZM192.5,162.2l3.4-1.2c-.1-1.9,1-10.2-1-10.8-.7-.4-2.5.5-2.5,1v10.9ZM197.4,160.8c3.9.5,3-9.8,1.1-9.8-2.2,2.5-.6,6.8-1.1,9.8ZM202.1,151.7c-1.6.3-1.8,7.6.7,7s1.8-7.6-.7-7Z"/>
  <path class="st0" d="M159.2,124.2c-.3,2.6.4,5.7,0,8.1-1.9,13.7-1.9,22.9,0,36.5s-.3,6.1,0,8.8h-20.6c-.4-2.6-.4-6.3,0-8.8,1.3-10.1,2.5-21.2,1.5-31.7s-1.8-3.5-2.1-5.6.6-4.9,0-7.4h21.3Z"/>
  <path class="st0" d="M442.7,124.2c-.3,2.5.4,5.6,0,8.1s-1.8,3-2.1,5.7c-.6,5.7-.6,18.9,0,24.7s1.8,4.1,2.1,6.3-.2,6,0,8.8h-21.3c.3-2.8-.4-6.1,0-8.8s1.6-2.5,1.9-3.7c.8-2.9.6-24.3.2-28s-1.8-3.2-2.1-4.9.3-5.5,0-8.1h21.3Z"/>
  <path class="st0" d="M185.4,151.7c-.8,2.6,0,4.8,0,7.4s.6,2.8-1.1,2.5c-1.6-1.8-2.4-9.8,1-9.8Z"/>
</svg>