<?xml version="1.0" encoding="utf-8"?>
<!-- Generator: Adobe Illustrator 27.3.1, SVG Export Plug-In . SVG Version: 6.00 Build 0)  -->
<svg version="1.1" id="_x3F__x3F__x3F__x3F__1" xmlns="http://www.w3.org/2000/svg" xmlns:xlink="http://www.w3.org/1999/xlink"
	 x="0px" y="0px" viewBox="0 0 64.9 30.1" style="enable-background:new 0 0 64.9 30.1;" xml:space="preserve">
<style type="text/css">
	.st0{fill:#FFFFFF;}
</style>
<path class="st0" d="M33.2,9.2c0.1-0.1,0.1-0.1,0.2-0.2c0.1-0.1,0.1-0.1,0.1-0.2c0.1-0.1,0.1-0.2,0.1-0.3l0,0c0-0.1-0.1-0.2-0.1-0.3
	c-0.1-0.1-0.1-0.2-0.1-0.2c-0.1-0.1-0.2-0.1-0.3-0.2c-0.1-0.1-0.3-0.1-0.4-0.1h-1.1v2.4H32V9.4h0.5l0,0l0.6,0.8h0.5L33,9.2
	C33.1,9.2,33.2,9.2,33.2,9.2z M32,9V8.1h0.6c0.2,0,0.3,0.1,0.3,0.1c0.1,0.1,0.1,0.2,0.1,0.3l0,0c0,0.1-0.1,0.2-0.1,0.3
	C32.9,8.9,32.8,9,32.7,9L32,9L32,9z"/>
<path class="st0" d="M31.1,8c-0.1-0.1-0.2-0.1-0.3-0.2c-0.1-0.1-0.2-0.1-0.4-0.1h-0.9v2.4h0.4V9.4h0.5c0.1,0,0.3-0.1,0.3-0.1
	c0.1-0.1,0.2-0.1,0.3-0.2c0.1-0.1,0.2-0.2,0.2-0.3c0.1-0.1,0.1-0.2,0.1-0.3l0,0c0-0.1-0.1-0.2-0.1-0.3C31.2,8.1,31.1,8,31.1,8z
	 M30.8,8.6c0,0.1-0.1,0.2-0.1,0.3C30.6,9,30.5,9,30.3,9h-0.5V8.1h0.5c0.2,0,0.3,0.1,0.3,0.1C30.8,8.4,30.8,8.4,30.8,8.6L30.8,8.6z"
	/>
<path class="st0" d="M35.6,8c-0.1-0.1-0.2-0.1-0.3-0.2c-0.1-0.1-0.2-0.1-0.4-0.1H34v2.4h0.4V9.4h0.5c0.1,0,0.3-0.1,0.3-0.1
	c0.1-0.1,0.2-0.1,0.3-0.2c0.1-0.1,0.2-0.2,0.2-0.3c0.1-0.1,0.1-0.2,0.1-0.3l0,0c0-0.1-0.1-0.2-0.1-0.3C35.7,8.1,35.7,8,35.6,8z
	 M35.4,8.6c0,0.1-0.1,0.2-0.1,0.3S35,9,34.9,9h-0.5V8.1h0.5c0.2,0,0.3,0.1,0.3,0.1C35.4,8.4,35.4,8.4,35.4,8.6L35.4,8.6z"/>
<g>
	<path class="st0" d="M21.9,13.4H23v3.1h1.6v0.9h-2.6V13.4z"/>
	<path class="st0" d="M26,13.4v2.3c0,0.6,0.2,0.9,0.6,0.9c0.4,0,0.6-0.3,0.6-0.9v-2.3h1.1v2.2c0,1.3-0.6,1.9-1.8,1.9
		c-1.1,0-1.7-0.6-1.7-1.9v-2.2H26L26,13.4z"/>
	<path class="st0" d="M32.5,15.9c0-0.5-0.1-1-0.1-1.6h-0.1c-0.1,0.5-0.3,1.1-0.4,1.6l-0.3,1.4h-0.9l-0.3-1.4c-0.1-0.4-0.2-1-0.3-1.6
		l0,0c-0.1,0.6-0.1,1.1-0.1,1.6L30,17.3h-1l0.3-4h1.4l0.3,1.1c0.1,0.5,0.2,1,0.3,1.4h0.1c0.1-0.5,0.3-1.1,0.3-1.5l0.3-1.1h1.4l0.2,4
		h-1L32.5,15.9z"/>
	<path class="st0" d="M34.3,13.4c0.3-0.1,0.8-0.1,1.3-0.1c0.6,0,0.9,0.1,1.3,0.2c0.3,0.1,0.6,0.4,0.6,0.8c0,0.3-0.2,0.7-0.6,0.9l0,0
		c0.5,0.1,0.8,0.5,0.8,1c0,0.4-0.2,0.7-0.5,0.9c-0.3,0.2-0.8,0.3-1.7,0.3c-0.5,0-0.9-0.1-1.1-0.1C34.3,17.3,34.3,13.4,34.3,13.4z
		 M35.4,14.9h0.2c0.5,0,0.7-0.2,0.7-0.4s-0.2-0.4-0.6-0.4c-0.2,0-0.3,0-0.3,0.1C35.4,14.1,35.4,14.9,35.4,14.9z M35.4,16.6
		c0.1,0,0.2,0,0.3,0c0.3,0,0.6-0.1,0.6-0.5c0-0.3-0.3-0.5-0.7-0.5h-0.3C35.4,15.7,35.4,16.6,35.4,16.6z"/>
	<path class="st0" d="M40.6,15.8h-1.4v0.7h1.6v0.9h-2.7v-4h2.6v0.9h-1.6v0.6h1.4V15.8L40.6,15.8z"/>
	<path class="st0" d="M41.4,13.4c0.3-0.1,0.8-0.1,1.3-0.1c0.6,0,1.1,0.1,1.4,0.3c0.3,0.2,0.4,0.5,0.4,0.9c0,0.5-0.4,0.9-0.7,1v0.1
		c0.3,0.1,0.4,0.3,0.5,0.7c0.1,0.4,0.3,1,0.3,1.1h-1.1c-0.1-0.1-0.2-0.4-0.3-0.9c-0.1-0.5-0.3-0.6-0.6-0.6h-0.2v1.6h-1.1L41.4,13.4
		L41.4,13.4z M42.4,15.1h0.3c0.4,0,0.6-0.2,0.6-0.5c0-0.3-0.2-0.5-0.6-0.5c-0.2,0-0.3,0-0.3,0.1V15.1L42.4,15.1z"/>
</g>
<g>
	<path class="st0" d="M45,11.5l-0.7-0.9c-0.3-0.3-0.6-0.7-1-0.9c-0.2-0.1-0.3-0.2-0.6-0.3c0.1-0.1,0.1-0.1,0.2-0.1l0.7-0.3l-0.5-0.6
		c-0.3-0.4-0.8-0.9-1.3-1.1c-0.3-0.2-0.6-0.2-0.9-0.3c0.1-0.1,0.3-0.2,0.3-0.2l0.6-0.5L41.3,6c-0.5-0.3-1.1-0.6-1.7-0.7
		c-0.3-0.1-0.6-0.1-0.9-0.1c0.1-0.1,0.1-0.1,0.1-0.1l0.5-0.6l-0.8-0.3c-0.6-0.2-1.1-0.3-1.7-0.3c-0.3,0-0.6,0.1-1,0.2l0,0
		C35.9,4,36,3.8,36,3.7L36.3,3l-0.7-0.1c-0.5-0.1-1-0.1-1.4,0.1C34,3,33.9,3,33.8,3l-0.2,0.1l0,0c-0.1,0.1-0.1,0.1-0.2,0.1
		c-0.2,0.1-0.3,0.2-0.5,0.3C33,3.4,33,3.4,33,3.3l0.1-0.8l-0.8,0.1c-0.6,0.1-1.2,0.3-1.7,0.6c-0.3,0.2-0.5,0.4-0.7,0.7
		C29.8,4,29.8,4,29.7,4c0-0.1,0-0.1,0-0.1s0-0.1,0-0.2l-0.1-0.8l-0.7,0.3c-0.5,0.3-1.1,0.6-1.4,1c-0.2,0.2-0.3,0.5-0.5,0.7
		C27,4.9,27,4.8,27,4.8L26.7,4l-0.6,0.6c-0.5,0.4-0.9,0.9-1.2,1.4c-0.1,0.2-0.1,0.3-0.2,0.4c0-0.1-0.1-0.1-0.1-0.1l-0.3-0.7
		l-0.5,0.6c-0.3,0.5-0.7,1-0.9,1.6c-0.1,0.3-0.1,0.6-0.2,1c0,0.1,0,0.1,0,0.1c-0.1-0.1-0.1-0.1-0.2-0.2L22,8.1L21.6,9
		c-0.2,0.5-0.3,1.1-0.3,1.7c-0.1,0.7,0.1,0.3,0.2,0.9h20H45z M21.9,11c-0.1-0.6,0.1-1.3,0.3-1.8c0.3,0.3,0.8,0.8,1,0.2
		c0.3-0.7-0.2-1.1,1-2.6C24.3,7,24.6,7.9,25,7.6C25,7.5,25,7.5,25,7.5c0.2-0.6,0.1-1.1,1.4-2.4C26.6,5.4,26.6,6.3,27,6
		C27.1,6,27.2,6,27.2,5.9c0.5-0.6,0.3-1.1,2.1-2c0,0.1,0,0.1,0,0.2c0.1,0.4,0.1,1,0.6,0.7l0.1-0.1l0,0c0.6-0.5,0.6-1.1,2.5-1.4
		c0,0.1-0.1,0.1-0.1,0.2c0,0.1-0.1,0.1-0.1,0.1c-0.1,0.4-0.1,0.8,0.4,0.6c0.2-0.1,0.3-0.1,0.4-0.2c0.1-0.1,0.2-0.2,0.5-0.3
		c0.1-0.1,0.2-0.1,0.3-0.1l0,0c0.1-0.1,0.2-0.1,0.3-0.1c0.3-0.1,0.7-0.1,1.3-0.1c-0.1,0.2-0.5,0.7-0.4,1c0,0.1,0,0.1,0,0.1l0,0
		c0.1,0.1,0.1,0.1,0.2,0.1l0,0l0,0c0.1,0,0.1,0,0.1,0c0.1,0,0.1,0,0.1,0c0.7,0,1-0.6,2.8,0.1l0,0l0,0l0.1,0.1
		c-0.1,0.2-0.6,0.6-0.6,0.8c0.1,0.1,0.1,0.2,0.3,0.2c0.7,0.2,1.2-0.3,2.9,0.7c-0.2,0.1-0.7,0.4-0.8,0.6c0,0.1,0,0.1,0,0.1
		c0,0.1,0.1,0.1,0.1,0.2l0,0l0,0c0.1,0.1,0.1,0.1,0.1,0.1c0.1,0,0.1,0.1,0.1,0.1c0.7,0.4,1.1-0.1,2.4,1.4c-0.2,0.1-0.9,0.2-0.9,0.5
		l0,0l0,0c0,0.1,0,0.1,0.1,0.1l0,0l0,0l0,0l0,0l0,0c0.1,0.1,0.1,0.1,0.2,0.2c0.5,0.4,1.1,0.3,1.9,1.3h-0.1H42h-0.3
		C40.2,7.5,36.7,5,32.7,5s-7.5,2.4-9.1,5.9h-1.7V11z M24.8,11c1.4-2.9,4.5-4.8,7.9-4.8c3.4,0,6.4,2,7.9,4.8H24.8z"/>
	<path class="st0" d="M22.6,19.7l0.3,0.8c0.5,1.1,1.1,2.1,1.9,2.9l0.3,0.3l3-1.7l-1.7,2.8l0.5,0.3c1.7,1.1,3.7,1.7,5.7,1.7
		c4.2,0,8-2.5,9.7-6.3l0.3-0.8h-5.5L22.6,19.7L22.6,19.7z M30.3,20.2h1.1h2.6H35h0.6c-0.9,0.6-1.8,1-3,1c-1.1,0-2.1-0.3-3-1H30.3z
		 M25.3,23c-0.7-0.8-1.4-1.8-1.8-2.8h1.8c0.4,0.7,0.9,1.4,1.5,2L25.3,23z M27.7,21.7L27.7,21.7l-0.2,0.1c-0.5-0.5-0.9-0.9-1.3-1.5
		h0.2h1.3h0.2c0.3,0.3,0.6,0.6,0.9,0.8l-0.1,0.1l0,0l-0.3,0.2L27.7,21.7z M41.8,20.2c-1.6,3.5-5.1,6-9.2,6c-2,0-3.9-0.6-5.4-1.6
		l0.8-1.3c1.3,0.9,2.9,1.4,4.6,1.4c3.2,0,6-1.8,7.4-4.4L41.8,20.2L41.8,20.2z M37.4,20.2h0.2h1.3H39c-1.3,2.1-3.7,3.5-6.4,3.5
		c-1.6,0-2.9-0.5-4.1-1.3l0.4-0.7l0.3-0.4c1,0.6,2.1,1,3.4,1C34.5,22.4,36.2,21.5,37.4,20.2z"/>
</g>
</svg>
