<?xml version="1.0" encoding="UTF-8"?>
<svg id="Layer_1" xmlns="http://www.w3.org/2000/svg" viewBox="0 0 1537.39 517.47">
  <defs>
    <style>
      .cls-1 {
        fill: #fff;
      }
    </style>
  </defs>
  <path class="cls-1" d="M646.49,445.38c-2.7,1.38-4.52,2.11-6.09,2.09,1.57.01,3.39-.72,6.1-2.09-.02-.32.04-.67-.06-.97.1.3.04.65.05.97Z"/>
  <path class="cls-1" d="M782.35,107.32v134.93c0-45.04,0-89.98,0-134.93,0,0,0,0,0,0Z"/>
  <path class="cls-1" d="M829.22,218.03c1.63,2.28,2.49,3.38,3.24,4.56,13.1,20.49,26.12,41.03,39.38,61.41,1.11,1.71,3.75,3.41,5.7,3.43,29.33.22,58.65.09,87.98.23,3.13.01,4.36-1.21,5.36-3.88,3.03-8.11,6.39-16.09,9.4-24.21.96-2.59,2.25-3.53,5.07-3.51,19,.13,37.99.14,56.99-.01,3.07-.03,4.38,1.06,5.35,3.82,2.88,8.16,5.95,16.26,9.18,24.29.55,1.38,2.25,3.25,3.43,3.27,15.8.22,31.59.15,48.05.15-3.19-8.49-6.15-16.41-9.13-24.32-19.12-50.79-38.28-101.57-57.27-152.4-1.29-3.44-3-4.4-6.51-4.35-14.16.2-28.33.18-42.49,0-3.15-.04-4.67.91-5.81,3.9-13.93,36.56-27.99,73.06-42.02,109.58-7.04,18.32-14.1,36.64-21.42,55.67-16.01-20.89-31.63-41.26-46.53-60.71,7.49-4.26,15.23-7.35,21.37-12.4,17.57-14.45,22.29-45.78,10.86-67.69-9.53-18.27-26.01-26.39-45.34-27.33-26.93-1.31-53.95-.64-80.93-.8-.26,0-.52.37-.79.57h0c0,44.95,0,89.9,0,134.93v45.07h46.88v-69.29ZM1013.7,163.84c.37-.02.73-.03,1.1-.05,6.18,18.55,12.36,37.1,18.69,56.08h-38.67c6.35-18.83,12.62-37.43,18.88-56.03ZM829.46,142.75c9.75-.21,19.4-.26,27.98,4.95,12.57,7.64,11.8,28.58-1.11,35.68-6.12,3.37-16.03,4.87-26.87,3.94v-44.57Z"/>
  <path class="cls-1" d="M531.62,203.8c.37-43.48.25-86.96.29-130.44,0-1.42-.2-2.85-.3-4.22h-56.87v5.84c0,38.49.14,76.97-.11,115.46-.06,8.27-.9,16.67-2.56,24.77-3.6,17.63-13.87,26.33-31.66,27.98-21.79,2.02-36.08-8.46-40.21-29.87-1.13-5.86-1.89-11.89-1.92-17.85-.22-40.32-.21-80.63-.27-120.95,0-1.77,0-3.54,0-5.53h-56.97c0,2.36,0,4.19,0,6.01,0,39.99-.06,79.97.05,119.96.02,8.31.3,16.66,1.09,24.93,3.07,32.11,18.74,55.23,49.7,66.11,29.4,10.33,59.27,10.3,88.73.12,25.69-8.87,42.29-26.69,47.91-53.58,1.96-9.39,3.03-19.13,3.11-28.72Z"/>
  <path class="cls-1" d="M1319.83,287.39h46.79V106.92h-47.01v69.07h-67.72v-68.98h-46.62v180.23h47.08v-73.43h67.48v73.58Z"/>
  <path class="cls-1" d="M1383.71,146.65h38.68v140.75h47.27v-140.87h38.14v-39.53h-124.08v39.65Z"/>
  <path class="cls-1" d="M640.69,146.76h38.74v140.63h47.14v-140.89h38.53v-39.59h-124.4v39.85Z"/>
  <path class="cls-1" d="M661.74,247.38h-56.01V106.85h-46.99v180.45h103v-39.92Z"/>
  <path class="cls-1" d="M180.83,280.51c16.91,16.92,34.31,34.33,51.56,51.59,17.56-17.59,35.03-35.11,52.19-52.3-17.15-17.18-34.63-34.7-51.51-51.61-17.32,17.35-34.87,34.93-52.24,52.32Z"/>
  <path class="cls-1" d="M155.05,149.84c-17.17-17.16-34.67-34.65-51.87-51.84-17.35,17.38-34.84,34.89-51.95,52.03,17.18,17.24,34.63,34.75,51.79,51.97,17.15-17.19,34.63-34.71,52.03-52.16Z"/>
  <path class="cls-1" d="M167.71,267.12c17.31-17.33,34.79-34.84,51.67-51.75-17.24-17.27-34.79-34.85-52.2-52.29-16.99,16.97-34.39,34.37-51.6,51.56,17.52,17.63,34.95,35.18,52.12,52.47Z"/>
  <path class="cls-1" d="M116.04,344.85c17.08,17.15,34.54,34.68,51.75,51.97,17.26-17.28,34.75-34.79,51.57-51.64-17.24-17.28-34.79-34.87-51.8-51.91-17.04,17.06-34.52,34.56-51.53,51.58Z"/>
  <path class="cls-1" d="M180.68,149.35c17.59,17.63,35.13,35.22,52.5,52.63,16.94-16.97,34.31-34.38,51.59-51.69-17.43-17.48-34.91-35.02-52.14-52.31-17.4,17.2-35,34.61-51.95,51.37Z"/>
  <path class="cls-1" d="M219.39,85.87c-17.45-17.48-35-35.05-51.79-51.87-17.07,16.97-34.6,34.4-51.54,51.24,17.25,17.28,34.7,34.78,51.97,52.09,17.07-17.1,34.46-34.52,51.37-51.46Z"/>
  <path class="cls-1" d="M102.84,227.88c-17.22,17.28-34.71,34.83-51.84,52.02,17.15,17.18,34.64,34.72,51.89,52,17.24-17.29,34.73-34.83,51.86-52-17.14-17.17-34.63-34.71-51.91-52.02Z"/>
  <path class="cls-1" d="M882.36,343.52c1.79-7.37,3.6-14.73,5.57-22.75-4.37,0-7.84.18-11.29-.06-2.94-.2-4,.96-4.59,3.78-2.82,13.52-5.86,26.99-8.86,40.48-.25,1.15-.72,2.25-1.49,4.62-3.22-12.85-6.1-24.3-8.95-35.76-3.34-13.45-3.32-13.36-17.27-13.14-2.96.04-3.95,1.11-4.64,3.82-3.4,13.21-7.01,26.36-10.58,39.53-.32,1.17-.86,2.27-1.72,4.52-3.69-16.68-7.09-32.08-10.49-47.48h-15.2c5.8,24.29,11.51,48.16,17.25,72.17,4.45,0,8.45-.2,12.42.07,3,.2,4.01-1.12,4.67-3.78,2.2-8.88,4.61-17.71,6.98-26.55,1.91-7.13,3.88-14.25,5.82-21.38,4.5,13.59,8.12,27.07,11.73,40.56,3,11.23,2.99,11.12,14.39,11.15,3.21,0,4.57-.83,5.32-4.17,3.45-15.25,7.26-30.43,10.95-45.63Z"/>
  <path class="cls-1" d="M465.11,320.71c-3.25-.25-4.62.81-5.3,4.16-2.68,13.21-5.7,26.35-8.61,39.52-.3,1.38-.73,2.73-1.09,4.09-3.74-11.69-6.68-23.29-9.61-34.9-3.3-13.09-3.29-12.98-16.93-12.9-3.17.02-4.24,1.14-4.96,4.05-2.77,11.15-5.81,22.22-8.79,33.32-.89,3.31-1.9,6.6-3.25,11.24-3.76-17.03-7.2-32.61-10.65-48.26h-15.21c5.79,24.27,11.49,48.15,17.19,72h16.11c4.61-17.21,9.18-34.31,13.75-51.4l1,.1c3.58,13.45,7.16,26.91,10.73,40.36,3.03,11.43,3.02,11.29,14.91,11.24,3.26-.01,4.17-1.27,4.85-4.15,3.8-16.2,7.84-32.34,11.76-48.52,1.55-6.41,3.02-12.84,4.67-19.91-3.99,0-7.3.2-10.56-.06Z"/>
  <path class="cls-1" d="M1157.41,393.23c-7.88-11.21-12.56-23.44-24.16-31.84,1.98-.55,3.07-.82,4.15-1.16,9.81-3.12,14.7-10.8,13.77-21.59-.84-9.63-6.99-16.17-17.04-17.17-6.94-.69-13.97-.58-20.96-.69-6.95-.1-13.91-.02-20.99-.02v72.19h14.56v-29.49c7.6-1.17,13.26.56,17.3,6.87,4.31,6.73,8.88,13.3,13.47,19.85.87,1.24,2.32,2.82,3.59,2.9,5.07.33,10.17.14,16.33.14ZM1106.84,350.66v-16.96c7.7,0,15.3-.43,22.83.16,4.29.34,6.42,3.94,6.33,8.3-.08,4.53-2.23,8.08-6.89,8.37-7.24.46-14.53.12-22.27.12Z"/>
  <path class="cls-1" d="M570.56,393.23c.49-.02.97-.15,1.99-.33v-71.76h-13.82v45.03c-1.92-1.07-2.84-2.52-3.74-3.99-7.74-12.64-15.43-25.31-23.28-37.87-.93-1.48-2.69-3.19-4.24-3.38-3.9-.48-7.9-.16-12.02-.16v72.16h13.49v-44.65c8.22,11.53,15.42,23.11,22.56,34.73q6.55,10.65,19.06,10.22Z"/>
  <path class="cls-1" d="M740.62,388.62q9.28,7.44,16.48-1.75c.58-.75,1.09-1.55,1.68-2.41-3.82-2.85-7.36-5.49-10.46-7.8,2.03-5.43,3.81-10.18,5.81-15.51-4.81-1.06-8.78-1.93-12.82-2.82-.97,2.56-1.78,4.72-3.05,8.08-3.62-4.77-6.64-8.75-9.71-12.8,2.74-2.15,5.05-3.79,7.16-5.65,4.78-4.21,6.64-9.58,5.19-15.75-1.41-6-5.43-10.43-11.35-11.37-5.75-.91-12.04-1.11-17.62.29-9.53,2.39-13.38,12.11-9.26,21.07,1.42,3.08,3.34,5.93,5.1,8.99-1.75,1.12-3.31,2.06-4.81,3.09-8.85,6.04-12.65,14.82-10.41,23.99,2.13,8.69,9.7,14.73,20.17,15.96,9.6,1.13,18.51-.57,25.93-7.09.93.69,1.47,1.07,1.98,1.48ZM716.86,331.06c3.26-2.66,8.68-1.93,11.02,1.48,2.6,3.79.6,7.39-6.72,11.88-6.86-7.05-7.9-10.43-4.3-13.36ZM713,382.14c-4.04-1.12-6.37-4.23-6.56-8.44-.28-6.47,3.65-10.27,9.27-13.47,4.24,5.22,8.21,10.09,12.15,14.96.5.62.91,1.32,1.51,2.21-4.78,4.54-10.15,6.46-16.38,4.73Z"/>
  <path class="cls-1" d="M629.88,322.19c-13.09-1.52-26.38-1.37-39.69-1.93v72.81c11.39,0,22.21.41,32.97-.11,12.6-.61,21.15-7.33,25.06-19.41,3.92-12.13,3.59-24.29-1.19-36.11-3.16-7.8-8.71-14.28-17.15-15.25ZM633.7,369.93c-.86,6.96-5.46,10.15-12.57,10.57-5.25.31-10.54.06-16.09.06-.08-1.11-.19-1.9-.19-2.69-.01-14.62,0-29.24,0-44.29,5.77,0,10.91-.33,16,.08,7.21.58,12.23,4.4,13.03,11.59.91,8.14.84,16.55-.17,24.68Z"/>
  <path class="cls-1" d="M1076.25,333.2v-12.16h-53.48v71.81h54.79v-12.32h-39.9v-19.03h35.58v-12.77h-35.58v-15.53h38.58Z"/>
  <path class="cls-1" d="M1281.36,361.5h35.65v-12.66h-35.6v-15.68h38.17v-12.18h-53.09v72.01h54.62v-12.39h-39.74v-19.09Z"/>
  <path class="cls-1" d="M1238.58,351.93c-4.62-1.83-9.53-2.9-14.29-4.37-3.49-1.08-7.16-1.86-10.34-3.55-1.74-.93-3.78-3.58-3.61-5.24.2-1.95,2.28-4.44,4.19-5.36,8.97-4.35,17.04-.9,21.28,8.88,4.51-.24,9.12-.49,14.36-.78-.77-9.28-4.51-16-12.75-19.3-9.63-3.86-19.59-3.93-29.27-.21-7.23,2.78-11.58,8.3-12.21,16.22-.65,8.3,2.8,14.7,10.07,18.57,3.92,2.08,8.32,3.3,12.58,4.68,4.58,1.49,9.39,2.35,13.83,4.16,5.63,2.29,6.63,8.44,2.08,12.48-1.88,1.67-4.56,2.88-7.05,3.32-10.61,1.91-15.55-1.35-20.38-13.14-1.81.1-3.77.13-5.72.32-2.61.25-5.21.62-7.77.93.25,11.01,6.53,19.87,16.36,23.03,8.97,2.88,18.09,2.76,27.04-.03,9.17-2.86,14.8-10.41,15.13-19.59.37-10.2-3.98-17.23-13.55-21.03Z"/>
  <path class="cls-1" d="M932.2,331.25c-4.23-10.61-4.18-10.51-15.75-10.57-3.2-.02-4.61,1.04-5.74,4.02-6.48,17.12-13.2,34.14-19.85,51.19-2.16,5.53-4.34,11.06-6.55,16.69,14.33,2.59,14.98,2.23,19.62-10.36.23-.62.56-1.23.68-1.88.52-2.91,2.35-3.51,5.06-3.45,6.82.16,13.66.26,20.48-.03,3.47-.15,4.9,1.18,6.09,4.29,4.81,12.58,4.93,12.54,18.49,12.07.49-.02.97-.16,2-.35-.74-2.03-1.27-3.58-1.88-5.1-7.55-18.84-15.14-37.67-22.66-56.53ZM910.61,364.14c2.98-8.3,5.89-16.4,8.8-24.49.38,0,.76.02,1.14.03,2.95,7.99,5.91,15.97,9.05,24.47h-18.99Z"/>
  <path class="cls-1" d="M1376.1,330.97c-4.12-10.24-4.14-10.02-14.95-10.31-3.9-.11-5.47,1.32-6.77,4.75-8.18,21.46-16.57,42.84-24.87,64.25-.4,1.03-.57,2.14-.94,3.6,4.03,0,7.69-.17,11.32.05,2.93.18,4.48-.73,5.43-3.67,1.36-4.22,2.24-9.84,5.31-11.92,3.13-2.11,8.76-.12,13.13-.87,11.03-1.87,18.08,1.5,20,13.25.19,1.19,1.98,2.9,3.14,3,4.4.35,8.85.14,13.97.14-.94-2.54-1.58-4.38-2.3-6.2-7.48-18.7-14.96-37.39-22.47-56.08ZM1354.55,364.19c3.1-8.55,6-16.55,9.42-25.99,3.5,9.38,6.51,17.43,9.71,25.99h-19.13Z"/>
  <path class="cls-1" d="M852.67,432.23c-5.62-.93-7.74,1.55-8.81,6.88-1.61,8.03-4.12,15.87-6.25,23.79-.38,0-.75-.01-1.13-.02-2.74-10.15-5.49-20.3-8.22-30.42h-14.87v49.01h9.36v-32.48c3.13,8.18,5.24,16.49,7.33,24.81q2.08,8.28,10.71,7.95c.31-.01.6-.22,1.24-.46,2.73-10.67,5.5-21.54,8.28-32.41.4.04.8.09,1.2.13v32.52h9v-49.23c-2.87,0-5.41.33-7.83-.07Z"/>
  <path class="cls-1" d="M990.05,392.99v-59.74h21.17v-12.15h-57.09v12.13h21.04v59.76h14.88Z"/>
  <path class="cls-1" d="M1425.44,321.58h-14.19v71.28h50.44v-12.15h-36.25v-59.13Z"/>
  <path class="cls-1" d="M1179.95,459.14c6.66-2.69,9.89-8.05,9-14.88-.88-6.72-5.07-11.18-12.27-11.55-9.24-.47-18.53-.11-28.07-.11v48.82h10.3v-19.72c4.93-1.15,8.48.21,11.09,4.11,1.94,2.9,4.45,5.54,5.82,8.68,3.32,7.65,9.1,8.6,17.35,6.59-5.2-7.43-10.07-14.39-14.94-21.35.47-.16,1.11-.34,1.72-.58ZM1172.87,452.81c-4.44.26-8.91.06-13.91.06v-11.87c4.86,0,9.48-.16,14.08.05,3.54.16,5.39,2.33,5.36,5.91-.02,3.63-2.12,5.64-5.53,5.84Z"/>
  <path class="cls-1" d="M992.24,459.75c.34-.12,1.09-.35,1.8-.65,6.7-2.82,9.85-8.19,8.84-14.99-1.01-6.81-5.05-11.02-12.42-11.4-9.22-.48-18.49-.11-28.22-.11,0,8.43,0,16.54,0,24.65s0,16.13,0,24.38h10.5v-19.94c5.41-1.22,8.96.56,11.6,4.61,1.9,2.92,4.47,5.55,5.78,8.7,3.27,7.83,9.34,7.52,17.03,6.29-5.18-7.47-10-14.43-14.93-21.53ZM986.12,452.95c-4.29.19-8.6.04-13.27.04v-12.12c4.86,0,9.18-.12,13.48.04,3.62.14,6.06,1.97,6.11,5.84.06,4.13-2.51,6.04-6.32,6.2Z"/>
  <path class="cls-1" d="M636.33,455.09h-10.19v8.52h11.88c-.97,2.91-1.02,5.82-2.48,7.01-8.93,7.31-21.67,2.45-23.26-8.93-.58-4.17-.43-8.78.76-12.79,2.62-8.83,15.08-11.75,21.16-5.38.57.6,1.09,1.12,1.58,1.58,1.72,1.6,3.04,2.36,4.61,2.37,1.57.01,3.39-.72,6.09-2.09-.01-.33.04-.67-.05-.97-3.29-10.31-13.44-15.06-26.61-12.46-10.4,2.06-17.35,10.07-18.54,21.39-1.29,12.31,4,23.26,13.59,27.04,10.5,4.14,20.61,2.57,30.02-3.42,1.21-.77,2.45-2.51,2.51-3.86.28-5.79.12-11.6.12-18.01h-11.19Z"/>
  <path class="cls-1" d="M927.09,460.04h24.15v-8.77h-24.14v-10.57h25.74v-8.23h-36.2v49.06h37.22v-8.59h-26.77v-12.9Z"/>
  <path class="cls-1" d="M563.61,451.3h-19.24v-18.74h-10v48.98h10.13v-21.01h19.33v21.17h9.48v-49.15h-9.7v18.76Z"/>
  <path class="cls-1" d="M778.08,460.06h23.96v-8.7h-23.99v-10.69h25.65v-7.99h-36.23v48.71h37.23v-8.26h-26.61v-13.06Z"/>
  <path class="cls-1" d="M685.88,451.27h-19.12v-18.72h-10.02v48.97h10.17v-20.93h19.14v20.98h9.71v-48.85h-9.87v18.55Z"/>
  <path class="cls-1" d="M1208.8,460.03h23.93v-8.71h-23.99v-10.8h26.11v-7.9h-36.42v48.86h37.08v-8.48h-26.71v-12.96Z"/>
  <path class="cls-1" d="M484.83,393.08h14.2v-72.01h-14.2v72.01Z"/>
  <path class="cls-1" d="M1035.25,432.41c-6.98-1.41-8.84-.31-11.45,6.31-1.04,2.63-2.1,5.25-3.13,7.88-4.48,11.51-8.94,23.03-13.67,35.22,3.07,0,5.45.37,7.63-.12,1.58-.36,3.62-1.55,4.22-2.92,3.61-8.19,3.49-8.24,12.68-8.24,1.5,0,3.03.22,4.49-.04,4.28-.76,6.61,1.14,7.32,5.19.94,5.32,4.12,7.05,9.18,6.16,1.11-.2,2.27-.15,4.26-.27-6.41-16.06-12.54-31.49-18.79-46.87-.4-.99-1.69-2.08-2.74-2.29ZM1025.08,461.88c2.12-5.75,4.08-11.07,6.48-17.59,2.43,6.51,4.41,11.82,6.57,17.59h-13.04Z"/>
  <path class="cls-1" d="M1128,432.58c0,2.05,0,3.84,0,5.62-.02,8.82.16,17.64-.14,26.45-.24,6.95-3.39,9.46-10.27,9.04-5.63-.34-8.49-3.3-8.58-9.49-.14-10.44-.04-20.88-.04-31.61h-9.55c0,12.69-.4,25.3.18,37.86.26,5.76,4.61,9.94,10.25,10.89,5.45.91,11.25.95,16.73.18,6.41-.9,10.67-5.52,10.95-11.92.53-12.23.15-24.5.15-37.03h-9.69Z"/>
  <path class="cls-1" d="M895.32,432.6c-7.95-.39-15.94-.08-24.35-.08v48.95h9.9v-17.87c5.64-.35,10.48-.37,15.23-1.01,8.29-1.12,12.54-6.84,12.3-15.91-.22-8.33-4.87-13.67-13.09-14.07ZM892.57,454.08c-3.7.57-7.5.43-11.49.61v-14.1c3.99.22,7.77.2,11.48.7,3.33.45,5.31,2.65,5.43,6.13.14,3.75-1.94,6.12-5.42,6.65Z"/>
  <path class="cls-1" d="M721.98,440.99h14.45v40.55h10.47v-40.83h14.09v-8.15h-39.01v8.44Z"/>
  <path class="cls-1" d="M1474.47,311.43c-14.05-.1-24.72,10.46-24.73,24.47-.02,13.95,10.72,24.63,24.68,24.55,13.54-.08,24.35-10.95,24.35-24.51,0-13.62-10.71-24.43-24.3-24.52ZM1474.06,355.39c-10.67-.07-19.28-8.77-19.26-19.48.02-10.91,8.88-19.6,19.81-19.43,10.77.17,19.03,8.77,18.93,19.71-.1,10.77-8.71,19.26-19.48,19.19Z"/>
  <path class="cls-1" d="M1053.36,441.01h14.64v40.39h10.09v-40.74h14.21v-7.93h-38.94v8.28Z"/>
  <path class="cls-1" d="M583.68,481.66h9.68v-49.06h-9.68v49.06Z"/>
  <path class="cls-1" d="M1480.34,336.8c3.32-1.93,4.54-4.81,3.59-8.47-1-3.81-3.91-5.18-7.56-5.23-4.28-.06-8.56-.01-13.04-.01v25.75h5.04v-10.1c5.56-.79,7.19,3.12,8.64,6.46,1.8,4.15,4.36,4.67,8.59,3.18-2.32-3.74-4.41-7.1-6.59-10.62.34-.24.81-.65,1.34-.96ZM1477.81,332.25c-2.77,1.04-5.67,1.71-9.3,2.69v-7.98c3.25.63,6.2,1.04,9,1.9.44.13.61,3.27.29,3.39Z"/>
</svg>