<?xml version="1.0" encoding="utf-8"?>
<!-- Generator: Adobe Illustrator 27.3.1, SVG Export Plug-In . SVG Version: 6.00 Build 0)  -->
<svg version="1.1" id="_x3F__x3F__x3F__x3F__1" xmlns="http://www.w3.org/2000/svg" xmlns:xlink="http://www.w3.org/1999/xlink"
	 x="0px" y="0px" viewBox="0 0 64.9 30.1" style="enable-background:new 0 0 64.9 30.1;" xml:space="preserve">
<style type="text/css">
	.st0{fill:none;}
	.st1{fill:#FFFFFF;}
</style>
<g>
	<path class="st0" d="M28.3,21.3c-0.2,0-0.1,0.3-0.1,0.4c0,0,0,0,0,0c0,0.5,0,0.5,0.5,0.4c0,0,0.1,0,0.1,0c0.3-0.1,0.4-0.5,0.2-0.7
		C28.8,21.2,28.5,21.2,28.3,21.3z"/>
	<path class="st0" d="M19.3,21.7C19.3,21.7,19.2,21.7,19.3,21.7c-0.1-0.1-0.1,0-0.1,0c-0.1,0.1-0.1,0.3-0.1,0.4
		c-0.2,0.4-0.2,0.4,0.2,0.4c0.1,0,0.1,0,0.2,0c0.1,0,0.1,0,0.1-0.1C19.4,22.2,19.4,22,19.3,21.7z"/>
	<path class="st0" d="M33,21.3c-0.5,0-0.8,0.3-0.8,0.8c0,0.5,0.3,0.8,0.8,0.8c0.5,0,0.8-0.3,0.8-0.8C33.8,21.7,33.6,21.3,33,21.3z"
		/>
	<path class="st0" d="M15,14.4c0.4,0,0.7,0,1.1,0c0.4,0,0.7-0.2,0.8-0.7c0.1-0.5-0.1-1-0.7-1.2c-0.5-0.1-0.9-0.1-1.4-0.1
		c0,0,0,0,0,0c0,0.1,0,0.2,0,0.4c0,0.4,0,0.9,0,1.3C14.7,14.4,14.8,14.4,15,14.4z"/>
	<path class="st0" d="M37.6,21.4c-0.5,0-0.8,0.4-0.8,0.9c0,0.4,0.4,0.8,0.8,0.8c0.5,0,0.8-0.3,0.8-0.8
		C38.4,21.7,38.1,21.4,37.6,21.4z"/>
	<path class="st0" d="M14.7,12.5C14.7,12.5,14.8,12.5,14.7,12.5C14.8,12.5,14.7,12.5,14.7,12.5z"/>
	<path class="st0" d="M6.5,14.4c0.3,0,0.5,0,0.8,0c0.3,0,0.5,0,0.7-0.2c0.3-0.2,0.4-0.5,0.4-0.9c0-0.4-0.3-0.7-0.6-0.8
		c-0.4-0.1-0.9-0.1-1.4-0.1c-0.1,0-0.2,0.1-0.2,0.2c0,0.3,0,0.5,0,0.8l0,0c0,0.3,0,0.5,0,0.8C6.3,14.4,6.4,14.4,6.5,14.4z"/>
	<path class="st0" d="M58.9,12.6c-0.5-0.2-1-0.1-1.5-0.1c0,0,0,0.1-0.1,0.1c0,0.1,0,0.2,0,0.2c0,0.5,0,0.9,0,1.4
		c0,0.1,0,0.2,0.2,0.2c0.3,0,0.6,0,0.9,0c0.2,0,0.5,0,0.7-0.1c0.3-0.2,0.5-0.5,0.4-0.9C59.4,13,59.3,12.8,58.9,12.6z"/>
	<path class="st1" d="M12.1,18.6c0.8,0,1.7,0,2.5,0c0.2,0,0.2-0.1,0.2-0.2c0-0.6,0-1.1,0-1.7c0.1,0,0-0.1,0.1-0.2c0.2,0,0.4,0,0.6,0
		c0.1,0,0.2,0,0.2,0.1c0.4,0.6,0.8,1.2,1.2,1.7c0.1,0.2,0.2,0.2,0.4,0.2c0.8,0,1.6,0,2.3,0c0.1,0,0.3,0.1,0.3,0
		c0.1-0.1-0.1-0.2-0.2-0.2c-0.5-0.7-1-1.4-1.5-2.1c-0.1-0.1-0.1-0.2,0-0.2c0.5-0.3,0.9-0.7,1.2-1.2c0.1-0.2,0.3-0.5,0.3-0.7
		c0-0.3,0.2-0.6,0-0.8c0.1-0.3-0.1-0.6-0.2-0.8c-0.3-0.7-0.7-1.2-1.4-1.5c-0.7-0.3-1.5-0.5-2.3-0.5c-0.5,0-1,0-1.6,0
		c0,0-0.1,0-0.1,0c-0.6,0-1.1,0-1.7,0c-0.1,0-0.2,0-0.3,0c-0.1,0-0.3,0-0.4,0c0,0,0,0,0,0c0,0,0,0,0,0c0,0.2,0,0.5,0,0.7
		c0,2.4,0,4.9,0,7.3C11.9,18.6,11.9,18.6,12.1,18.6z M14.8,12.9c0-0.1,0-0.2,0-0.4c0,0,0,0,0,0c0,0,0,0,0,0c0,0,0,0,0,0
		c0.5,0,0.9,0,1.4,0.1c0.7,0.1,0.8,0.6,0.7,1.2c-0.1,0.4-0.4,0.6-0.8,0.7c-0.4,0-0.7,0-1.1,0c-0.2,0-0.2-0.1-0.2-0.2
		C14.8,13.8,14.8,13.3,14.8,12.9z"/>
	<path class="st1" d="M62.4,18.4c-0.5-0.7-0.9-1.3-1.4-2c-0.2-0.3-0.2-0.3,0.1-0.5c0.5-0.3,0.8-0.7,1-1.2c0.2-0.4,0.2-0.9,0.2-1.4
		c0-1.1-0.8-2.1-1.7-2.5c-0.7-0.3-1.4-0.4-2.1-0.4c-1.2,0-2.4,0-3.5,0c-0.1,0-0.1,0-0.1,0c-0.3,0-0.3,0-0.3,0.3c0,2.6,0,5.2,0,7.7
		c0,0.2,0,0.2,0.2,0.2c0.8,0,1.6,0,2.5,0c0.1,0,0.1,0,0.2,0c0,0,0,0,0-0.1c0-0.5,0-1,0-1.6c0-0.4,0-0.4,0.4-0.4c0.1,0,0.1,0,0.2,0
		c0.1,0,0.2,0,0.3,0.1c0.4,0.6,0.8,1.1,1.2,1.7c0.1,0.2,0.2,0.2,0.4,0.2c0.8,0,1.7,0,2.5,0c0.1,0,0.1,0,0.2,0
		C62.5,18.5,62.4,18.4,62.4,18.4z M59.1,14.3c-0.2,0.1-0.4,0.1-0.7,0.1c-0.3,0-0.6,0-0.9,0c-0.1,0-0.2-0.1-0.2-0.2
		c0-0.5,0-0.9,0-1.4c0-0.1,0-0.2,0-0.2c0.1,0,0.1,0,0.1-0.1c0.5,0,1,0,1.5,0.1c0.4,0.1,0.5,0.4,0.6,0.7
		C59.5,13.7,59.4,14.1,59.1,14.3z"/>
	<path class="st1" d="M27.2,18.6c0-0.6,0-1.2,0-1.9c0-0.2-0.1-0.2-0.2-0.2c-1.2,0-2.5,0-3.7,0c-0.1,0-0.2,0-0.2,0c0,0,0-0.1,0-0.1
		c0-0.2,0-0.4,0-0.7c0-0.2,0.1-0.3,0.3-0.3c1,0,2.1,0,3.1,0c0.1,0,0.2,0,0.2-0.1c0-0.6,0-1.2,0-1.7c0-0.1,0-0.2-0.1-0.2
		c-0.1,0-0.1,0-0.1,0c-1,0-2,0-3,0c-0.2,0-0.3,0-0.2-0.2c0-0.2,0-0.4,0-0.6c0-0.1,0-0.1,0.1-0.1c0.4,0,0.9,0,1.4,0
		c0.7,0,1.4,0,2.1,0c0.5,0,0.5,0,0.5-0.5c0-0.1,0-0.2,0-0.3c0-0.4,0-0.9,0-1.3c-2.3,0-4.6,0-6.8,0c0,0,0,0,0,0c0,0,0,0,0,0
		c0,0,0,0.1,0,0.1c-0.1,0.1-0.1,0.1,0,0.2l0,0c0,2.3,0,4.7,0,7c0,0,0,0,0,0.1c0,0.2,0,0.4,0,0.6c0,0.3-0.1,0.3,0.3,0.3
		c2.1,0,4.2,0,6.2,0C26.9,18.6,27,18.6,27.2,18.6C27.2,18.6,27.2,18.6,27.2,18.6z"/>
	<path class="st1" d="M46.8,10.4c-0.1,0-0.1,0-0.1,0.2c0,0.9,0,1.8,0,2.7c0,1.7,0,3.5,0,5.2c0,0.1,0.1,0.1,0.2,0.1
		c2.2,0,4.4,0,6.6,0c0.2,0,0.2-0.1,0.2-0.2c0-0.6,0-1.1,0-1.7c0-0.2-0.1-0.2-0.2-0.2c-0.8,0-1.5,0-2.3,0c-0.5,0-1,0-1.5,0
		c-0.2,0-0.3,0-0.2-0.2c0-0.2,0-0.4,0-0.5c0-0.3,0-0.3,0.3-0.3c1,0,2,0,3,0c0.2,0,0.2-0.1,0.2-0.2c0-0.4,0-0.8,0-1.3
		c0-0.5,0-0.5-0.5-0.5c-1,0-2,0-3,0c0,0,0,0,0-0.1c-0.1-0.1-0.1-0.1-0.1-0.2c0-0.1,0-0.3,0-0.4c0-0.2,0-0.2,0.2-0.2
		c1.2,0,2.5,0,3.7,0c0.1,0,0.2,0,0.2-0.2c0-0.5,0-1,0-1.5c0-0.1,0-0.3,0-0.4c0,0,0,0,0-0.1c0,0-0.1,0-0.1,0c-0.1,0-0.1,0-0.2,0
		C51.1,10.4,49,10.3,46.8,10.4C46.9,10.4,46.9,10.3,46.8,10.4z"/>
	<path class="st1" d="M6.3,18.3c0-0.5,0-1,0-1.5c0-0.3,0-0.3,0.3-0.3c0.7,0,1.5,0,2.2-0.2c0.8-0.2,1.4-0.5,1.9-1.2
		c0.7-0.9,0.7-1.8,0.4-2.8c-0.2-0.7-0.7-1.2-1.4-1.5c-0.7-0.4-1.4-0.5-2.2-0.5c-1.3,0-2.6,0-3.9,0c-0.2,0-0.2,0.1-0.2,0.3
		c0,1.3,0,2.6,0,3.9c0,1.3,0,2.6,0,3.9c0,0.2,0,0.2,0.2,0.2c0.8,0,1.6,0,2.4,0C6.3,18.6,6.3,18.5,6.3,18.3z M6.3,13.5L6.3,13.5
		c0-0.3,0-0.5,0-0.8c0-0.1,0-0.2,0.2-0.2c0.5,0,0.9,0,1.4,0.1c0.3,0.1,0.6,0.3,0.6,0.8c0,0.4-0.1,0.7-0.4,0.9
		c-0.2,0.1-0.5,0.2-0.7,0.2c-0.3,0-0.5,0-0.8,0c-0.1,0-0.2,0-0.2-0.2C6.3,14,6.3,13.7,6.3,13.5z"/>
	<path class="st1" d="M39.1,6.1c1,0.3,2,0.6,3,0.9c0.7,0.2,1.5,0.4,2.2,0.7c0.3,0.1,0.7,0.2,1,0.4c0.3,0.1,0.7,0.2,1,0.3
		c0.3,0.1,0.6,0.2,0.9,0.2c0.2,0.1,0.4,0.2,0.6,0.2c0.1,0.1,0.2,0.1,0.3,0.1C48,8.8,48,8.7,47.9,8.7c-0.2-0.1-0.5-0.3-0.7-0.3
		c-0.2-0.1-0.4-0.2-0.7-0.3c-1-0.5-2-0.9-2.9-1.3c-1.6-0.7-3.1-1.4-4.7-2.1c-1.2-0.5-2.4-1.1-3.6-1.6C35.2,3,35,3,34.8,3
		c-0.4,0.1-0.8,0.2-1.2,0.4c-0.5,0.2-1.1,0.4-1.6,0.5c-0.6,0.2-1.2,0.4-1.9,0.6c-0.5,0.1-1,0.3-1.5,0.5c-0.5,0.2-0.9,0.3-1.4,0.5
		c-1.1,0.4-2.1,0.7-3.2,1.1c-1.3,0.4-2.6,0.9-3.9,1.3c-1,0.3-1.9,0.6-2.9,0.9C17,8.9,16.7,9,16.5,9.1c-0.2,0-0.5,0.1-0.7,0.2
		c-0.2,0.1-0.4,0.1-0.6,0.2c0.2,0,0.5,0,0.7-0.1c0.2,0,0.5-0.1,0.7-0.2c0.1,0,0.2-0.1,0.4-0.1c0.9-0.2,1.8-0.5,2.8-0.7
		c1.5-0.3,2.9-0.7,4.3-1c1.1-0.3,2.2-0.5,3.2-0.8c1.1-0.3,2.2-0.5,3.3-0.8C31.7,5.6,32.9,5.3,34,5c0.4-0.1,0.8-0.2,1.2-0.1
		C35.6,5,36,5.1,36.4,5.2C37.3,5.5,38.2,5.8,39.1,6.1z"/>
	<path class="st1" d="M45.5,10.4c-0.1,0-0.1,0-0.2,0c-0.7,0-1.4,0-2.1,0c-0.2,0-0.3,0.1-0.3,0.3c0,1.3,0,2.6,0,3.9l0,0
		c0,1.3,0,2.6,0,3.9c0,0.2,0.1,0.2,0.2,0.2c0.8,0,1.5,0,2.3,0c0.3,0,0.3,0,0.3-0.3c0-2.5,0-5.1,0-7.6C45.8,10.4,45.8,10.4,45.5,10.4
		z"/>
	<path class="st1" d="M9.1,20.4c-0.2,0-0.5,0-0.7,0c-0.1,0-0.1,0-0.2,0.1C8,21,7.6,21.5,7.3,22.1c0,0.1,0,0.1-0.1,0.1
		s-0.1-0.1-0.1-0.1c-0.2-0.4-0.4-0.7-0.7-1.1C6,20.3,6,20.3,5.2,20.3c-0.1,0-0.1,0-0.1,0.1c0,1.1,0,2.2,0,3.3c0,0.1,0,0.1,0.1,0.1
		c0.2,0,0.5,0,0.8,0c0.2,0,0.2,0,0.2-0.2c0-0.4,0-0.9,0-1.3c0.1,0,0.1,0.1,0.1,0.2c0.2,0.3,0.4,0.6,0.6,0.9c0.1,0.2,0.4,0.2,0.6,0
		c0.1-0.1,0.1-0.2,0.2-0.3c0.2-0.3,0.3-0.6,0.5-0.9c0,0,0,0,0.1,0c0,0.5,0,0.9,0,1.4c0,0.1,0,0.2,0.2,0.2c0.3,0,0.5,0,0.8,0
		c0.1,0,0.1-0.1,0.1-0.1c0-1.1,0-2.2,0-3.3C9.3,20.4,9.2,20.4,9.1,20.4z"/>
	<path class="st1" d="M49.9,20.4c-0.2,0-0.5,0-0.7,0c-0.1,0-0.1,0-0.2,0.1c-0.3,0.5-0.6,1.1-0.9,1.6c0,0.1,0,0.1-0.1,0.1
		c-0.1,0-0.1-0.1-0.1-0.1c-0.3-0.5-0.5-0.9-0.8-1.4c-0.1-0.3-0.3-0.4-0.6-0.4c-0.1,0-0.2,0-0.4,0c-0.1,0-0.2,0-0.2,0.2
		c0,1.1,0,2.2,0,3.2c0,0.1,0,0.2,0.2,0.2c0.2,0,0.4,0,0.6,0c0.3,0,0.3,0,0.3-0.3c0-0.4,0-0.8,0-1.2c0.1,0,0.1,0.1,0.1,0.1
		c0.2,0.3,0.4,0.6,0.5,0.9c0.1,0.2,0.3,0.2,0.5,0.2c0.1,0,0.2-0.2,0.3-0.3c0.2-0.3,0.4-0.7,0.5-1c0,0,0,0,0.1,0c0,0.5,0,0.9,0,1.4
		c0,0.1,0,0.2,0.2,0.2c0.2,0,0.5,0,0.7,0c0.1,0,0.2,0,0.2-0.1c0-1.1,0-2.2,0-3.3C50.1,20.4,50.1,20.4,49.9,20.4z"/>
	<path class="st1" d="M29.7,23c0-0.1-0.1-0.1,0-0.2c0.4-0.3,0.6-0.6,0.6-1.1c0-0.6-0.4-1-0.9-1.2c-0.8-0.2-1.5-0.1-2.3-0.1
		c-0.1,0-0.1,0.1-0.1,0.2c0,0.5,0,1.1,0,1.6c0,0.5,0,1.1,0,1.6c0,0.1,0,0.2,0.1,0.2c0.3,0,0.6,0,0.9,0c0.1,0,0.1,0,0.1-0.1
		c0-0.2,0-0.4,0-0.6c0-0.1,0-0.2,0.2-0.2c0.1,0,0.2,0,0.3,0.1c0.1,0.2,0.2,0.4,0.4,0.6c0.1,0.1,0.1,0.2,0.3,0.2c0.3,0,0.6,0,0.9,0
		c0.1,0,0.1,0,0.2-0.1c0-0.1,0-0.1-0.1-0.1C30.1,23.5,29.9,23.2,29.7,23z M28.8,22.1c0,0-0.1,0-0.1,0c-0.5,0-0.5,0-0.5-0.4
		c0,0,0,0,0,0c0-0.1-0.1-0.4,0.1-0.4c0.3-0.1,0.5-0.1,0.8,0.2C29.2,21.7,29.1,22,28.8,22.1z"/>
	<path class="st1" d="M34.6,21.1c-0.6-0.8-1.9-0.9-2.7-0.5c-1.1,0.5-1.3,1.8-0.5,2.7c0.7,0.7,1.5,0.8,2.4,0.5
		c0.6-0.2,1.2-0.9,1.2-1.6C35,21.7,34.9,21.4,34.6,21.1z M33,23c-0.5,0-0.8-0.3-0.8-0.8c0-0.5,0.3-0.8,0.8-0.8
		c0.6,0,0.8,0.3,0.9,0.8C33.8,22.7,33.5,23,33,23z"/>
	<path class="st1" d="M37.6,20.4c0,0-0.1,0-0.1,0c-1,0-1.8,0.7-1.9,1.7c-0.1,0.7,0.3,1.3,1.1,1.7c0.8,0.4,1.9,0.2,2.5-0.5
		c0.4-0.5,0.5-1.2,0.2-1.8C39.1,20.7,38.4,20.4,37.6,20.4z M37.6,23c-0.4,0-0.8-0.4-0.8-0.8c0-0.5,0.3-0.9,0.8-0.9
		c0.5,0,0.8,0.3,0.8,0.8S38.1,23,37.6,23z"/>
	<path class="st1" d="M13.2,23.4c0,0,0-0.1,0-0.1c0-0.2-0.1-0.2-0.2-0.2c-0.5,0-0.9,0-1.4,0c-0.2,0-0.2-0.1-0.2-0.2
		c0-0.1,0-0.2,0.2-0.2c0.2,0,0.4,0,0.7,0c0.2,0,0.5,0.1,0.6,0c0.1-0.1,0-0.4,0.1-0.6c0-0.2-0.1-0.2-0.2-0.2c-0.3,0-0.7,0-1,0
		c-0.4,0-0.3,0.1-0.3-0.3c0-0.2,0-0.2,0.2-0.2c0.4,0,0.9,0,1.3,0c0.1,0,0.2,0,0.2-0.2c0-0.2,0-0.3,0-0.5c0-0.2,0-0.2-0.2-0.2
		c-0.8,0-1.7,0-2.5,0c-0.1,0-0.2,0-0.2,0.2c0,0.5,0,1.1,0,1.6l0,0c0,0.5,0,1.1,0,1.6c0,0.1,0,0.2,0.2,0.2c0.7,0,1.5,0,2.2,0
		c0.2,0,0.4,0.1,0.5,0C13.3,23.8,13.2,23.5,13.2,23.4z"/>
	<path class="st1" d="M20.3,21.6c-0.1-0.2-0.2-0.4-0.2-0.6c0-0.3-0.3-0.4-0.3-0.6c0-0.1-0.1-0.1-0.1-0.1c-0.3,0-0.6,0-0.9,0
		c-0.1,0-0.2,0-0.2,0.1c0,0.1-0.1,0.2-0.1,0.3c-0.3,0.8-0.7,1.5-1,2.3c-0.1,0.2-0.2,0.5-0.3,0.7c-0.1,0.2,0,0.2,0.1,0.2s0.4,0,0.5,0
		c0.4,0,0.4,0,0.6-0.4c0-0.1,0.1-0.2,0.2-0.2c0.4,0,0.7,0,1.1,0c0.1,0,0.2,0.1,0.2,0.2c0.2,0.4,0.2,0.4,0.6,0.4c0,0,0.1,0,0.1,0
		c0.1,0,0.3,0,0.4,0c0.2,0,0.2-0.1,0.1-0.2C20.9,23,20.6,22.3,20.3,21.6z M19.4,22.5c-0.1,0-0.1,0-0.2,0c-0.4,0-0.4,0-0.2-0.4
		c0.1-0.1,0.1-0.3,0.1-0.4c0,0,0-0.1,0.1-0.1c0,0,0.1,0,0.1,0.1C19.4,22,19.4,22.2,19.4,22.5C19.6,22.5,19.5,22.5,19.4,22.5z"/>
	<path class="st1" d="M56.5,21.4c0.3,0,0.6,0,0.9,0.3c0.1,0.1,0.1,0.1,0.2,0c0.2-0.2,0.3-0.3,0.5-0.5c0.1-0.1,0.1-0.2,0-0.3
		c-0.7-0.5-1.5-0.6-2.3-0.4c-0.7,0.2-1.2,0.8-1.2,1.5c-0.1,0.7,0.2,1.2,0.8,1.6c0.7,0.4,1.4,0.4,2.1,0.2c0.6-0.2,0.6-0.2,0.6-0.9
		c0,0,0-0.1,0-0.1l0,0c0-0.2,0-0.3,0-0.5c0-0.1-0.1-0.2-0.2-0.2c-0.2,0-0.3,0-0.5,0c-0.3,0-0.3,0-0.3,0.3c0,0.6,0,0.6-0.6,0.6
		c-0.5,0-0.8-0.4-0.8-0.8C55.8,21.8,56.1,21.4,56.5,21.4z"/>
	<path class="st1" d="M43.1,20.4c-0.8,0-1.6,0-2.4,0c-0.1,0-0.2-0.1-0.3,0c-0.1,0.1,0,0.2,0,0.3c0,0.5,0,1,0,1.5l0,0
		c0,0.5,0,1,0,1.6c0,0.1,0,0.2,0.1,0.2c0.3,0,0.6,0,0.9,0c0.1,0,0.2,0,0.2-0.2c0-0.2,0-0.5,0-0.7c0-0.1,0-0.2,0.2-0.2
		c0.4,0,0.7,0,1.1,0c0.1,0,0.2,0,0.2-0.2c0-0.2,0-0.4,0-0.5c0-0.1,0-0.2-0.2-0.2c-0.3,0-0.5,0-0.8,0c-0.5,0-0.5,0-0.5-0.5
		c0-0.1,0.1-0.2,0.2-0.2c0.4,0,0.9,0,1.3,0c0.1,0,0.2,0,0.2-0.2c0-0.2,0-0.3,0-0.5C43.3,20.4,43.2,20.4,43.1,20.4z"/>
	<path class="st1" d="M53.9,20.6c0-0.2,0-0.2-0.2-0.2c-0.4,0-0.8,0-1.2,0c-0.4,0-0.8,0-1.2,0c-0.2,0-0.2,0-0.2,0.2c0,0.7,0,1.4,0,2
		c0,0.4,0,0.8,0,1.2c0,0.2,0,0.2,0.1,0.2c0.3,0,0.6,0,0.9,0c0.1,0,0.2,0,0.1-0.2c0-0.2,0-0.5,0-0.7c0-0.1,0.1-0.2,0.2-0.2
		c0.2,0,0.4,0,0.6,0c0.7,0,0.7,0,0.7-0.7c0-0.1,0-0.2-0.2-0.2c-0.3,0-0.5,0-0.8,0c-0.5,0-0.5,0-0.5-0.5c0-0.1,0-0.2,0.2-0.2
		c0.4,0,0.9,0,1.3,0c0.2,0,0.2-0.1,0.2-0.2C53.9,20.9,53.9,20.7,53.9,20.6z"/>
	<path class="st1" d="M16.7,20.4c-0.5,0-0.9,0-1.4,0c-0.3,0-0.7,0-1,0c-0.2,0-0.5-0.1-0.6,0c-0.1,0.1,0,0.4,0,0.7
		c0,0.2,0.1,0.2,0.2,0.2c0.2,0,0.4,0,0.6,0c0.2,0,0.3,0,0.3,0.2c0,0.7,0,1.5,0,2.3c0,0.2,0.1,0.2,0.2,0.2c0.3,0,0.5,0,0.8,0
		c0.1,0,0.2,0,0.2-0.2c0-0.7,0-1.3,0-2c0-0.5,0-0.5,0.5-0.5c0.5,0,0.5,0,0.5-0.5c0-0.1,0-0.1,0-0.2C17,20.4,16.9,20.3,16.7,20.4z"/>
	<path class="st1" d="M24.7,23.2c0-0.2-0.1-0.2-0.2-0.2c-0.4,0-0.7,0-1.1,0c-0.2,0-0.3-0.1-0.3-0.3c0-0.7,0-1.4,0-2.1
		c0-0.2,0-0.3-0.2-0.2c-0.3,0-0.5,0-0.8,0c-0.2,0-0.2,0-0.2,0.2c0,0.5,0,1.1,0,1.6c0,0.5,0,1.1,0,1.6c0,0.1,0,0.2,0.2,0.2
		c0.8,0,1.6,0,2.5,0c0.1,0,0.2,0,0.2-0.2C24.7,23.6,24.7,23.4,24.7,23.2z"/>
	<path class="st1" d="M30.8,11.2c0-0.1,0-0.2,0-0.3c0-0.2-0.1-0.3-0.2-0.4c-0.5-0.3-1.1-0.5-1.6-0.8c-0.1-0.1-0.3-0.1-0.4,0
		c-0.2-0.1-0.2,0-0.2,0.1c0,0.6,0,1.2,0,1.8c0,2.2,0,4.4,0,6.6c0,0.2,0.1,0.2,0.2,0.2c0.5,0,0.9,0,1.4,0c0,0,0,0,0.1,0
		c0.1,0,0.2,0,0.4,0c0,0,0,0,0.1,0c0,0,0.1,0,0.1,0c0,0,0,0,0.1,0c0,0,0.1,0,0.1,0c0,0,0,0,0.1,0c0.1-0.1,0-0.2,0.1-0.3
		c0,0,0,0,0-0.1c0-1.7,0-3.5,0-5.2c0-0.3,0.1-0.7-0.1-1C30.8,11.8,30.7,11.5,30.8,11.2z"/>
	<path class="st1" d="M59.4,22.7c-0.4,0-0.7,0.3-0.7,0.6c0,0.3,0.3,0.6,0.6,0.6c0.4,0,0.7-0.3,0.7-0.7
		C60.1,22.9,59.8,22.7,59.4,22.7z"/>
	<path class="st1" d="M39,18.4c0,0.1,0,0.2,0.2,0.2c0.4,0,0.9,0,1.3,0c0.3,0,0.5,0,0.8,0c0.1,0,0.2,0,0.2-0.2c0-0.4,0-0.9,0-1.3
		c-0.1,0-0.1,0-0.2,0c0.1,0,0.1,0,0.2,0c0-2.5,0-4.9,0-7.4c0-0.2-0.1-0.2-0.3-0.1c-0.7,0.3-1.3,0.6-2,0.9c-0.1,0.1-0.2,0.1-0.2,0.3
		c0,1.4,0,2.8,0,4.2c0,0.7,0,1.3,0,2C39,17.5,39,18,39,18.4z"/>
	<path class="st1" d="M36.5,18.6c0.1,0,0.2,0,0.2-0.1c0.1,0,0.1-0.1,0.2-0.1c0.3,0,0.5-0.2,0.7-0.3c0.1-0.1,0.2-0.1,0.2-0.3
		c0-0.8,0-1.6,0-2.4c0-0.7,0-1.3,0-2c0-0.7,0-1.4,0-2.2c0-0.1-0.1,0-0.1,0c-0.1,0-0.2,0.1-0.3,0.1c-0.4,0.2-0.9,0.4-1.3,0.6
		c-0.2,0.1-0.4,0.2-0.6,0.3c-0.1,0-0.2,0.1-0.2,0.3c0,0.3,0,0.6,0,0.9c0,0.8,0,1.6,0,2.5c0,0.5,0,1,0,1.5c0,0.5,0,1.1,0,1.6
		c0,0.2,0,0.2,0.2,0.1C36,18.9,36.2,18.7,36.5,18.6z"/>
	<path class="st1" d="M31.9,13.9c0,0.4,0,0.9,0,1.3c0,0.8,0,1.7,0,2.5c0,0.3,0.1,0.4,0.3,0.5c0.7,0.3,1.3,0.6,2,0.9
		c0,0.1,0.1,0,0.1,0c0,0,0,0,0,0c0,0,0,0,0-0.1c0-0.9,0-1.9,0-2.8c0-0.1,0-0.3-0.1-0.4c0.2-0.1,0.1-0.3,0.1-0.5c0-0.4,0.1-0.7,0-1.1
		c0.1-0.5,0-1.1,0-1.6c0-0.2-0.1-0.3-0.2-0.3c-0.7-0.3-1.4-0.6-2-0.9c-0.1-0.1-0.2,0-0.2,0.1c0.1,0.2,0,0.5,0,0.7c0,0.5,0,0.9,0,1.4
		C31.8,13.6,31.9,13.7,31.9,13.9z"/>
	<path class="st1" d="M27.2,18.6C27.2,18.6,27.2,18.6,27.2,18.6C27.2,18.7,27.3,18.6,27.2,18.6z"/>
	<path class="st0" d="M34.3,19C34.3,19,34.3,19,34.3,19"/>
	<path class="st0" d="M30.7,18.6C30.7,18.6,30.6,18.6,30.7,18.6"/>
</g>
</svg>
