<?xml version="1.0" encoding="utf-8"?>
<!-- Generator: Adobe Illustrator 27.3.1, SVG Export Plug-In . SVG Version: 6.00 Build 0)  -->
<svg version="1.1" id="_x3F__x3F__x3F__x3F__1" xmlns="http://www.w3.org/2000/svg" xmlns:xlink="http://www.w3.org/1999/xlink"
	 x="0px" y="0px" viewBox="0 0 64.9 30.1" style="enable-background:new 0 0 64.9 30.1;" xml:space="preserve">
<style type="text/css">
	.st0{fill:#FFFFFF;}
</style>
<g id="ixlOri.tif">
	<g>
		<path class="st0" d="M16.5,25.9c-0.2-0.1-0.3-0.1-0.5-0.3c-0.1-0.1-0.1,0-0.2,0c-0.6,0.3-1.2,0.3-1.8,0.2c-0.9-0.2-1.6-0.8-2-1.7
			c-0.3-0.9-0.2-1.8,0.4-2.5c0.4-0.6,1.1-0.9,1.9-0.9c0.6-0.1,1.2,0.1,1.8,0.4c0.7,0.4,1.1,1,1.1,1.8c0.1,0.3,0.1,0.6,0,1
			c0,0.1-0.1,0.3-0.1,0.3c-0.1,0.1-0.2,0.3-0.3,0.4c-0.1,0.1-0.1,0.2-0.1,0.3V25c-0.1,0.1,0,0.2,0.1,0.3c0.1,0.1,0.3,0.3,0.4,0.4
			c0.1,0.1,0.1,0.1,0,0.1c-0.1,0.1-0.3,0.2-0.5,0.3C16.6,25.9,16.6,25.9,16.5,25.9z M15.1,24.8c-0.1-0.1-0.2-0.1-0.3-0.2
			c-0.1-0.1-0.1-0.3-0.3-0.3c-0.1-0.1-0.1-0.1,0-0.2c0.3-0.3,0.9-0.3,1.2,0C16,24.2,16,24.2,16,24c0.2-0.4,0.3-0.9,0.1-1.4
			c-0.2-0.5-0.5-0.8-1.1-0.9c-0.3-0.1-0.4-0.1-0.7,0s-0.5,0.1-0.7,0.3c-0.6,0.5-0.7,1.1-0.5,1.8C13.3,24.7,14.2,25.1,15.1,24.8z"/>
		<path class="st0" d="M35.7,15.4c-0.1,0.1-0.3,0.3-0.4,0.4c-0.1,0-0.1,0.1-0.1,0.1c-0.4,0.4-0.8,0.7-1.2,1.1
			c-0.2,0.1-0.4,0.3-0.6,0.4c-0.2,0.1-0.4,0.3-0.6,0.3c-0.2,0-0.3-0.1-0.4-0.1c0,0,0,0-0.1,0c0,0-0.1,0-0.1-0.1l0,0
			c-0.1-0.1-0.2-0.1-0.3-0.3l0,0c-0.2-0.1-0.3-0.3-0.5-0.4c-0.1-0.1-0.2-0.1-0.3-0.2c0-0.1,0-0.1-0.1-0.1c-0.1-0.1-0.1-0.2-0.3-0.2
			c0,0,0,0-0.1,0c-0.1-0.1-0.1-0.1-0.1-0.1c0-0.1,0-0.1-0.1-0.1c-0.4-0.4-0.8-0.8-1.2-1.2c-0.5-0.6-0.9-1.2-1.4-1.8
			c-0.4-0.6-0.8-1.2-1-1.9c-0.1-0.3-0.3-0.6-0.4-0.9c-0.1-0.4-0.3-0.8-0.4-1.2c-0.1-0.3-0.2-0.7-0.3-1c-0.1-0.3-0.1-0.7-0.2-1
			c0-0.1,0-0.2-0.1-0.3c0,0,0,0,0-0.1c0.1-0.2,0-0.4,0-0.5c-0.1-0.8-0.1-1.4-0.1-2.2c0-0.1,0-0.3,0.1-0.4c0-0.1,0.2-0.1,0.3-0.2
			c0.3-0.1,0.5-0.1,0.8-0.1c0.3,0,0.6-0.1,0.9-0.1c0.1,0,0.3,0,0.4-0.1H28c0.1,0,0.1,0.1,0.1,0h0.1c0.3,0.1,0.5,0,0.8-0.1
			c0.1,0,0.3-0.1,0.4-0.1c0.1,0,0.3,0,0.4,0c0.4,0,0.9-0.1,1.3-0.1c0.8,0,1.6-0.1,2.4,0c0.3,0,0.6,0,0.8,0c0.5,0,0.9,0.1,1.4,0.1
			c0.1,0,0.3,0.1,0.5,0c0.1,0,0.3,0.1,0.4,0.1s0.3,0,0.4,0.1c0.1,0,0.3,0.1,0.4,0.1c0.3,0,0.5,0.1,0.7,0.1c0.1,0,0.3,0.1,0.5,0.1
			c0.2,0.1,0.4,0.1,0.6,0.1c0,0.1,0,0.1,0.1,0c0.2,0.1,0.4,0.1,0.5,0.1c0.1,0,0.1,0.1,0.1,0.2c0,0.4,0.1,0.9,0,1.3
			c0,0.3,0,0.6-0.1,0.8c0,0.2-0.1,0.3,0,0.5c0,0.2-0.1,0.4-0.1,0.5c-0.1,0.6-0.2,1.2-0.4,1.8c-0.1,0.6-0.3,1.1-0.6,1.6
			c-0.4,1.1-0.9,2.1-1.6,3c-0.3,0.4-0.6,0.9-1,1.3c-0.1,0.1-0.1,0.1-0.1,0.1l0,0c-0.1,0.1-0.3,0.3-0.4,0.4
			C35.7,15.2,35.7,15.3,35.7,15.4z"/>
		<path class="st0" d="M39.9,15.7c-0.3,0.3-0.3,0.3-0.7,0.1c-0.4-0.3-0.9-0.6-1.3-0.9c-0.2-0.1-0.3-0.3-0.4-0.4
			c-0.1-0.1,0-0.1,0-0.2c0.3-0.4,0.6-0.9,0.9-1.4c0.6-1,1-2,1.3-3.1c0.1-0.4,0.3-0.9,0.3-1.3c0.1-0.3,0.2-0.5,0.1-0.8
			c0-0.3,0.2-0.5,0.1-0.8c0.1-0.1,0-0.3,0.1-0.3c0,0,0,0,0-0.1c0-0.3,0.1-0.6,0.1-0.9c0-0.2,0-0.4,0-0.6c0-0.1,0.1-0.1,0.2-0.1
			c0.2,0.1,0.3,0.1,0.5,0c0.1,0,0.1,0,0.1,0c0.3,0.1,0.4,0.1,0.7,0.1c0,0,0,0,0.1,0C42.2,5,42.4,4.9,42.6,5C42.8,5,43,5,43.2,5
			c0.3,0.1,0.6,0.1,0.9,0.2c0.2,0,0.3,0.1,0.5,0.1c0.1,0,0.1,0.1,0.1,0.1c0,0.4,0.1,0.7,0,1.1c0,0.2,0,0.4,0,0.6
			c0,0.2-0.1,0.4-0.1,0.6c-0.1,0.3-0.1,0.7-0.2,1c-0.1,0.3-0.2,0.6-0.3,1c-0.1,0.3-0.2,0.6-0.3,0.8c-0.1,0.3-0.3,0.6-0.4,0.9
			c-0.4,0.8-0.9,1.6-1.5,2.3c-0.3,0.3-0.6,0.6-0.9,0.9C40.8,15,40.3,15.4,39.9,15.7C40,15.7,39.9,15.7,39.9,15.7L39.9,15.7z"/>
		<path class="st0" d="M20.7,5.7c0.1-0.1,0.1-0.2,0.1-0.3c0-0.3,0-0.3,0.3-0.3C21.5,5,22,4.9,22.5,4.9c0.1-0.1,0.3,0,0.4-0.1
			c0.1-0.1,0.2,0,0.3,0c0.1,0,0.2,0,0.3-0.1c0,0,0,0,0.1,0c0.4,0.1,0.8,0,1.2-0.1s0.4-0.1,0.4,0.3s0,0.8,0.1,1.1
			c0.1,0.5,0.1,1.1,0.2,1.6c0.1,0.6,0.3,1.3,0.5,1.9c0.4,1.4,1.1,2.8,2,4.1c0.1,0.2,0.3,0.3,0.4,0.5c0.1,0.1,0.1,0.1,0,0.2
			c-0.1,0.1-0.3,0.3-0.4,0.3c-0.3,0.3-0.6,0.6-1,0.8c-0.2,0.1-0.4,0.3-0.6,0.4c-0.1,0.1-0.1,0.1-0.2,0c-0.4-0.3-0.9-0.6-1.3-0.9
			c-0.4-0.3-0.8-0.8-1.1-1.1c-0.2-0.1-0.3-0.3-0.4-0.5c-0.1-0.1-0.1-0.3-0.3-0.4c-0.3-0.3-0.4-0.6-0.6-0.9c-0.3-0.4-0.4-0.8-0.6-1.2
			c-0.1-0.1-0.1-0.2-0.2-0.3c-0.1-0.1,0-0.1-0.1-0.2c-0.1-0.1-0.1-0.3-0.2-0.4c-0.1-0.1-0.1-0.3-0.1-0.5C21,9.1,21,8.7,20.9,8.2
			c-0.1-0.2-0.1-0.3-0.1-0.5C20.7,7.1,20.7,6.4,20.7,5.7C20.7,5.7,20.7,5.7,20.7,5.7z"/>
		<path class="st0" d="M36.6,23.9c0-1,0-2,0-3c0-0.1,0-0.1,0-0.2l0,0c0.3,0,0.6,0,0.9,0c0.1,0,0.1,0.1,0.1,0.2c0,1.5,0,3,0,4.5
			c0,0.1,0,0.2,0,0.3c0,0.1,0,0.1-0.1,0.1c-0.3,0-0.6,0-0.9,0c-0.1,0-0.1-0.1-0.2-0.2c-0.3-0.4-0.6-0.8-0.9-1.3
			c-0.4-0.6-0.8-1.1-1.2-1.7c0-0.1-0.1-0.1-0.1-0.1c0,0.1,0,0.2,0,0.3c0,0.9,0,1.8,0,2.8c0,0.1,0,0.2-0.2,0.2c-0.3,0-0.5,0-0.8,0
			c-0.1,0-0.1,0-0.1-0.1c0-1.6,0-3.2,0-4.9c0-0.1,0-0.1,0.1-0.1c0.3,0,0.5,0,0.8,0c0.1,0,0.1,0,0.2,0.1c0.2,0.3,0.4,0.5,0.5,0.8
			c0.4,0.6,0.9,1.3,1.3,1.8c0.1,0.2,0.3,0.3,0.4,0.5C36.4,24,36.4,24,36.6,23.9C36.6,24,36.6,23.9,36.6,23.9z"/>
		<path class="st0" d="M50.1,23.3c0-0.8,0-1.6,0-2.4c0-0.1,0.1-0.1,0.1-0.1c1.1,0,2.1,0,3.2,0c0.1,0,0.2,0.1,0.2,0.2
			c0,0.2,0,0.4,0,0.6c0,0.1,0,0.1-0.1,0.1c-0.8,0-1.4,0-2.2,0c-0.1,0-0.2,0-0.1,0.1c0,0.3,0,0.5,0,0.8c0,0.1,0.1,0.1,0.1,0.1
			c0.6,0,1.3,0,2,0c0.2,0,0.2,0.1,0.2,0.2c0,0.2,0,0.4,0,0.6c0,0.1-0.1,0.2-0.2,0.2c-0.6,0-1.3,0-2,0c-0.1,0-0.2,0-0.2,0.2
			c0,0.3,0,0.6,0,0.8c0,0.1,0.1,0.1,0.1,0.1c0.8,0,1.4,0,2.2,0c0.1,0,0.2,0.1,0.2,0.2c0,0.2,0,0.4,0,0.6c0,0.1-0.1,0.2-0.2,0.2
			c-0.4,0-0.9,0-1.3,0c-0.6,0-1.3,0-2,0c-0.1,0-0.1-0.1-0.1-0.1C50.1,24.9,50.1,24,50.1,23.3L50.1,23.3z"/>
		<path class="st0" d="M28.6,23.2c0-0.8,0-1.6,0-2.4c0-0.1,0-0.1,0.1-0.1c1-0.1,2,0,3,0c0.1,0,0.3,0,0.4,0c0.1,0,0.1,0.1,0.1,0.1
			c0,0.3,0,0.4,0,0.7c0,0.1,0,0.1-0.1,0.1c-0.7,0-1.4,0-2.1,0c-0.1,0-0.2,0-0.2,0.2c0,0.3,0,0.5,0,0.8c0,0.1,0.1,0.1,0.1,0.1
			c0.6,0,1.3,0,2,0c0.1,0,0.2,0,0.2,0.2c0,0.3,0,0.4,0,0.7c0,0.1,0,0.1-0.1,0.1c-0.6,0-1.3,0-2,0c-0.1,0-0.2,0-0.2,0.2
			c0,0.3,0,0.5,0,0.8c0,0.1,0,0.1,0.1,0.1c0.8,0,1.4,0,2.2,0c0.1,0,0.2,0,0.2,0.2c0,0.3,0,0.4,0,0.7c0,0.1,0,0.1-0.1,0.1
			c-1.1,0-2.2,0-3.3,0c-0.2,0-0.2,0-0.2-0.3C28.6,24.8,28.6,24,28.6,23.2z"/>
		<path class="st0" d="M25.7,25.8c-0.6,0-1.1,0-1.7,0c-0.1,0-0.1-0.1-0.1-0.1c0-1.6,0-3.2,0-4.7c0-0.1,0.1-0.2,0.2-0.2
			c1.1,0,2.2,0,3.3,0c0.1,0,0.1,0,0.1,0.1c0,0.2,0,0.4,0,0.6c0,0.1,0,0.1-0.1,0.1c-0.7,0-1.4,0-2.1,0c-0.2,0-0.2,0.1-0.2,0.2
			c0,0.3,0,0.5,0,0.8c0,0.1,0,0.1,0.1,0.1c0.6,0,1.3,0,2,0c0.1,0,0.2,0,0.2,0.1c0,0.2,0,0.4,0,0.6c0,0.1,0,0.2-0.2,0.2
			c-0.6,0-1.3,0-2,0c-0.1,0-0.2,0.1-0.2,0.2c0,0.3,0,0.6,0,0.8c0,0.1,0,0.1,0.1,0.1c0.8,0,1.5,0,2.2,0c0.1,0,0.2,0.1,0.2,0.2
			c0,0.2,0,0.4,0,0.6c0,0.2,0,0.2-0.2,0.2C26.8,25.8,26.2,25.8,25.7,25.8L25.7,25.8z"/>
		<path class="st0" d="M18.2,22.5c0-0.5,0-1.1,0-1.6c0-0.1,0-0.1,0.1-0.1c0.3,0,0.6,0,0.8,0c0.1,0,0.1,0,0.1,0.1c0.1,1,0,2.1,0,3.1
			c0,0.5,0.3,0.8,0.8,0.9c0.3,0.1,0.6,0.1,0.9,0c0.4-0.1,0.6-0.4,0.6-0.8c0.1-1.1,0-2.1,0.1-3.2c0-0.1,0-0.1,0.1-0.1
			c0.3,0,0.6,0,0.8,0c0.1,0,0.1,0.1,0.1,0.1c0,1,0,2,0,3.1c0,0.6-0.2,1.2-0.7,1.6c-0.3,0.3-0.7,0.4-1.1,0.4
			c-0.6,0.1-1.1,0.1-1.6-0.2c-0.6-0.3-0.9-0.8-1.1-1.4c0-0.1,0-0.3,0-0.4C18.2,23.4,18.2,22.9,18.2,22.5L18.2,22.5z"/>
		<path class="st0" d="M40.5,20.7c0.6,0,1.3,0,1.9,0c0.1,0,0.1,0,0.1,0.1c0,0.3,0,0.5,0,0.8c0,0.1-0.1,0.1-0.1,0.1
			c-0.4,0-0.8,0-1.2,0c-0.1,0-0.2,0.1-0.2,0.2c0,1.3,0,2.5,0,3.7c0,0.1,0,0.2-0.2,0.2c-0.3,0-0.5,0-0.8,0c-0.1,0-0.1,0-0.1-0.1
			c0-1.3,0-2.5,0-3.8c0-0.1-0.1-0.2-0.2-0.2c-0.4,0-0.8,0-1.3,0c-0.1,0-0.2,0-0.1-0.1c0-0.2,0-0.4,0-0.6c0-0.1,0.1-0.2,0.2-0.2
			c0.4,0,0.8,0,1.2,0C40,20.7,40.3,20.7,40.5,20.7L40.5,20.7z"/>
		<path class="st0" d="M45.8,23.2c0-0.8,0-1.6,0-2.4c0-0.1,0-0.2,0.1-0.1c0.3,0,0.5,0,0.8,0c0.2,0,0.2,0,0.2,0.2c0,1.3,0,2.5,0,3.7
			c0,0.1,0.1,0.2,0.2,0.2c0.6,0,1.3,0,2,0c0.1,0,0.1,0,0.2,0c0.1,0,0.1,0,0.1,0.1c0,0.3,0,0.5,0,0.8c0,0.1-0.1,0.1-0.1,0.1
			c-0.9,0-1.8,0-2.7,0c-0.2,0-0.4,0-0.6,0c-0.1,0-0.2,0-0.2-0.2C45.8,24.8,45.8,24,45.8,23.2L45.8,23.2z"/>
		<path class="st0" d="M43.4,23.3c0-0.8,0-1.6,0-2.4c0-0.1,0-0.2,0.1-0.1c0.3,0,0.5,0,0.8,0c0.1,0,0.1,0,0.1,0.1c0,1.6,0,3.2,0,4.9
			c0,0.1-0.1,0.1-0.1,0.1c-0.3,0-0.6,0-0.8,0c-0.1,0-0.1,0-0.1-0.1C43.4,24.9,43.4,24,43.4,23.3L43.4,23.3z"/>
		<path class="st0" d="M35.7,15.4c0-0.1,0.1-0.1,0.1-0.1C35.7,15.3,35.7,15.4,35.7,15.4z"/>
		<path class="st0" d="M35.2,15.9c0-0.1,0.1-0.1,0.1-0.1C35.2,15.8,35.2,15.9,35.2,15.9z"/>
		<path class="st0" d="M36.6,23.9L36.6,23.9C36.5,24,36.5,23.9,36.6,23.9C36.5,23.9,36.5,23.9,36.6,23.9z"/>
		<path class="st0" d="M39.3,3.4C39.3,3.5,39.2,3.4,39.3,3.4C39.3,3.4,39.3,3.4,39.3,3.4z"/>
		<path class="st0" d="M20.7,5.7C20.7,5.7,20.7,5.7,20.7,5.7C20.7,5.8,20.7,5.8,20.7,5.7z"/>
		<path class="st0" d="M30.7,16.2C30.8,16.2,30.8,16.2,30.7,16.2C30.8,16.2,30.7,16.2,30.7,16.2z"/>
		<path class="st0" d="M31.2,16.5C31.2,16.5,31.2,16.6,31.2,16.5C31.2,16.6,31.1,16.6,31.2,16.5z"/>
		<path class="st0" d="M32,17.2C32,17.2,32,17.2,32,17.2C32,17.2,32,17.2,32,17.2z"/>
		<path class="st0" d="M36.6,20.7C36.6,20.8,36.6,20.8,36.6,20.7C36.5,20.7,36.6,20.7,36.6,20.7z"/>
	</g>
</g>
</svg>
