<?xml version="1.0" encoding="UTF-8"?>
<svg xmlns="http://www.w3.org/2000/svg" version="1.1" viewBox="0 0 64.9 30.1">
  <defs>
    <style>
      .cls-1 {
        fill: #fff;
      }
    </style>
  </defs>
  <!-- Generator: Adobe Illustrator 28.7.1, SVG Export Plug-In . SVG Version: 1.2.0 Build 142)  -->
  <g>
    <g id="_x3F__x3F__x3F__x3F__1">
      <path class="cls-1" d="M10,9.7s0,0,0,0c.2-.1.5-.2.8-.2.1,0,.2,0,.3,0,.1,0,.3,0,.4,0,0-.1,0-.2-.1-.3,0-.1,0-.3,0-.4,0,0,0-.2,0-.3,0-.2-.1-.3-.3-.3-.3,0-.6,0-.9.2-.2,0-.4.1-.6.2-.2,0-.4.3-.5.5,0,0,0,.2-.1.3,0,.1,0,.3,0,.4,0,0,0,0,0,.1,0,.1,0,.2,0,.3,0,0-.1.2-.2.3,0,0,.1.1.2.2,0,0,.2,0,.2-.1,0,0,.2-.2.3-.2.2,0,.4-.1.6,0,.2,0,.3.1.4.3.2.1.3.3.4.5.1.1.1.3.1.5,0,0,0,.2,0,.3,0,.1,0,.2,0,.3-.2,0-.3.3-.4.5,0,.1,0,.2,0,.4,0,.4,0,.9,0,1.3,0,.6.2,1.1.3,1.6,0,0,0,.1,0,.2,0,0,0,0,0,0-.3-.3-.7-.5-1-.8,0,0,0,0,0,0-.3-.3-.6-.6-.8-.9-.3-.3-.5-.7-.7-1.2-.2-.7-.4-1.5-.3-2.2,0-.3,0-.7.2-1,.1-.4.3-.8.6-1.2.2-.2.4-.4.7-.5.3-.1.6-.2.8-.3.2,0,.5,0,.8-.1,0,0,.2,0,.3,0,0-.2.1-.5.2-.7,0-.2.2-.5.3-.7.2-.2.3-.5.5-.7,0,0,.1-.2.2-.3.4-.3.8-.6,1.2-.7.3,0,.5-.1.8-.2.1,0,.2,0,.3,0,.3,0,.7,0,1,0,.4,0,.7,0,1.1,0,.3,0,.6.1.9.3,0,0,.1,0,.2.1.1.2.2.4.3.6,0,0,0,0,0,.2.1,0,.2,0,.3-.1.3-.2.6-.3.9-.3.2,0,.4,0,.7-.1,0,0,.2,0,.3,0,.4,0,.8.2,1.2.3,0,0,.2,0,.3.2.2.3.5.5.7.8,0,.1.2.3.2.5,0,.2.1.3.2.5.2.4.3.7.4,1.1,0,.3,0,.6,0,.9,0,.4-.1.7-.3,1.1-.1.4-.4.7-.7.8,0,0-.1,0-.2,0-.3,0-.5,0-.8,0-.2,0-.5,0-.7,0-.3,0-.5,0-.6.3-.2.4-.3.7-.4,1.1-.2.7-.3,1.5-.4,2.2,0,.4,0,.7,0,1.1,0,.2,0,.3,0,.5,0,0,0,0-.1,0-.4-.3-.7-.6-1.1-.9,0,0,0,0,0,0-.6-.6-1.1-1.2-1.3-2-.2-.4-.3-.9-.4-1.3-.1-.4-.2-.7-.2-1.1,0,0,0-.1,0-.2,0-.2,0-.4-.1-.6,0-.2-.2-.3-.3-.5-.1,0-.2,0-.3.1-.2.1-.5.3-.7.4-.1,0-.2.1-.2.3,0,.2-.2.3-.2.5,0,0,0,.2,0,.3,0,.5-.1,1-.2,1.5,0,.3-.1.6-.2.9,0,.3,0,.7,0,1,0,.1,0,.3,0,.4,0,0,0,0,0,.1-.1,0-.2-.2-.3-.3-.3-.3-.7-.6-1-.9-.5-.5-.9-1-1.2-1.6,0,0,0,0,0-.1,0-.1-.1-.3-.3-.3,0,0,0,0,0,0,0,0,.1,0,.2,0,.1,0,.2,0,.1-.2,0,0,0-.1,0-.2,0-.3,0-.7-.1-1,0-.2,0-.5-.3-.6,0,0-.1-.1-.2-.2,0,0-.1,0-.2-.1-.3,0-.6-.1-.9,0,0,0,0,0,0,0ZM16.7,10.1c0-.1.2-.2.2-.3,0-.1,0-.3.2-.4.2-.3.6-.6,1-.8.5-.2.9-.3,1.4-.3.2,0,.4,0,.5.1.3.1.5.4.8.7.2.3.2.6.2,1,0,0,0,.1,0,.2,0,0,0,.2,0,.3,0,.2,0,.3.3.3.2,0,.4,0,.6,0,.2,0,.3,0,.4-.2,0,0,.1-.2.1-.3,0-.2,0-.3.1-.5,0-.2,0-.5-.1-.7,0-.1-.2-.3-.2-.4,0,0,0,0,0-.1,0,0,0,0,0,0,0,0,.1,0,.2,0,0,0,.2.1.3.2.2.2.4.5.4.9,0,.2,0,.3,0,.5,0,0,.2,0,.2,0,.1-.2.2-.4.2-.6,0,0,0-.1,0-.2,0-.5-.1-1-.3-1.5,0-.2-.2-.4-.3-.6,0,0,0-.1,0-.2,0-.4-.3-.7-.7-.9-.2,0-.3-.2-.5-.3-.2,0-.4-.2-.6-.2-.3,0-.6,0-.9,0,0,0,0,0-.1,0-.4.1-.7.2-1.1.4-.2,0-.4.2-.6.5,0,0,0,0,0,0,.2,0,.5,0,.7,0,0,0,.2,0,.3,0,.2.1.5.3.7.4,0,0,0,0,0,0-.1,0-.3,0-.4,0-.2,0-.4,0-.6,0-.3,0-.5,0-.8,0-.5,0-.9.2-1.3.5,0,0,0,0,0,0-.2.2-.3.4-.4.6,0,.3-.1.5-.2.8,0,.2,0,.5.2.7,0,0,.1.1.2.2ZM17.3,6.9s0,0,0-.1c0-.1.1-.3.2-.4.1-.2.3-.4.5-.4,0,0,0,0,0,0,0-.1,0-.3-.2-.4-.2-.2-.4-.4-.7-.5-.4-.1-.7-.2-1.1-.2-.5,0-1,0-1.6,0,0,0-.2,0-.3,0-.3,0-.6.2-.9.4-.3.3-.7.6-1,.9-.1.1-.2.3-.3.4,0,.3-.1.5-.2.8,0,.3-.2.6-.2.9,0,.2,0,.4.1.6.1-.1.2-.3.3-.4.2-.4.5-.6.8-.9,0,0,.1,0,.2-.1.2,0,.4-.1.5-.1.4,0,.8,0,1.2.2.1,0,.3.2.3.3.2.3.3.6.3,1,0,.1,0,.3,0,.4,0,0,0,.1,0,.1,0,0,0,0,0,0,.2-.1.3-.3.3-.5,0-.2,0-.4.2-.6,0,0,0,0,0,0,0-.3.2-.5.3-.7.1-.1.1-.3,0-.5,0,0,0,0,0-.1-.1-.2-.2-.5-.5-.6-.2,0-.3-.2-.5-.3-.2,0-.4-.1-.6,0,0,0,0,0-.1,0,0,0,0,0,0,0,0,0,0,0,.1,0,.2-.1.4-.1.6-.2.2,0,.4,0,.5,0,0,0,.2,0,.3,0,.3.1.6.3.7.7,0,.1.1.2.3.3Z"/>
      <path class="cls-1" d="M47.5,6c0,0,.1-.2.1-.3,0,0,0,0,0-.1.1-.4.5-.5.8-.6.4,0,.8,0,1.2,0,.3,0,.7,0,1.1,0,.1,0,.3,0,.4,0,.2,0,.4.1.6.2.4.1.8.4,1.1.7,0,0,.1.1.2.2.2.3.3.5.5.8,0,.1.2.3.2.5,0,.2.1.5.2.7.2,0,.3,0,.5,0,.2,0,.4,0,.6.2.2,0,.3.1.5.2.5.2.8.6,1,1.1.4.8.5,1.6.3,2.4,0,.4-.2.8-.3,1.2-.2.5-.4.8-.8,1.2,0,0-.2.2-.3.3-.3.3-.6.6-1,.9-.2.1-.3.2-.5.3,0,0,0,0,0-.1,0-.2.1-.4.2-.6.1-.3.1-.6.2-1,0-.4,0-.9,0-1.3,0-.2,0-.4-.2-.5,0,0,0-.1-.1-.2,0,0,0-.2,0-.3,0,0,0-.2,0-.2,0-.1,0-.2,0-.3.2-.2.4-.5.6-.6.1,0,.2,0,.4,0,0,0,.2,0,.3,0,.1,0,.2.1.3.2,0,0,.1.1.2.2,0,0,.1-.1.2-.2,0,0-.1-.2-.2-.3,0,0,0-.1,0-.2,0,0,0-.1,0-.2,0-.2,0-.3,0-.5,0,0,0-.1,0-.2,0-.3-.2-.4-.4-.6-.3-.2-.7-.3-1-.3-.1,0-.2,0-.3,0-.2,0-.3,0-.3.2,0,0,0,.1,0,.2,0,.2,0,.4-.1.6,0,0,0,.1,0,.2.1,0,.3,0,.4,0,.1,0,.3,0,.4,0,.2,0,.4.1.6.2,0,0,0,0,0,0,0,0,0,0,0,0-.2,0-.4,0-.7,0-.2,0-.4.1-.5.3-.1.2-.2.3-.2.5,0,.4,0,.8-.2,1.2,0,.1,0,.2.2.2,0,0,0,0,0,0,0,0,0,0,0,0-.1,0-.2.1-.2.2-.2.3-.4.6-.6.9-.4.4-.7.8-1.1,1.2-.2.2-.4.3-.6.4,0,0,0-.2,0-.2,0,0,0,0,0-.1,0-.2.1-.5,0-.7,0-.6,0-1.3-.1-1.9,0-.2,0-.5,0-.7,0,0,0-.2,0-.2,0-.2-.1-.3-.2-.5,0,0,0-.2-.2-.2-.3-.2-.6-.4-.9-.5,0,0,0,0,0,0-.1.2-.2.3-.3.5,0,.1-.1.3,0,.5,0,.3,0,.6,0,.9-.1.4-.3.9-.5,1.3-.1.3-.3.7-.4,1-.1.2-.2.3-.4.5-.1.1-.2.3-.4.4-.4.3-.8.7-1.2,1,0,0,0,0-.1,0,0,0,0-.1,0-.2,0-.2,0-.4,0-.6,0-.3,0-.5,0-.8,0-.7-.1-1.4-.3-2.1,0-.3-.2-.6-.3-.9,0-.2-.2-.3-.4-.3-.2,0-.3,0-.5,0-.2,0-.3,0-.5,0-.2,0-.3,0-.5,0,0,0,0,0-.1,0-.3-.1-.4-.3-.6-.6-.1-.3-.2-.5-.2-.8,0-.3,0-.5,0-.8,0-.3,0-.6.2-.9,0-.2.2-.4.3-.7,0-.1,0-.2.1-.3,0-.2.1-.3.2-.4.2-.3.4-.5.7-.8,0,0,0,0,.1,0,.3,0,.6-.2.9-.2,0,0,.1,0,.2,0,.2,0,.5,0,.7,0,.2,0,.4,0,.5.1.2,0,.3.1.5.2.1,0,.2.1.3.2ZM44.4,8.6s0,0,0,0c0,.1-.2.3-.2.4,0,0-.1.2-.1.3,0,.4,0,.8.2,1.2,0,.1.2.2.4.2.1,0,.3,0,.4,0,.3,0,.4,0,.4-.4,0-.2,0-.4,0-.7,0-.2,0-.3.2-.5,0-.1.2-.2.3-.3.4-.4.8-.5,1.3-.4.4,0,.7.2,1,.3,0,0,.1,0,.2.1.1.1.3.3.4.4.2.2.3.4.3.6,0,.1,0,.2.2.3,0,0,0-.1.1-.2.2-.2.2-.4.2-.6,0-.3,0-.5-.1-.7,0-.2-.2-.4-.3-.6-.1-.1-.2-.2-.3-.3,0,0-.2-.1-.3-.2-.3-.1-.6-.2-.9-.2-.3,0-.7,0-1,0,0,0-.2,0-.2,0,0,0,0,0,0,0,.2-.1.4-.2.6-.3,0,0,.2,0,.2,0,.2,0,.4,0,.6,0,0,0,.1,0,.2,0,0-.1-.1-.3-.3-.4-.1,0-.2-.1-.3-.2-.3-.1-.6-.2-.8-.3,0,0-.2,0-.2,0-.3,0-.6,0-.8,0,0,0-.2,0-.2,0-.2,0-.5.2-.7.3-.3.1-.5.4-.6.7,0,.2-.2.5-.3.7-.1.3-.3.6-.3,1,0,.3,0,.7,0,1,0,.1,0,.2.2.3,0,0,.1,0,.2,0,0-.1,0-.3,0-.4,0-.1,0-.3,0-.4.1-.3.3-.5.6-.7,0,0,0,0,.1,0ZM53.5,9.3c.1-.2.2-.4.1-.6,0-.3-.1-.6-.2-.9,0-.2-.1-.4-.1-.6,0-.2-.1-.4-.3-.6-.2-.2-.4-.4-.6-.6-.3-.3-.6-.5-1-.5-.3,0-.7-.1-1-.1-.4,0-.9,0-1.3,0-.3,0-.6.2-.9.4-.1.1-.2.3-.2.4,0,0,0,0,0,0,.2,0,.4.3.5.5,0,0,0,.2.1.3,0,0,0,.1,0,.2.2,0,.3-.1.3-.3,0,0,0,0,0,0,0-.3.3-.4.5-.5.1,0,.2,0,.3-.1.2,0,.4,0,.6,0,.2,0,.3,0,.5.2,0,0,0,0,.1,0-.1,0-.2,0-.4,0-.3,0-.5.2-.8.3,0,0-.2.2-.2.2,0,.1-.1.2-.2.4,0,.2,0,.3,0,.5,0,.1.1.2.2.3,0,.3.2.6.2.9,0,.2,0,.3.2.4,0,0,0,0,0,0,0,0,.1,0,.1-.2,0,0,0-.2,0-.3,0-.3,0-.5.2-.8.1-.2.3-.4.5-.5,0,0,.1,0,.2,0,.3,0,.6,0,.9,0,.2,0,.5.1.6.3.3.3.5.5.7.9,0,.1.2.2.2.4Z"/>
      <path class="cls-1" d="M45.9,16.5c.6-.3,1.1-.7,1.6-1.2,0,0,0,.1,0,.1,0,.5,0,1.1,0,1.6,0,.4,0,.8,0,1.2,0,0,0,.2-.1.2-.2.2-.4.4-.6.6-.3.4-.3.9-.2,1.4,0,0,0,0,0,0,0,0,0,0,0,0,0,0,0,0-.1,0-.3.2-.6.3-1,.3-.3,0-.6,0-1,0-1,0-1.9-.2-2.8-.6-.5-.2-1-.6-1.3-1.1-.3-.4-.4-.8-.4-1.2,0-.8,0-1.5-.1-2.3,0-.9,0-1.7,0-2.6,0-.3,0-.6,0-.8.1-.6.5-1,1-1.3.3-.2.7-.3,1.1-.3.2,0,.5,0,.7,0,0,0,.2,0,.2.1.1.2.3.3.5.4,0,0,0,0,.1,0,.3,0,.7,0,1,0,.1,0,.3,0,.4,0,.2,0,.2,0,.3.2.2.4.3.8.3,1.3,0,.4.1.9.2,1.3,0,.5,0,1,0,1.5,0,.3,0,.5,0,.8,0,0,0,0,0,.1ZM44.3,16.1s0,0,0,0c0-.9,0-1.8-.1-2.7,0-.2,0-.4,0-.6,0-.3-.2-.4-.5-.4-.3,0-.4,0-.4.3,0,.3,0,.5,0,.8,0,.6,0,1.3,0,1.9,0,.9,0,1.8,0,2.7,0,.3,0,.5,0,.8,0,.3.2.4.4.4,0,0,0,0,0,0,.3,0,.4,0,.4-.3,0-.3,0-.6,0-.9,0-.7,0-1.3,0-2Z"/>
      <path class="cls-1" d="M25,10.6c.3,0,.5,0,.7,0,.6,0,1.2,0,1.8-.1.6,0,1.3,0,1.9,0,.5,0,.9,0,1.4.3.6.2,1,.7,1.1,1.3,0,.3,0,.5,0,.8,0,.5,0,1.1,0,1.6,0,.2,0,.4,0,.6,0,.3-.3.6-.6.8-.3.2-.6.3-.9.4-.4,0-.9.1-1.3.1-.3,0-.5,0-.8,0,0,1.3,0,2.6,0,3.9-1.1,0-2.2.1-3.3.2,0-3.3.2-6.5.2-9.8ZM28.2,14.5c.2,0,.5,0,.6,0,.2,0,.3-.2.4-.4,0,0,0-.2,0-.3,0-.4,0-.7,0-1.1,0-.1,0-.3,0-.4,0,0,0-.2-.2-.2-.2,0-.5,0-.7,0,0,.8,0,1.6,0,2.5Z"/>
      <path class="cls-1" d="M8.8,14.5c.2.2.4.5.7.7.1.2.3.3.5.4.3.2.6.5.9.7.1,0,.3.2.4.3.1,0,.2-.1.1-.2,0-.3-.2-.7-.3-1-.1-.3-.2-.7-.2-1,0-.2,0-.4,0-.7,0-.3,0-.6,0-.8,0,0,0-.1.1-.2.2,0,.4,0,.5-.1.2.3.3.5.5.8.2.3.4.5.6.7-.2,0-.5,0-.7,0,0,.7,0,1.4-.1,2.2.3,0,.5-.1.8-.3,0,0,.1-.1.1-.2,0-.2,0-.3.1-.5,0-.2,0-.4,0-.7,0-.1,0-.2,0-.3,0,0,0,0,0,0,.5.4.9.8,1.4,1.2,0,0,.2.1.2.1,0,0,0,0,0,0,0-.1,0-.2,0-.3,0-.2,0-.5-.2-.7,0-.4,0-.8,0-1.1,0-.3.1-.6.2-.9,0-.1,0-.3,0-.4,0,0,0,0,0,0,.5.2.9.6,1,1.1.1.7,0,1.5-.1,2.2-.1.3-.3.6-.6.7-.3.1-.6.3-.9.4,0,0,0,0,0,0,.1,0,.2,0,.4,0,.2,0,.4,0,.6.1.3,0,.5.3.6.6,0,0,0,.1,0,.2,0,.3-.1.6-.2.9,0,.4-.1.9-.1,1.3,0,.1,0,.3,0,.4,0,.3.1.5,0,.8,0,.1,0,.2,0,.3-1,.2-2,.4-3,.6,0,0,0,0,0-.1,0-.8.1-1.7.2-2.5,0-.4,0-.8,0-1.2,0-.1,0-.2,0-.3,0-.1,0-.2-.2-.2-.2,0-.4,0-.6,0,0,0,0,0,0,.1,0,.2,0,.3,0,.5,0,.6,0,1.3-.1,1.9,0,.6,0,1.2-.1,1.8,0,.1,0,.1-.1.1-1,.2-2,.5-3.1.7,0,0,0,0,0,0,0-.1,0-.2,0-.4,0-1,.2-2,.2-3,0-.8.1-1.6.2-2.5,0-.9.1-1.7.2-2.6,0,0,0-.1,0-.2h0Z"/>
      <path class="cls-1" d="M56.3,23.1c-1-.2-2-.5-3-.7,0,0,0,0,0-.1,0-.5,0-.9,0-1.4,0-.7,0-1.3-.1-2,0-.2,0-.4-.1-.6,0-.2-.2-.3-.3-.4-.2,0-.4-.1-.6-.2,0,1.5.2,3,.3,4.4-1-.2-1.9-.4-2.9-.5.4-.3.5-.7.7-1.1,0-.2.1-.5.2-.7,0-.1,0-.3,0-.4,0-.6-.1-1.1-.2-1.6-.1-.5-.2-1.1-.4-1.6,0-.2-.2-.3-.3-.4-.1.1-.2.2-.3.3,0,.3-.2.5-.3.8,0,0,0,0,0,.1,0,0,0,0,0,0,0-.1,0-.3,0-.4,0-.8,0-1.7-.1-2.5,0-.1,0-.2,0-.4.2-.6.5-1.2.7-1.8,0,0,0,0,0,0,.5,0,.9.2,1.4.3,0,.2,0,.3,0,.5,0,.2,0,.4,0,.6,0,.3,0,.6,0,.9,0,.2,0,.3,0,.5-.1.3,0,.5,0,.8.4,0,.6-.3.9-.5,0,.5,0,.9,0,1.4.2,0,.5.1.7,0,.1,0,.2,0,.2-.2,0-.2,0-.3,0-.5,0-.2,0-.4,0-.6,0,0,0-.2,0-.3,0-.2-.1-.4-.3-.5.4-.4.8-.9,1.1-1.4.3,0,.5.2.7.3,0,.2,0,.4,0,.6,0,.5,0,.9-.2,1.3,0,.3-.2.5-.3.8,0,.1,0,.2-.1.3,0,0,.1,0,.2.1.3,0,.4-.3.7-.4.2-.2.4-.3.6-.5.2-.2.4-.3.6-.5,0,0,0,.2,0,.3,0,.5.1,1,0,1.5,0,.1,0,.3,0,.4,0,.2-.2.3-.4.3-.3,0-.6,0-.8,0,0,0-.1,0-.2,0,0,0,0,0,.1,0,.3.2.6.3.8.5.4.3.7.7.8,1.3,0,.7.1,1.4.2,2.2,0,.5,0,.9.1,1.4,0,0,0,0,0,.1Z"/>
      <path class="cls-1" d="M37.6,20.2c-1.1,0-2.2,0-3.3-.1,0-2.6,0-5.2,0-7.8-.6,0-1.3,0-1.9,0v-2c.4,0,6.1.1,7,.3,0,.6,0,1.3,0,2-.6,0-1.3,0-1.9-.1,0,2.6,0,5.2.1,7.8Z"/>
      <path class="cls-1" d="M24.3,20.4c-1.1.1-2.2.2-3.4.3,0-.6,0-1.2-.1-1.7-.4,0-.8,0-1.2.1,0,.6-.2,1.2-.3,1.8-.2,0-.4,0-.6,0,0,0,0,0,0,0,.2-.3.2-.7.1-1,0-.2-.1-.5-.3-.7-.2-.2-.3-.4-.5-.5-.3-.2-.5-.4-.8-.6,0,0-.1-.1-.2-.2-.1-.2-.2-.4-.3-.5,0,0,0-.1,0-.2.2-.8.3-1.6.5-2.4,0,0,0,0,0,0,.1.1.2.3.3.4,0,0,0,0,.1.1.4.3.7.7,1.1,1,.2.2.4.3.6.4,0,0,.1,0,.2.1,0,.1,0,.3,0,.5.4,0,.7,0,1.1-.1-.1-1.3-.2-2.6-.3-3.9,0,0,0,0,0,0-.2.9-.3,1.8-.5,2.6,0-.2,0-.4,0-.6,0-1,.2-1.9.5-2.9,0-.3.2-.5.3-.8,0-.1.1-.2.3-.2.1,0,.3,0,.4,0,.4,0,.8,0,1.2,0,0,0,.2,0,.3,0,.5,3,1,5.9,1.5,8.9Z"/>
      <path class="cls-1" d="M16.2,16.4c0,.1,0,.3.1.4.1.4.3.8.5,1.2.1.2.3.4.4.5.2.2.5.4.7.6.2.2.4.3.5.5.2.3.3.7.2,1.1,0,.2-.2.4-.3.6-.1.1-.2.2-.4.3-.3.1-.6.2-.9.3-.2,0-.3,0-.5,0-.3,0-.5-.3-.6-.5-.1-.3-.2-.6-.3-.9,0-.3,0-.6,0-.9,0-.4,0-.7.2-1.1,0-.4.2-.8.3-1.2,0-.3.2-.5.2-.8,0,0,0,0,0,0Z"/>
      <path class="cls-1" d="M49.4,16.2c0,.2.1.4.2.6,0,.4.2.7.2,1.1,0,.2.1.5.1.7,0,.4,0,.7,0,1.1,0,0,0,.2,0,.2,0,.3-.2.7-.3,1,0,0,0,.1,0,.2,0,.2-.2.3-.4.4-.3.1-.6,0-.9,0-.2,0-.4-.1-.6-.2-.2,0-.4-.2-.5-.4-.3-.4-.3-.7-.2-1.2,0-.2.1-.4.2-.5.2-.2.4-.4.6-.6.2-.2.4-.3.6-.5,0,0,.1-.2.2-.2.2-.4.4-.8.5-1.2,0-.1,0-.3.1-.4,0,0,0,0,0,0,0,0,0,0,0,0Z"/>
      <path class="cls-1" d="M42.2,22.1c0,.3,0,.6,0,.9,0,0,0,0,0,0,0-.3.1-.6.2-.9.3,0,.5,0,.8,0,0,.8-.1,1.5-.2,2.3,0,0-.2,0-.3,0,0,0-.2,0-.3,0,0-.4,0-.9.1-1.3,0,0,0,0,0,0,0,.4-.2.8-.3,1.3-.1,0-.2,0-.4,0,0-.4,0-.8,0-1.3,0,.2,0,.4,0,.6,0,.2,0,.4,0,.6-.2,0-.3,0-.5,0,0-.8.1-1.5.2-2.3.3,0,.5,0,.8,0Z"/>
      <path class="cls-1" d="M24.3,21.9c0,.8,0,1.5.1,2.3-.2,0-.4,0-.6,0,0-.3,0-.6,0-1h-.2c0,.3,0,.6,0,1-.2,0-.4,0-.6,0,0-.8-.1-1.5-.2-2.3.2,0,.4,0,.6,0,0,.3,0,.5,0,.8,0,0,0,0,.2,0,0-.1,0-.3,0-.4,0-.1,0-.3,0-.4.2,0,.4,0,.6,0Z"/>
      <path class="cls-1" d="M33.2,24v-2.3s0,0,0,0c.2,0,.5,0,.7,0,0,0,.2,0,.3,0,.2,0,.3.2.3.4,0,.1,0,.2,0,.3,0,.3,0,.7,0,1,0,0,0,.1,0,.2,0,.2-.1.3-.3.3,0,0,0,0-.1,0-.3,0-.6,0-.9,0ZM33.8,22.1c0,.5,0,1,0,1.5.2,0,.2,0,.2-.2,0-.4,0-.8,0-1.2,0-.1,0-.1-.2-.1Z"/>
      <path class="cls-1" d="M45,24.7c-.2,0-.3,0-.5,0,0-.8.2-1.5.2-2.3,0,0,.1,0,.2,0,0,0,.1,0,.2,0,.1,0,.1,0,.1.1,0,.3.1.5.2.8,0-.3,0-.6.1-.9.2,0,.3,0,.5,0,0,0-.2,2.1-.2,2.3-.2,0-.3,0-.5,0,0-.3-.1-.6-.2-.9,0,0,0,0,0,0,0,.3,0,.6-.1.9Z"/>
      <path class="cls-1" d="M31.6,21.7h.5c0,.3.2.6.3.9,0,0,0,0,0,0v-.9c.2,0,.3,0,.5,0v2.3h-.5c0-.3-.2-.6-.3-.9,0,0,0,0,0,0v.9h-.5v-2.3Z"/>
      <path class="cls-1" d="M20.7,23.6c0,.3,0,.6,0,.9-.2,0-.3,0-.5,0,0-.8-.2-1.5-.2-2.3.2,0,.3,0,.5,0,.1.3.3.6.4.9,0,0,0,0,0,0,0-.3,0-.6,0-.9.2,0,.3,0,.5,0,0,.8.1,1.5.2,2.3-.2,0-.3,0-.5,0-.1-.3-.2-.6-.4-.9h0Z"/>
      <path class="cls-1" d="M30.8,21.7h.6s0,0,0,.1c0,.5,0,1,0,1.5,0,0,0,.2,0,.2,0,.2-.1.4-.3.4-.2,0-.5,0-.7,0-.2,0-.2-.2-.3-.4,0-.1,0-.2,0-.3,0-.5,0-1,0-1.4,0,0,0,0,0-.1h.6s0,0,0,.1c0,.5,0,1,0,1.5,0,0,0,.1,0,.2,0,0,0,0,0,0,0,0,0,0,0,0,0,0,0-.1,0-.2,0-.5,0-1,0-1.5,0,0,0,0,0-.2Z"/>
      <path class="cls-1" d="M37,22.9s0,0,.1,0c.1,0,.2.1.2.3,0,.3,0,.6,0,.9-.1,0-.4,0-.5,0,0-.2,0-.3,0-.5,0-.1,0-.3,0-.4,0-.1,0-.1-.2-.1,0,.3,0,.7,0,1h-.6c0-.8,0-1.5,0-2.3.2,0,.4,0,.7,0,0,0,.2,0,.3,0,.2,0,.3.2.3.3,0,.2,0,.3,0,.5,0,.1,0,.2-.2.2,0,0,0,0,0,0ZM36.6,22.6c.1,0,.1,0,.2-.1,0,0,0-.2,0-.2,0-.1,0-.1-.2-.1v.5Z"/>
      <path class="cls-1" d="M40,24.2c-.2,0-.4,0-.5,0,0,0,0,0,0,0v-.4h-.2c0,.1,0,.3,0,.4-.2,0-.4,0-.6,0,.1-.8.3-1.5.4-2.3.3,0,.6,0,.9,0,0,.8.1,1.5.2,2.3ZM39.4,22.6s0,0,0,0c0,.2,0,.5-.1.8h.2c0-.3,0-.5,0-.8Z"/>
      <path class="cls-1" d="M29.3,22.7h-.6s0,0,0-.1c0-.1,0-.3,0-.4,0,0,0,0,0,0,0,0,0,0,0,0,0,0,0,0,0,.1,0,.4,0,.8,0,1.2,0,0,0,0,0,.1,0,0,0,0,0,0,0,0,0,0,0,0,0,0,0-.1,0-.2,0,0,0-.2,0-.3.2,0,.4,0,.6,0,0,.2,0,.4,0,.6,0,.2-.2.3-.3.3-.2,0-.5,0-.7,0-.2,0-.3-.2-.3-.3,0,0,0-.2,0-.3,0-.4,0-.7,0-1.1,0-.4.2-.6.6-.6.1,0,.3,0,.4,0,.2,0,.3.2.3.4,0,.2,0,.4,0,.6Z"/>
      <path class="cls-1" d="M17.9,24c0,0,0,.2,0,.2,0,0,0,.1,0,.2,0,0,0,0,0,0,0,0,0,0,0,0,0-.1,0-.4-.2-.4-.1,0-.3-.1-.4-.2-.2,0-.3-.3-.3-.5,0,0,0-.2,0-.3,0-.2,0-.3.3-.4.2-.1.5-.1.7,0,.2,0,.3.1.3.3,0,.1,0,.2,0,.3-.2,0-.4,0-.6,0,0,0,0-.2,0-.2,0,0,0-.1,0-.1,0,0,0,0,0,.1,0,.1,0,.2.2.3.1,0,.2.1.3.2.2.1.4.3.4.6,0,.1,0,.2,0,.4,0,.1,0,.2-.1.3-.3.2-.6.2-.9.1-.1,0-.2-.1-.3-.3,0,0,0-.2,0-.2,0,0,0-.1,0-.2.2,0,.4,0,.5,0Z"/>
      <path class="cls-1" d="M25.7,24.2c-.3,0-.7,0-1,0,0-.8,0-1.5-.1-2.3.3,0,.7,0,1,0,0,.2,0,.3,0,.5-.1,0-.3,0-.4,0v.4h.4c0,.1,0,.3,0,.4-.1,0-.2,0-.4,0,0,.2,0,.3,0,.5h.4c0,.1,0,.3,0,.5Z"/>
      <path class="cls-1" d="M44.4,23.2c0,.2,0,.3,0,.4-.1,0-.2,0-.4,0,0,.2,0,.3,0,.5.1,0,.3,0,.4,0,0,.2,0,.3,0,.5-.3,0-.7,0-1,0,0-.8.1-1.5.2-2.3.3,0,.7,0,1,0,0,.2,0,.3,0,.5-.1,0-.3,0-.4,0,0,.1,0,.3,0,.4.1,0,.2,0,.4,0Z"/>
      <path class="cls-1" d="M35.8,21.7v.5h-.4c0,.1,0,.3,0,.4.1,0,.2,0,.4,0v.4h-.4v.5c.1,0,.3,0,.4,0v.5c-.3,0-.7,0-1,0,0-.8,0-1.5,0-2.3.3,0,.7,0,1,0Z"/>
      <path class="cls-1" d="M19.1,22.4c0,.3.1.5.2.8,0,0,0,0,0,0,0-.3,0-.5,0-.8.2,0,.4,0,.6,0,0,.1,0,.2,0,.3,0,.4-.1.7-.2,1.1,0,.1,0,.2,0,.4,0,.2,0,.4,0,.6-.2,0-.4,0-.5,0,0-.2,0-.3,0-.5,0-.2,0-.4-.2-.7-.1-.3-.3-.7-.4-1,0,0,0,0,0-.1.2,0,.4,0,.6,0Z"/>
      <path class="cls-1" d="M40.8,24.3c-.2,0-.4,0-.5,0,0,0,0-.1,0-.2,0-.2,0-.4,0-.5,0,0,0-.2,0-.3,0-.4-.2-.8-.3-1.2,0,0,0,0,0,0,.2,0,.4,0,.6,0,0,.3,0,.5,0,.8,0-.1,0-.3.1-.4,0-.1,0-.2.1-.4.2,0,.4,0,.6,0,0,0,0,0,0,.1-.1.4-.3.8-.4,1.2,0,.1,0,.2,0,.3,0,.2,0,.4,0,.5,0,0,0,0,0,.1Z"/>
      <path class="cls-1" d="M46.9,24.9c-.2,0-.4,0-.6,0,0-.6.1-1.2.2-1.8-.1,0-.2,0-.3,0,0-.2,0-.3,0-.5.4,0,.9.1,1.3.2,0,.2,0,.3,0,.5-.1,0-.2,0-.4,0,0,.6-.1,1.2-.2,1.8Z"/>
      <path class="cls-1" d="M26.7,24.1c-.2,0-.4,0-.6,0,0-.6,0-1.2,0-1.8-.1,0-.2,0-.4,0,0-.2,0-.3,0-.5.4,0,.9,0,1.3,0,0,.2,0,.3,0,.5-.1,0-.2,0-.4,0,0,.6,0,1.2,0,1.8Z"/>
      <path class="cls-1" d="M21.5,22.6c0-.2,0-.3,0-.5.4,0,.9,0,1.3-.1,0,.2,0,.3,0,.5-.1,0-.2,0-.3,0,0,.6,0,1.2.1,1.8-.2,0-.4,0-.6,0,0-.6-.1-1.2-.2-1.8-.1,0-.2,0-.4,0Z"/>
      <path class="cls-1" d="M37.5,24.1c0-.8,0-1.5,0-2.3.2,0,.4,0,.6,0,0,.6,0,1.2,0,1.8.1,0,.2,0,.4,0,0,.2,0,.3,0,.5-.3,0-.6,0-1,0Z"/>
      <path class="cls-1" d="M27.8,24.1h-.6c0-.7,0-1.5-.1-2.3.2,0,.4,0,.6,0,0,.8,0,1.5,0,2.3Z"/>
      <path class="cls-1" d="M57.5,16.6c-.7,0-1.2-.6-1.2-1.3,0-.7.6-1.3,1.2-1.2.7,0,1.2.6,1.2,1.3,0,.7-.6,1.3-1.2,1.3ZM57.5,16.4c.5,0,1.1-.4,1.1-1.1,0-.7-.6-1.1-1.1-1.1-.5,0-1.1.4-1.1,1.1,0,.7.5,1.1,1.1,1.1Z"/>
      <path class="cls-1" d="M57.8,15.3c.2.2.2.4.3.7h-.3c0,0,0-.1,0-.2,0,0,0,0,0-.1,0-.1-.1-.2-.3-.2v.5h-.3c0,0,0-1.2,0-1.4.2,0,.4,0,.6,0,.2,0,.3.1.3.3,0,.2,0,.3-.1.4,0,0,0,0,0,0ZM57.4,14.8v.4c.1,0,.2,0,.3,0,0,0,0-.1,0-.2,0-.1-.2,0-.3,0Z"/>
    </g>
  </g>
</svg>