<?xml version="1.0" encoding="UTF-8"?>
<svg id="Layer_1" xmlns="http://www.w3.org/2000/svg" version="1.1" viewBox="0 0 600 331.6">
  <!-- Generator: Adobe Illustrator 29.6.0, SVG Export Plug-In . SVG Version: 2.1.1 Build 207)  -->
  <defs>
    <style>
      .st0 {
        fill: #fff;
      }
    </style>
  </defs>
  <path class="st0" d="M361.9,172.1c-3.7,16.1-12.6,37.6-25.6,49.3-33.9,30.5-86.1,27.8-116.7-6.1-6-6.7-10.6-14-14.1-21.8-1.1-2.8-2.1-5.6-3-8.5-.7-2.5-1.8-7.9-2.2-15.4-.3-16.6,3.1-39.5,12.9-54,25.5-37.8,76.9-47.8,114.7-22.3,8.2,5.6,15.2,12.4,20.7,20-.5-.7-1-1.5-1.5-2.2.4.5.8,1,1.2,1.5,0,0,0-.2,0-.3,1.6,2.3,3.1,4.7,4.5,7.1-.1,0-.3-.2-.4-.3,1.6,2.7,3.1,5.4,4.4,8.2,0,0,0,0,0,0,.4.9.7,1.8,1.1,2.7,0,0,0,0,0,0,3.4,8.6,5.2,17.5,5.5,26.7,0,2.6-.1,8.1-1.6,15.5M367.9,158.3c0-.2,0-.4,0-.6,0-.5,0-1,0-1.5,0-.3-.1-.5-.3-.7-.8-6.8-2.7-13.6-5.5-20.2.6-1.5,1.1-3.1,1.4-4-1.1,0-2.3-.2-3.4-.6-.8-1.6-1.6-3.1-2.4-4.7,1-1.5,2.3-3.4,1.9-6.1-1.8,1-4,.6-5.7-.2-1.7-2.6-3.5-5.1-5.4-7.6.4-2,.2-5.2.2-6.7-1.6.6-3.6.8-5.2.6-4.9-6-10.8-11.4-17.5-15.9-14-9.4-29.9-14-45.6-14.2-.1,0-.3,0-.4,0-.2,0-.4,0-.6,0-15.2-.4-29.8,3.3-41.1,11-.7.4-1.4.8-2.1,1.2-4.3,2.4-5.5-1.9-5.5-1.9-2.4,2.6-1.2,5.3-3.9,6.8-2.4.9-3.3-1.5-8.6.4,2.4,8.5,2,7.9-2,11.8-2,2.3-3.8,4.8-5.6,7.4-1.2,1.8-2.3,3.6-3.4,5.5-.9.8-2.6.2-4,2.4-2.3,3.6-.7,5.7-1.1,8.2-6.4,17.4-7,28.8-6.7,39.4-.4.7-.8,1.3-1,1.7.4,0,.7.2,1.1.3,0,.4,0,.8,0,1.2,0,0,0,0,0,0,0,.7.2,3.1,1.1,7.4-.5.8-1,1.8-1.1,3.1.6-.1,1.2-.1,1.7,0,.2.8.4,1.7.6,2.7h0c0,.2.1.4.2.6.1.5.2.9.4,1.5,0,.3.2.5.4.7,1.1,3.1,2.6,6.1,4.2,9-.2.9-.4,1.7-.5,2.3.6,0,1.2,0,1.8,0,4,6.7,9.2,12.9,15,18.6.5.6,1,1.3,1.6,1.9,11.3,12.6,25.6,20.8,40.8,24.8.1,0,.2,0,.4.1.2,0,.4,0,.5.1,14.6,4.1,29.7,4,42.6-.7.8-.2,1.5-.5,2.3-.7,4.8-1.3,4.9,3.2,4.9,3.2,3-2,2.5-4.9,5.4-5.7,2.6-.3,2.8,2.3,8.5,1.7-.2-8.8,0-8.2,4.8-11,2.5-1.8,4.9-3.7,7.2-5.8,1.6-1.4,3.1-3,4.6-4.5,1-.6,2.5.4,4.5-1.4,3.1-2.9,2-5.3,3-7.7,11.4-16.8,14.4-28.5,16.7-39.7,0,0,0,0,0,0,.2-.9.9-5,.9-13.3h0Z"/>
  <polygon class="st0" points="193.6 211.4 241.3 211.4 241.3 198.3 208.4 198.3 208.4 118.3 193.6 118.3 193.6 211.4"/>
  <path class="st0" d="M103.3,164.7c0-18.7,13.8-35.1,34.1-35.1s33.9,17.1,33.9,35.4-13.5,35.1-33.7,35.1-34.2-15.9-34.2-35.2h0ZM88.6,165.5c0,25.7,20.5,47.7,48.6,47.7s48.9-21.5,48.9-48.3-21-48.3-48.8-48.3-48.7,19.5-48.7,48.8h0ZM26.1,183.9c.3,18,12.1,29.3,30.6,29.3s30.1-13.1,30.1-28.2-10.8-21-22.4-25.9c-15-5.5-21.9-7.8-21.9-16.9s6.5-13.1,14.1-13.1c10.7,0,13,8.1,14,13.1h14.6c-1.1-19.1-16.1-25.7-28.1-25.7s-29.4,9.4-29.3,26.8c0,17.5,16.2,22.9,23.5,25.3,12,4.4,20.8,6.8,20.8,17.1s-7.2,14.8-15.5,14.8-14.7-2.8-15.7-16.7h-14.7Z"/>
  <path class="st0" d="M509.5,118.3h-14v93.1h14.3l-.3-71,48.7,71h13.6v-93.1h-14.3l.3,70.8-48.3-70.8ZM469,211.4h14.8v-93.1h-14.8v93.1ZM398.4,211.4h14.8v-42.9l35.2,42.9h18.2l-39.9-46.7,36.2-46.4h-15.7l-34.1,44v-44h-14.8v93.1Z"/>
  <path class="st0" d="M329.4,183.9c.3,18,12.1,29.3,30.6,29.3s30.1-13.1,30.1-28.2-10.8-21-22.4-25.9c-15-5.5-21.9-7.8-21.9-16.9s6.5-13.1,14.1-13.1c10.7,0,13,8.1,14,13.1h14.6c-1.1-19.1-16.1-25.7-28.1-25.7s-29.4,9.4-29.3,26.8c0,17.5,16.2,22.9,23.5,25.3,12,4.4,20.8,6.8,20.8,17.1s-7.2,14.8-15.5,14.8-14.7-2.8-15.7-16.7h-14.7Z"/>
  <rect class="st0" x="230.1" y="159.2" width="11.1" height="11.1"/>
  <rect class="st0" x="317.2" y="159.2" width="11.1" height="11.1"/>
  <path class="st0" d="M283.6,128.1c10.2,0,20.4,2.4,20.4,15.3s-10.2,15.3-20.4,15.3h-16.9v-30.5h16.9ZM287.2,116.8h-33.4v94.8h12.9v-41.8h14.3l24.1,41.8h16.1l-26.9-43.3c14.3-1.6,23.3-13,23.3-25s-6.2-26.5-30.4-26.5"/>
</svg>