<?xml version="1.0" encoding="utf-8"?>
<!-- Generator: Adobe Illustrator 28.3.0, SVG Export Plug-In . SVG Version: 6.00 Build 0)  -->
<svg version="1.1" id="Layer_1" xmlns="http://www.w3.org/2000/svg" xmlns:xlink="http://www.w3.org/1999/xlink" x="0px" y="0px"
	 viewBox="0 0 396 130.6" style="enable-background:new 0 0 396 130.6;" xml:space="preserve">
<style type="text/css">
	.st0{fill:#FFFFFF;}
</style>
<g>
	<path class="st0" d="M390.8,77.1c-0.5,0.6-1,1.3-1.6,1.6c-1.1,0.5-2.3-0.1-2.8-1.2c-0.5-1-0.1-2.2,0.9-2.8c1-0.6,2.3-0.3,3,0.6
		c0.2,0.2,0.3,0.5,0.5,0.8C390.8,76.5,390.8,76.8,390.8,77.1z M389.3,77.9c0.1,0,0.3,0,0.4,0c0.7-1.1,0.7-2-0.1-2.6
		c-0.8-0.6-1.6-0.6-2.3,0.1c-0.7,0.6-0.8,1.7-0.2,2.5c0.6,0.7,1.4,0.8,2.2,0.3c-0.3-0.4-0.7-0.8-1.1-1.3c-0.1,0.4-0.2,0.7-0.3,1
		c-0.1,0-0.1,0-0.2,0c0-0.8,0-1.5,0-2.4c0.4,0,0.8,0,1.1,0c0.7,0.1,0.8,0.4,0.6,1.1C389.3,76.9,389.3,77.4,389.3,77.9z"/>
	<path class="st0" d="M287,48.9c0,1.7,0,3.2,0,4.9c6.3,0,12.5,0,18.8,0c0,3.2,0,6.3,0,9.6c-6.2,0-12.5,0-18.8,0c0,1.7,0,3.2,0,4.9
		c7.1,0,14.2,0,21.3,0c0,3.5,0,6.9,0,10.3c-11.3,0-22.5,0-33.8,0c0-13.3,0-26.6,0-40c11,0,22.1,0,33.2,0c0,3.4,0,6.7,0,10.3
		C300.9,48.9,294,48.9,287,48.9z"/>
	<path class="st0" d="M326.8,63.5c0,1.8,0,3.3,0,5c7.1,0,14.2,0,21.3,0c0,3.5,0,6.8,0,10.3c-11.2,0-22.4,0-33.8,0
		c0-13.3,0-26.6,0-40c11,0,22,0,33.1,0c0,3.4,0,6.8,0,10.3c-6.9,0-13.7,0-20.7,0c0,1.7,0,3.2,0,4.9c6.2,0,12.5,0,18.8,0
		c0,3.2,0,6.3,0,9.6C339.4,63.5,333.1,63.5,326.8,63.5z"/>
	<path class="st0" d="M247.8,78.7c0-9.9,0-19.8,0-29.7c-3.3,0-6.5,0-9.8,0c0,9.9,0,19.7,0,29.7c-5.1,0-10.1,0-15,0
		c2.8-0.9,5.5-1.9,7.8-3.8c5.5-4.4,6.7-13.7,2.4-19c-2.2-2.6-5.3-4-8.5-5c-2.9-0.9-5.9-1.6-8.9-2.5c-1.2-0.4-2.4-0.9-3.5-1.6
		c-0.9-0.5-1.4-1.4-1.3-2.5c0.2-1.1,0.8-1.8,1.8-2.1c1.9-0.7,3.9-0.7,5.8,0c1.8,0.7,2.8,2,2.7,4.2c4.1,0,8.2,0,12.3,0
		c0.5-3.2-1.2-7.2-5-11.2c2.7,1,5.1,1.9,7.6,2.8c0.7,0.2,1.5,0.4,2.2,0.4c10.4,0,20.9,0,31.3,0c0.5,0,0.9,0,1.5,0
		c0,3.5,0,6.8,0,10.3c-3.6,0-7.3,0-11.1,0c0,10,0,19.9,0,29.8C256.1,78.7,252.1,78.7,247.8,78.7z"/>
	<path class="st0" d="M366.5,38.7c0,9.9,0,19.7,0,29.7c6,0,11.8,0,17.7,0c0,3.5,0,6.9,0,10.3c-10,0-20,0-30.1,0c0-13.3,0-26.6,0-40
		C358.2,38.7,362.3,38.7,366.5,38.7z"/>
	<path class="st0" d="M238,34.6c-0.9-0.3-1.7-0.6-2.5-0.9c-13.4-5.1-26.8-10.2-40.2-15.3c-0.8-0.3-1.5-0.3-2.3,0
		c-13.5,5.3-27.1,10.6-40.6,15.9c-0.3,0.1-0.7,0.2-1.2,0.4c0-2.5,0-4.9,0-7.3c0-0.3,0.6-0.6,0.9-0.7c7.2-2.9,14.4-5.8,21.5-8.6
		c6.5-2.6,13-5.2,19.6-7.8c0.5-0.2,1.3-0.2,1.8,0c13.9,5.5,27.9,11.1,41.8,16.6c0.9,0.4,1.2,0.8,1.2,1.7
		C237.9,30.4,238,32.4,238,34.6z"/>
	<path class="st0" d="M209.5,78.7c-5.1,0-10.2,0-15.4,0c0-18.7,0-37.4,0-56.3c8.5,3.2,16.9,6.3,25.3,9.4c-3.5-0.3-7-0.1-10.4,0.9
		c-7.5,2.2-11.6,8.4-10.5,16.2c0.6,4.1,3.1,6.7,6.7,8.2c3.7,1.5,7.5,2.6,11.3,3.8c1.3,0.4,2.6,0.9,3.9,1.5c2.9,1.2,2.1,4.8,0.2,5.9
		c-2.2,1.3-6.5,1.3-8.6-0.2c-1.4-0.9-1.9-2.3-2-3.9c-0.1-0.9-0.4-1.3-1.4-1.3c-4,0.1-7.9,0-11.9,0C196.5,70.3,200.9,76.4,209.5,78.7
		z"/>
	<path class="st0" d="M46.8,35.3c1.5,0,2.7,0,4.1,0c0,0.5,0.1,0.9,0.1,1.3c0,8.8,0,17.6,0,26.3c0,1.9-0.2,3.8-0.7,5.7
		c-1.6,6.2-5.9,9.6-12.1,10.6c-3,0.5-6,0.5-9.1-0.2c-6.9-1.5-11.4-6.7-11.8-13.8c-0.2-4-0.1-8-0.1-12c0-5.5,0-11,0-16.5
		c0-0.5,0-0.9,0-1.5c1.5,0,2.8,0,4.2,0c0,0.5,0,1,0,1.4c0,8.5,0,17,0,25.5c0,1.9,0.3,3.8,0.7,5.7c1.1,4.4,4,7.2,8.5,7.7
		c2.4,0.3,5,0.3,7.4-0.1c4.9-0.8,7.9-4.5,8.5-9.9c0.2-1.4,0.2-2.9,0.2-4.3c0-8.2,0-16.4,0-24.7C46.8,36.2,46.8,35.8,46.8,35.3z"/>
	<path class="st0" d="M187.9,78.6c-1.1,0-2.2,0-3.4,0c0-1.8,0-3.6,0-5.8c-0.6,0.9-1,1.6-1.5,2.2c-5.3,6.7-16.6,5.9-21.2-1.4
		c-2.6-4.2-3.1-8.9-2.6-13.7c0.4-3.8,1.7-7.3,4.6-10c4.8-4.7,13.6-4.7,18.2,0c0.8,0.8,1.3,1.8,2.1,2.7c0-5.7,0-11.5,0-17.3
		c1.4,0,2.6,0,3.9,0C187.9,49.7,187.9,64.1,187.9,78.6z M184.1,63c0-3.1-0.5-6.1-2.2-8.8c-3.9-6.1-13.1-6.2-16.6-0.1
		c-3.3,5.7-3.3,11.7-0.1,17.5c3,5.4,10.8,6.3,15.2,2C183.3,70.7,184,67,184.1,63z"/>
	<path class="st0" d="M155.2,64.1c-8,0-15.9,0-24,0c0,0.7-0.1,1.3,0,1.9c0.5,3.8,2,7.2,5.5,9.2c5.5,3.1,12.1,0.4,14.1-5.7
		c0.3-0.9,0.6-1.2,1.6-1.1c0.8,0.1,1.7,0,2.5,0c0,4.2-3.8,9.1-8.1,10.5c-3.1,1-6.2,1.1-9.3,0.4c-3.7-0.9-6.6-3-8.2-6.4
		c-3.1-6.6-3.1-13.3,0.4-19.8c2.8-5.1,7.4-6.9,13-6.5c5.2,0.4,8.7,3.2,10.8,7.8C154.9,57.3,155.4,60.5,155.2,64.1z M151.3,60.7
		c0.3-5.9-4.5-11.2-9.9-11.1c-5.4,0.1-10.4,5.6-10,11.1C138,60.7,144.6,60.7,151.3,60.7z"/>
	<path class="st0" d="M61.7,52.4c1-1.2,1.7-2.2,2.6-3.1c4.2-4,11.7-3.3,15.1-1c2.8,1.9,3.8,4.7,3.9,7.8c0.2,6.8,0.1,13.6,0.2,20.5
		c0,0.7,0,1.3,0,2.1c-1.3,0-2.6,0-3.9,0c0-0.5,0-0.9,0-1.3c0-6.1,0-12.2,0-18.3c0-1.1-0.1-2.2-0.3-3.2c-0.7-4.2-3.8-6.5-8.1-6.1
		c-5.2,0.4-8.6,3.7-9.2,8.9c-0.2,1.9-0.2,3.8-0.2,5.7c0,4.3,0,8.6,0,12.9c0,0.4,0,0.9,0,1.4c-1.3,0-2.5,0-3.8,0
		c0-10.4,0-20.8,0-31.2c1.2,0,2.4,0,3.8,0C61.7,49,61.7,50.6,61.7,52.4z"/>
	<path class="st0" d="M98.6,50.6c0-1.1,0-2.1,0-3.3c1.7,0,3.5,0,5.3,0c0-1,0-1.8,0-2.6c0-1,0-2.1,0.2-3.1c0.7-4.4,2.8-6.3,7.2-6.3
		c1.1,0,2.1,0.1,3.4,0.2c0,0.6,0,1.1,0,1.7c0,0.5,0,1,0,1.6c-1.1-0.1-2-0.2-3-0.2c-2.4,0-3.5,1-3.8,3.4c-0.2,1.3-0.1,2.7-0.2,4.1
		c0,0.4,0,0.8,0,1.3c2.1,0,4.1,0,6.1,0c0,1.1,0,2.1,0,3.3c-2,0-4,0-6.1,0c0,9.4,0,18.7,0,28c-1.3,0-2.5,0-3.8,0c0-9.3,0-18.6,0-28
		C102.1,50.6,100.4,50.6,98.6,50.6z"/>
	<path class="st0" d="M347,93.1c1.4,0,2.6,0,3.9,0c0.3,0,0.8,0.4,1,0.7c2,2.9,4,5.8,6,8.7c0.2,0.3,0.4,0.6,0.8,1.1c0-3.7,0-7,0-10.4
		c1.3,0,2.4,0,3.7,0c0,5.1,0,10.1,0,15.3c-1.2,0-2.4,0.1-3.6,0c-0.3,0-0.7-0.4-1-0.7c-2-2.8-4-5.6-6-8.5c-0.2-0.3-0.5-0.7-1-0.9
		c0,3.4,0,6.7,0,10.1c-1.3,0-2.5,0-3.7,0C347,103.3,347,98.3,347,93.1z"/>
	<path class="st0" d="M92,108.4c-1.2,0-2.4,0.1-3.5,0c-0.4,0-0.9-0.4-1.1-0.7c-2.1-2.9-4.1-5.8-6.2-8.7c-0.2-0.3-0.4-0.5-0.8-1
		c0,3.6,0,6.9,0,10.3c-1.3,0-2.5,0-3.7,0c0-5,0-10,0-15.2c1.4,0,2.7,0,4.1,0c0.3,0,0.6,0.5,0.8,0.8c2.2,3.1,4.3,6.2,6.6,9.6
		c0-3.6,0-7,0-10.4c1.3,0,2.5,0,3.7,0C92,98.2,92,103.3,92,108.4z"/>
	<path class="st0" d="M384.2,98.1c-1.3,0-2.4,0-3.5,0c-0.3,0-0.8-0.3-0.9-0.6c-1.2-2.7-5.7-2.6-7.2,0.2c-1.1,2.1-1,4.2,0.1,6.2
		c0.9,1.5,2.9,2.2,4.8,1.8c1.6-0.3,2.5-1.3,2.9-3.2c-1.1,0-2.1,0-3.2,0c0-0.9,0-1.8,0-2.6c0.2,0,0.4-0.1,0.5-0.1c2.2,0,4.3,0,6.5,0
		c0,2.9,0,5.7,0,8.5c-1.8,0.3-1.8,0.3-2.4-1.5c-2.1,1.9-4.7,2.2-7.4,1.9c-3.7-0.3-5.9-2.3-6.6-6c-0.8-4.6,1.1-8.4,5-9.6
		c2.6-0.8,5.2-0.7,7.7,0.4C382.6,94.3,383.8,95.8,384.2,98.1z"/>
	<path class="st0" d="M305.8,92.6c1,0.1,2.1,0.2,3.1,0.4c3.9,1,6,4.4,5.4,8.9c-0.5,4.2-2.9,6.6-7.1,6.8c-1.6,0.1-3.2,0-4.7-0.3
		c-0.9-0.2-1.9-0.6-2.7-1.2c-3-2.3-3.1-5.5-2.6-8.8c0.5-3.1,2.6-4.9,5.6-5.5C303.9,92.7,304.8,92.7,305.8,92.6z M305.8,105.8
		c2.8,0,4.6-2,4.6-5.1c0-3.1-1.9-5.2-4.6-5.2c-2.8,0-4.6,2-4.6,5.1C301.2,103.8,303,105.8,305.8,105.8z"/>
	<path class="st0" d="M156.1,108.9c-0.8-0.1-1.7-0.1-2.5-0.2c-4.6-0.9-6.4-4-6.2-8.3c0.3-5.1,2.9-7.5,8.1-7.6c1.3,0,2.6,0,3.8,0.3
		c3.8,0.9,5.9,4.3,5.5,8.6C164.3,106.5,161.5,108.8,156.1,108.9z M156.1,105.8c2.8,0,4.6-2.1,4.6-5.1c0-3.1-1.9-5.1-4.6-5.1
		c-2.7,0-4.6,2.2-4.6,5.2C151.5,103.8,153.3,105.8,156.1,105.8z"/>
	<path class="st0" d="M62.6,108.9c-0.7-0.1-1.5-0.1-2.3-0.2c-3.6-0.7-5.6-2.7-6.1-6.4c-0.6-3.7,0.6-7,3.4-8.4
		c3.6-1.8,7.2-1.7,10.8,0.1c0.2,0.1,0.3,0.2,0.5,0.3c2.9,2.5,3.1,5.8,2.3,9.2c-0.7,3.1-3.1,4.6-6.1,5.1
		C64.2,108.8,63.5,108.8,62.6,108.9z M62.7,105.8c2.8,0,4.6-2,4.6-5.1c0-3.1-1.8-5.1-4.6-5.2c-2.7,0-4.6,2.1-4.6,5.1
		C58.1,103.8,60,105.8,62.7,105.8z"/>
	<path class="st0" d="M256.2,93.1c3.8,0,7.5-0.1,11.2,0c1.7,0,2.8,1.2,3.2,2.7c0.6,2.1,0,3.7-1.8,5c1.3,0.8,1.5,2.1,1.6,3.5
		c0.1,1.3,0.3,2.6,0.4,4c-1,0-2.2,0-3.4,0c-0.3,0-0.6-0.5-0.7-0.8c-0.1-0.9-0.1-1.8-0.2-2.7c-0.1-1.5-0.7-2.1-2.2-2.1
		c-1.4,0-2.9,0-4.4,0c0,1.9,0,3.7,0,5.6c-1.3,0-2.5,0-3.8,0C256.2,103.3,256.2,98.3,256.2,93.1z M260,99.8c1.7,0,3.4,0,5,0
		c1.1,0,1.7-0.8,1.7-1.9c0-1.1-0.6-1.8-1.6-1.8c-1.7-0.1-3.3,0-5.1,0C260,97.3,260,98.5,260,99.8z"/>
	<path class="st0" d="M284,92.6c0.8,0.1,1.6,0.1,2.4,0.3c3,0.5,5.2,2,5.9,5c0.8,3.3,0.7,6.5-2.1,9.1c-0.7,0.6-1.6,1.1-2.5,1.4
		c-2.6,0.8-5.3,0.8-7.9-0.1c-1.8-0.6-3.2-1.9-3.9-3.7c-1-2.5-1-5.1,0-7.6c1.2-2.8,3.6-3.9,6.4-4.2c0.5-0.1,1,0,1.6,0
		C284,92.7,284,92.6,284,92.6z M279.5,100.7c0,2.9,1.5,4.9,3.9,5.1c2.8,0.3,4.7-1.3,5.2-4.1c0.4-2.8-1-5.4-3.2-5.9
		C282,94.9,279.5,97.1,279.5,100.7z"/>
	<path class="st0" d="M224.6,93.2c3.4,0,6.8-0.1,10.1,0c2.3,0.1,4,1.5,4.8,3.8c0.8,2.4,0.8,4.9,0.1,7.3c-0.8,2.3-2.4,3.9-4.8,4
		c-3.3,0.2-6.7,0-10.1,0C224.6,103.3,224.6,98.3,224.6,93.2z M228.4,105.4c1.3,0,2.5,0,3.8,0c2.3,0,3.4-0.8,3.8-3.1
		c0.2-1.2,0.1-2.5-0.1-3.7c-0.2-1.5-1.4-2.4-2.8-2.5c-1.5-0.1-3,0-4.6,0C228.4,99.2,228.4,102.2,228.4,105.4z"/>
	<path class="st0" d="M31.6,97.6c-1.2,0-2.4,0-3.5,0c-0.2,0-0.6-0.4-0.7-0.6c-0.5-1.8-4.3-2-5.4-0.8c-0.8,0.8-0.4,2,0.7,2.3
		c1.7,0.4,3.4,0.6,5.1,1c0.5,0.1,0.9,0.2,1.4,0.3c1.7,0.5,2.9,1.5,3.1,3.4c0.2,2.2-0.5,4-2.3,4.8c-3.4,1.5-6.9,1.4-10.3,0
		c-1.7-0.7-2.4-2.2-2.3-4.4c1.2,0,2.4,0,3.7,0c0.2,0,0.5,0.2,0.6,0.4c0.3,1.5,1.5,1.9,2.8,2c0.9,0,1.8,0,2.6-0.3
		c0.5-0.2,1.1-1,1.1-1.6c0-0.5-0.7-1.2-1.2-1.3c-1.5-0.4-3.1-0.6-4.7-0.9c-0.6-0.1-1.2-0.2-1.7-0.4c-1.9-0.6-2.8-1.8-2.8-3.7
		c-0.1-2,0.7-3.5,2.5-4.2c3.1-1.2,6.2-1.1,9.2,0.1C30.9,94.2,31.8,95.7,31.6,97.6z"/>
	<path class="st0" d="M101.9,96c0,1.1,0,2.1,0,3.1c2.9,0,5.7,0,8.7,0c0,1,0,1.9,0,2.9c-2.8,0-5.7,0-8.6,0c0,1.2,0,2.2,0,3.4
		c3,0,6,0,9.1,0c0,1,0,2,0,3c-4.3,0-8.5,0-12.9,0c0-5,0-10.1,0-15.2c4.3,0,8.5,0,12.9,0c0,0.9,0,1.8,0,2.8C108.1,96,105,96,101.9,96
		z"/>
	<path class="st0" d="M206.1,93.2c4.4,0,8.6,0,12.9,0c0,0.9,0,1.8,0,2.8c-3,0-6,0-9.1,0c0,1.1,0,2,0,3.1c2.8,0,5.7,0,8.6,0
		c0,1,0,1.9,0,2.9c-2.9,0-5.7,0-8.6,0c0,1.2,0,2.2,0,3.4c3,0,6,0,9.1,0c0,1,0,2,0,3c-4.3,0-8.6,0-12.9,0
		C206.1,103.3,206.1,98.3,206.1,93.2z"/>
	<path class="st0" d="M143,102.5c-0.1,3-1.9,5.2-5,6c-2.1,0.5-4.3,0.5-6.4,0c-1.5-0.4-2.8-1.2-3.7-2.5c-1.9-2.6-1.8-8,0.1-10.6
		c0.9-1.3,2.2-2,3.8-2.4c2.3-0.5,4.5-0.5,6.7,0.2c2.7,0.8,4.2,2.7,4.4,5.7c-1.3,0-2.6,0-4,0c-0.1-0.1-0.1-0.3-0.2-0.5
		c-0.7-1.8-2-2.8-3.9-2.8c-1.9,0-3.5,1.1-3.9,2.9c-0.3,1.4-0.3,2.9-0.1,4.2c0.4,2,1.8,3,3.6,3.1c2.1,0.1,3.3-0.7,4.2-2.7
		c0.1-0.3,0.6-0.6,0.9-0.6C140.7,102.4,141.8,102.5,143,102.5z"/>
	<path class="st0" d="M185.2,108.4c-1.3,0-2.4,0.1-3.6,0c-0.3,0-0.7-0.5-0.9-0.9c-0.9-2.2-0.9-2.2-3.2-2.2c-1.2,0-2.6-0.4-3.5,0.1
		c-0.8,0.5-1.1,1.9-1.7,3c-1.2,0-2.5,0-3.9,0c0.1-0.4,0.2-0.7,0.3-1c1.8-4.4,3.6-8.9,5.3-13.3c0.3-0.7,0.6-1,1.4-1
		c1.2,0.1,2.7-0.4,3.5,0.2c0.8,0.5,1,2.1,1.5,3.1c1.4,3.5,2.8,6.9,4.2,10.4C184.8,107.3,185,107.8,185.2,108.4z M174.7,102.3
		c1.5,0,2.8,0,4.2,0c-0.7-1.9-1.3-3.7-2.1-5.8C176,98.7,175.4,100.5,174.7,102.3z"/>
	<path class="st0" d="M121.4,78.6c-1.2,0-2.4,0-3.7,0c0-10.4,0-20.8,0-31.2c1.2,0,2.4,0,3.7,0C121.4,57.8,121.4,68.1,121.4,78.6z"/>
	<path class="st0" d="M90.7,47.4c1.3,0,2.5,0,3.7,0c0,10.4,0,20.8,0,31.2c-1.3,0-2.5,0-3.7,0C90.7,68.2,90.7,57.8,90.7,47.4z"/>
	<path class="st0" d="M332.1,93.2c0,1,0,1.9,0,2.9c-2.8,0-5.6,0-8.5,0c0,1.1,0,2.1,0,3.3c2.6,0,5.2,0,7.9,0c0,1,0,2,0,3
		c-2.6,0-5.2,0-7.9,0c0,2.1,0,4,0,6.1c-1.3,0-2.5,0-3.8,0c0-5.1,0-10.1,0-15.2C323.9,93.2,327.9,93.2,332.1,93.2z"/>
	<path class="st0" d="M41.2,96c-1.8,0-3.4,0-5.1,0c0-1,0-1.8,0-2.8c4.6,0,9.3,0,14,0c0,0.9,0,1.7,0,2.8c-1.6,0-3.3,0-5.1,0
		c0,4.2,0,8.3,0,12.4c-1.3,0-2.5,0-3.8,0C41.2,104.3,41.2,100.2,41.2,96z"/>
	<path class="st0" d="M201.3,93.2c0,0.9,0,1.8,0,2.8c-1.6,0-3.3,0-5,0c0,4.2,0,8.2,0,12.3c-1.3,0-2.5,0-3.9,0c0-4,0-8.1,0-12.2
		c-1.8,0-3.4,0-5.2,0c0-1,0-1.9,0-2.9C191.9,93.2,196.5,93.2,201.3,93.2z"/>
	<path class="st0" d="M340.9,108.4c-1.2,0-2.4,0-3.7,0c0-5.1,0-10,0-15.2c1.2,0,2.4,0,3.7,0C340.9,98.2,340.9,103.3,340.9,108.4z"/>
	<path class="st0" d="M117.7,35.3c1.2,0,2.4,0,3.7,0c0,2,0,4,0,6.1c-1.2,0-2.4,0-3.7,0C117.7,39.4,117.7,37.4,117.7,35.3z"/>
	<path class="st0" d="M94.4,41.4c-1.2,0-2.4,0-3.7,0c0-2,0-4,0-6.1c1.2,0,2.4,0,3.7,0C94.4,37.3,94.4,39.3,94.4,41.4z"/>
</g>
</svg>
