<?xml version="1.0" encoding="UTF-8"?>
<svg id="a" data-name="Layer 1" xmlns="http://www.w3.org/2000/svg" viewBox="0 0 225.68 29.36">
  <defs>
    <style>
      .b {
        fill: #255eab;
      }
    </style>
  </defs>
  <path class="b" d="M173.51,19.52c.97,0,1.71-.37,2.24-1.11.52-.74.78-1.82.78-3.24v-.66c0-1.4-.26-2.47-.79-3.21s-1.28-1.12-2.25-1.12-1.69.37-2.22,1.11c-.53.74-.81,1.79-.82,3.15v.73c0,1.38.27,2.46.81,3.21.54.76,1.29,1.13,2.25,1.13Z"/>
  <path class="b" d="M186.2,14.54c.74,0,1.32-.19,1.73-.56.42-.37.62-.88.62-1.53s-.19-1.2-.58-1.57c-.38-.37-.96-.56-1.72-.57h-3.38v4.22h3.32Z"/>
  <path class="b" d="M204.7,15.23v-.7c0-1.37-.3-2.41-.89-3.13s-1.46-1.08-2.59-1.08h-1.53v9.09h1.43c1.15,0,2.03-.36,2.64-1.08.61-.72.93-1.75.94-3.09Z"/>
  <polygon class="b" points="213.69 11.23 211.87 16.45 215.52 16.45 213.69 11.23"/>
  <path class="b" d="M19.63,12.09h-6.05v2.17h6.05c.3,0,.56-.1.77-.31s.32-.47.32-.77c0-.61-.48-1.09-1.09-1.09Z"/>
  <path class="b" d="M53.52,12.09c-2.04.03-3.76.41-3.73,2.48v.31c-.03,2.08,1.7,2.46,3.73,2.49,2.03-.03,3.75-.41,3.72-2.49v-.31c.03-2.08-1.7-2.45-3.72-2.48Z"/>
  <path class="b" d="M35.18,12.09c-2.04.03-3.76.41-3.73,2.48v.31c-.03,2.08,1.7,2.46,3.73,2.49,2.03-.03,3.75-.41,3.72-2.49v-.31c.03-2.08-1.7-2.45-3.72-2.48Z"/>
  <path class="b" d="M3.94,2.68v23.72h218.14V2.68H3.94ZM25.7,21.11h-5.29l-2.4-3.11h-4.43v3.11h-4.97v-12.74h12.27c2.62-.03,4.85,2.18,4.81,4.81,0,.96-.26,1.83-.77,2.61-.5.77-1.17,1.35-2.01,1.74l2.78,3.57ZM43.87,15.19c.02,4.81-3.9,6.21-8.69,6.22-4.79,0-8.72-1.4-8.7-6.22v-.93c-.02-4.82,3.9-6.21,8.7-6.22,4.79,0,8.69,1.4,8.69,6.22v.93ZM62.2,15.19c.02,4.81-3.9,6.21-8.69,6.22-4.79,0-8.72-1.4-8.7-6.22v-.93c-.02-4.82,3.9-6.21,8.7-6.22,4.79,0,8.69,1.4,8.69,6.22v.93ZM78.82,12.42h-10.57v1.55h9.32v3.72h-9.32v3.42h-4.96v-12.74h15.53v4.04ZM84.83,21.1h-4.96v-12.74h4.96v12.74ZM104.48,21.1h-5.59l-6.84-7.78v7.78h-4.96v-12.74h6.83l5.59,6.75v-6.75h4.97v12.74ZM114.56,17.36c1.96,0,3.21-.11,3.96-1.08h-4v-2.18h8.65v7.31h-2.48l-.25-1.98c-1.48,1.46-3.72,1.98-5.88,1.98-4.79-.02-8.72-1.4-8.7-6.22v-.93c-.02-4.82,3.9-6.21,8.7-6.22,4.42,0,8.05,1.2,8.61,5.13h-5.28c-.31-.43-.77-.71-1.36-.86-.59-.15-1.25-.23-1.98-.23-2.04.03-3.76.41-3.73,2.48v.31c-.03,2.09,1.7,2.45,3.73,2.48ZM130.21,21.15h-2.18v-12.6h2.18v12.6ZM142.9,21.15h-2.19l-5.62-8.94v8.94h-2.19v-12.6h2.19l5.63,8.97v-8.97h2.17v12.6ZM157.9,10.32h-5.82v3.75h5.07v1.75h-5.07v5.34h-2.19v-12.6h8v1.76ZM212.72,8.55h1.96l4.77,12.6h-2.28l-1.03-2.93h-4.88l-1.02,2.93h-2.28l4.76-12.6ZM197.5,8.55h3.72c1.11,0,2.1.25,2.96.74.86.5,1.53,1.2,2,2.11.47.91.71,1.96.71,3.13v.63c0,1.19-.24,2.24-.71,3.15-.48.91-1.15,1.6-2.03,2.09-.88.49-1.89.74-3.02.74h-3.63v-12.6ZM192.63,8.55h2.18v12.6h-2.18v-12.6ZM180.69,8.55h5.5c1.45,0,2.58.33,3.37.98.79.65,1.19,1.6,1.19,2.83,0,.84-.2,1.55-.61,2.12s-.97,1.01-1.7,1.31l2.83,5.25v.11h-2.35l-2.53-4.85h-3.51v4.85h-2.19v-12.6ZM168.27,14.54c0-1.23.22-2.31.65-3.25.44-.94,1.05-1.66,1.84-2.16.79-.5,1.7-.75,2.73-.75s1.94.25,2.73.74c.79.49,1.41,1.2,1.84,2.13.43.93.65,2,.66,3.23v.7c0,1.23-.21,2.32-.64,3.25s-1.04,1.65-1.83,2.15c-.79.5-1.71.75-2.74.75s-1.93-.25-2.73-.75c-.8-.5-1.42-1.21-1.85-2.13s-.66-1.99-.66-3.19v-.71ZM159.63,8.55h2.19v10.85h5.72v1.75h-7.91v-12.6Z"/>
</svg>