<?xml version="1.0" encoding="UTF-8"?>
<svg id="Layer_4" xmlns="http://www.w3.org/2000/svg" version="1.1" viewBox="0 0 1672.8 726.5">
  <!-- Generator: Adobe Illustrator 29.6.0, SVG Export Plug-In . SVG Version: 2.1.1 Build 207)  -->
  <defs>
    <style>
      .st0 {
        fill: #231f20;
      }
    </style>
  </defs>
  <polygon class="st0" points="183.7 486.1 183.7 656.7 456.7 602.6 366.9 486.1 183.7 486.1"/>
  <path class="st0" d="M433.8,242.3h-250v89.6h250c12.5,0,23.1-4.3,31.7-12.9,9-9,13.3-19.6,13.3-31.7,0-25-20-45-45-45Z"/>
  <polygon class="st0" points="1210.8 332.4 1420.8 332.4 1420.8 486.2 1210.8 486.2 1210.8 599.9 1659.6 685.9 1659.6 255.6 1210.8 255.6 1210.8 332.4"/>
  <path class="st0" d="M9.2,11.8v76.7h476.2c10.2-.1,20.2.6,30,2,1.6.2,3.3.5,4.9.8,8.1,1.4,16.1,3.3,23.9,5.8,3.1,1,6.2,2,9.2,3.1,9.1,3.3,18,7.4,26.5,12,1.4.8,2.8,1.6,4.2,2.4,4.2,2.4,8.3,5,12.3,7.7,53.3,36,88.8,97.1,87.8,165.1,0,21-3,41-8.9,59.9-.7,2.2-1.4,4.4-2.2,6.6s-1.6,4.4-2.5,6.6c-2.2,5.4-4.6,10.8-7.3,16-1.6,3.1-3.3,6.3-5.1,9.3-1.8,3.1-3.7,6.1-5.7,9.1-14.3,21.8-31.8,40.1-52.6,54.6-1.9,1.3-3.8,2.6-5.7,3.9-3.9,2.5-7.9,4.9-12,7.2-4.1,2.3-8.3,4.4-12.6,6.4l76.3,98.2,188.2-39.4,5.3-1.1,166.4,36.1V88.9h653.9V11.8H9.2ZM941.4,454.5l-102-22.1-5.3,1.1-97.6,20.4v-197.4c12.2,10.6,25.8,19.2,40.7,25.5,18.8,7.9,38.7,12,59.2,12s40.4-4,59.2-12c17-7.2,32.4-17.3,45.8-30.1v202.6ZM897.8,61.8c4.5,3.4,8.7,7.3,12.6,11.4,0,0,0,0,0,0,.6.7,1.3,1.4,1.9,2.1,0,0,0,0,0,0,2.5,2.8,4.8,5.8,7,8.9,0,0,.1.2.2.2.5.7.9,1.4,1.4,2.1,0,.1.1.2.2.3.5.7.9,1.4,1.3,2.1,0,0,0,.2.1.2,1.5,2.4,2.8,4.8,4.1,7.3,0,.1.1.2.2.3.3.7.7,1.4,1,2.1,0,.2.2.4.3.6.3.6.6,1.3.9,1.9,0,.2.2.4.3.6.3.7.6,1.3.8,2,0,.2.1.4.2.5.3.8.7,1.7,1,2.5,0,0,0,0,0,0,.3.9.6,1.8.9,2.7,0,0,0,.2,0,.3.3.8.5,1.5.7,2.3,0,.2.1.5.2.8.2.6.4,1.3.5,1.9,0,.3.2.6.2.9.2.6.3,1.2.5,1.8,0,.3.1.6.2.9.1.6.3,1.3.4,1.9,0,.3.1.5.2.8.2.8.3,1.7.5,2.5,0,0,0,.2,0,.2.2.9.3,1.8.5,2.8,0,.3,0,.5.1.8,0,.7.2,1.3.3,2,0,.3,0,.7.1,1,0,.6.1,1.2.2,1.8,0,.4,0,.7,0,1.1,0,.6,0,1.2.1,1.8,0,.4,0,.7,0,1.1,0,.6,0,1.3,0,1.9,0,.3,0,.6,0,.9,0,.9,0,1.9,0,2.8,0,0,0,0,0,0,0,4.9-.3,9.7-1,14.4-.2,1.6-.5,3.1-.8,4.7-.1.8-.3,1.5-.5,2.3-.5,2.3-1.1,4.6-1.7,6.8-.4,1.5-.9,3-1.4,4.4-3.5,10.3-8.6,19.8-15,28.2-.5.6-.9,1.2-1.4,1.8-.9,1.2-1.9,2.4-2.9,3.5-.5.6-1,1.1-1.5,1.7-1.1,1.2-2.2,2.4-3.3,3.5-1.1,1.1-2.3,2.3-3.5,3.3-3.4,3.1-6.9,5.9-10.7,8.5-16.3,11.2-36,17.8-57.2,17.8s-41-6.6-57.2-17.8c-3.8-2.6-7.3-5.4-10.7-8.5-1.2-1.1-2.4-2.2-3.5-3.3s-2.3-2.3-3.3-3.5c-4.9-5.4-9.2-11.3-12.9-17.6-1.2-2.1-2.4-4.3-3.4-6.5-1.1-2.2-2-4.5-3-6.8-.6-1.5-1.2-3.1-1.7-4.6s-1-3.1-1.5-4.7-.9-3.2-1.2-4.8-.4-1.6-.5-2.5c-.3-1.6-.6-3.3-.9-5,0-.2,0-.5,0-.7-.2-1.4-.4-2.9-.5-4.3-.3-3.4-.5-6.8-.5-10.3s0-1.9,0-2.9c0-.3,0-.6,0-.9,0-.6,0-1.3,0-1.9,0-.4,0-.7,0-1.1,0-.6,0-1.2.1-1.8,0-.4,0-.7,0-1.1,0-.6.1-1.2.2-1.8,0-.3,0-.7.1-1,0-.7.2-1.3.3-2,0,0,0-.2,0-.2h0c0-.2,0-.3,0-.5.1-.9.3-1.8.5-2.8,0,0,0-.1,0-.2.2-.8.3-1.7.5-2.5,0-.3.1-.5.2-.8.1-.6.3-1.3.4-1.9,0-.3.1-.6.2-.9.2-.6.3-1.2.5-1.8,0-.3.2-.6.2-.9.2-.6.4-1.3.5-1.9,0-.2.1-.5.2-.7.2-.8.5-1.5.7-2.3,0,0,0-.2,0-.3.3-.9.6-1.8.9-2.7,0,0,0,0,0,0,.3-.8.6-1.7,1-2.5,0-.2.1-.3.2-.5.3-.7.6-1.4.8-2,0-.2.2-.4.3-.6.3-.7.6-1.3.9-2,0-.2.2-.4.3-.6.3-.7.7-1.4,1-2.1,0-.1.1-.2.2-.3,1.3-2.5,2.6-4.9,4.1-7.3,0,0,0-.1.1-.2.4-.7.9-1.4,1.3-2.1,0-.1.1-.2.2-.3.5-.7.9-1.4,1.4-2.1,0,0,.1-.1.2-.2,2.2-3.1,4.5-6,7-8.9,0,0,0,0,0,0,.6-.7,1.2-1.4,1.9-2.1,0,0,0,0,0,0,3.9-4.1,8.1-8,12.6-11.4,17-13,38.3-20.8,61.3-20.8s44.3,7.7,61.3,20.8Z"/>
</svg>