<?xml version="1.0" encoding="utf-8"?>
<!-- Generator: Adobe Illustrator 27.1.1, SVG Export Plug-In . SVG Version: 6.00 Build 0)  -->
<svg version="1.1" id="Layer_1" xmlns="http://www.w3.org/2000/svg" xmlns:xlink="http://www.w3.org/1999/xlink" x="0px" y="0px"
	 viewBox="0 0 612 129.7" style="enable-background:new 0 0 612 129.7;" xml:space="preserve">
<style type="text/css">
	.st0{fill:#004780;}
</style>
<g>
	<path class="st0" d="M89.2,9.2c-0.2,26.2-0.5,52.3-0.7,78.5c-8.5,0-17,0-25.7,0c-0.2-4.8-0.4-9.5-0.6-14.4c-0.4,0-0.7-0.1-1-0.1
		c-5.8,0-11.7,0-17.5,0c-0.7,0-1.2,0.2-1.6,0.8c-3.1,4.3-6.3,8.7-9.4,13c-0.2,0.3-0.7,0.7-1.1,0.7c-8.1,0-16.2,0-24.3,0
		c-0.1,0-0.2,0-0.5,0c0.2-0.3,0.3-0.6,0.5-0.9c17.4-25.6,34.7-51.2,52.1-76.8c0.4-0.6,0.9-0.9,1.6-0.9c9.1,0,18.1,0,27.2,0
		C88.4,9.2,88.8,9.2,89.2,9.2z M63.8,40.4c-0.1,0-0.2-0.1-0.3-0.1c-4,5.2-7.5,10.6-11.1,16.1c3.8,0,7.4,0,11.1,0
		C63.5,51.1,63.7,45.8,63.8,40.4z"/>
	<path class="st0" d="M335.6,45.5c0.6,0.1,1.2,0.2,1.7,0.4c7.3,1.9,11.2,8.2,9.1,15.6c-3.4,12-11,20.1-22.8,24.2
		c-4.3,1.5-8.8,2.1-13.3,2.1c-10.5,0-21.1,0-31.6,0c-0.2,0-0.5,0-0.9,0c0.7-2,1.4-3.8,2.1-5.7c8.7-23.9,17.5-47.9,26.2-71.8
		c0.3-0.8,0.6-1,1.4-1c9.9,0,19.7,0,29.6,0c4.1,0,8.2,0.4,12.2,1.7c0.9,0.3,1.9,0.7,2.8,1.1c4.6,2.4,6.6,6.4,5.7,11.5
		c-1.4,8.3-6.2,14.1-13.3,18.2c-2.6,1.5-5.3,2.6-8.2,3.3c-0.3,0.1-0.5,0.2-0.8,0.2C335.6,45.4,335.6,45.5,335.6,45.5z M304.6,71.9
		c2.8,0,5.5,0.1,8.2,0c5.6-0.3,10.2-4.3,11.4-9.7c0.8-3.5-1.1-6-4.7-6.3c-0.4,0-0.8-0.1-1.3-0.1c-2.3,0-4.6,0-6.9,0
		c-0.7,0-1,0.2-1.3,0.9c-1.7,4.8-3.5,9.5-5.2,14.3C304.8,71.3,304.7,71.5,304.6,71.9z M316.3,39.9c2.2,0,4.3,0.1,6.4,0
		c5-0.2,9.3-3.7,10.6-8.3c0.9-3.2-0.2-5.4-3.5-6c-2.4-0.5-4.8-0.4-7.2-0.5c-0.7-0.1-1,0.2-1.2,0.8c-1.6,4.4-3.2,8.8-4.8,13.2
		C316.4,39.3,316.4,39.6,316.3,39.9z"/>
	<path class="st0" d="M567.5,65.5c-0.6,2.4,0.3,4.8,2.3,6.2c2.2,1.6,4.8,1.9,7.4,1.9c5,0.1,9.8-1,14.5-2.8c0.3-0.1,0.6-0.2,1.1-0.4
		c-0.4,1.5-0.8,2.7-1.2,4c-1,3.5-2.1,7-3.1,10.4c-0.1,0.4-0.4,0.8-0.7,0.9c-9,3.2-18.2,4.5-27.6,2.5c-9-2-14.2-8.6-13.6-17.9
		c0.9-14.3,6.8-26.3,18.3-35.1c4.8-3.7,10.3-6.1,16.3-6.8c7.2-0.9,13.1,1.7,16.1,8.1c1.3,2.7,1.8,5.6,1.8,8.6
		c0.1,3.9-0.7,7.7-1.8,11.4c-0.8,2.7-1.6,5.4-2.4,8.1c-0.2,0.8-0.6,1-1.3,1c-8.3,0-16.5,0-24.8,0C568.4,65.5,568,65.5,567.5,65.5z
		 M571.1,52.9c4.3,0,8.5,0,12.6,0c0.2,0,0.5-0.3,0.6-0.4c0.6-2.1,1.1-4.1,0.7-6.3c-0.3-1.9-1.6-3-3.5-3.2c-1.6-0.2-3.1,0.2-4.4,1.2
		C574.1,46.2,572.4,49.3,571.1,52.9z"/>
	<path class="st0" d="M442.1,70.4c-0.9,3-1.7,5.8-2.5,8.6c-0.6,2-1.1,3.9-1.8,5.9c-0.1,0.4-0.5,0.8-0.8,1
		c-8.8,3.1-17.8,4.3-27.1,2.5c-7.2-1.4-12.1-5.6-13.7-13c-1-4.4-0.4-8.8,0.7-13.1c2.4-9.3,6.6-17.5,13.6-24.1
		c5.3-4.9,11.4-8.2,18.5-9.5c4-0.7,8-0.6,11.7,1.5c4.1,2.3,6.2,6.1,7.1,10.5c1.1,5.4,0.2,10.6-1.3,15.7c-0.8,2.7-1.6,5.5-2.4,8.2
		c-0.2,0.7-0.5,0.9-1.3,0.9c-8.4,0-16.7,0-25.1,0c-1.3,0-1.3,0-1.3,1.3c0,2.8,1.5,4.6,4,5.7c1.9,0.9,4,1.1,6.1,1.1
		c4.9,0,9.7-1,14.2-2.7C441.2,70.7,441.5,70.6,442.1,70.4z M420.5,52.9c4.2,0,8.3,0,12.5,0c0.2,0,0.5-0.3,0.6-0.5c0.6-2,1-4,0.7-6.1
		c-0.3-2-1.6-3.2-3.6-3.4c-1.8-0.2-3.4,0.4-4.8,1.5c-2.6,2.1-4.2,4.9-5.4,8C420.5,52.5,420.5,52.7,420.5,52.9z"/>
	<path class="st0" d="M493.5,70.5c-0.1,0.3-0.1,0.5-0.1,0.7c-1.4,4.6-2.7,9.2-4.1,13.8c-0.1,0.4-0.5,0.8-0.8,0.9
		c-8.8,3.2-17.8,4.3-27.1,2.5c-8.7-1.7-13.9-8-14.1-16.8c-0.1-7,1.9-13.6,4.9-19.8c4-8.3,9.7-15,17.9-19.4c4.4-2.4,9.1-4,14.1-4.1
		c7.8-0.1,13.2,4.1,15,11.8c1.2,5.2,0.5,10.4-0.9,15.5c-0.8,3-1.8,6-2.6,9c-0.2,0.7-0.5,1-1.3,1c-8.3,0-16.7,0-25,0
		c-1.3,0-1.3,0-1.3,1.3c0,2.8,1.5,4.6,3.9,5.6c2.6,1.2,5.4,1.2,8.2,1.1c4.3-0.2,8.5-1.2,12.5-2.8C492.9,70.7,493.1,70.6,493.5,70.5z
		 M471.9,52.9c4.3,0,8.5,0,12.7,0c0.2,0,0.5-0.2,0.5-0.4c0.6-2,1-4,0.8-6c-0.3-2-1.4-3.2-3.1-3.5c-1.4-0.2-2.8-0.1-4,0.7
		C475.1,45.7,473.3,49,471.9,52.9z"/>
	<path class="st0" d="M266.5,32.6c-2.1,6.2-4,12.1-6.1,18.2c-2.2-1.8-4.6-2.7-7.2-3.1c-10.8-1.6-20.3,4.5-21.7,16.2
		c-0.5,4.1,2.3,7.3,6.7,8c5.1,0.8,10-0.2,14.7-2.2c0.4-0.2,0.8-0.3,1.3-0.5c-0.1,0.4-0.2,0.7-0.3,1c-1.7,5.1-3.4,10.1-5.1,15.2
		c-0.2,0.7-0.6,1.1-1.3,1.3c-3.2,1.2-6.6,1.9-10.1,2.1c-3.9,0.3-7.8,0.4-11.8,0.2c-4.7-0.2-9-1.7-12.8-4.6c-4-3.1-5.9-7.3-6.3-12.2
		c-0.5-6.1,1.3-11.6,4-16.9c6.6-13.3,17.4-21.1,31.9-23.9c7.1-1.4,14.2-1.2,21.2,0.4C264.7,31.8,265.6,32.2,266.5,32.6z"/>
	<path class="st0" d="M522,71.7c6.4,0,12.8,0,19.4,0c-1.5,5.4-3,10.7-4.6,16.1c-15.2,0-30.4,0-45.6,0c0-0.2,0.1-0.5,0.1-0.7
		c0.4-1.5,1-3,1.3-4.6c0.6-4,2.8-6.8,5.7-9.6c8.4-7.9,16.5-16.1,24.8-24.2c0.2-0.2,0.4-0.5,0.8-0.9c-6.5,0-12.9,0-19.3,0
		c0-0.3,0-0.6,0.1-0.8c1.4-4.8,2.7-9.6,4.1-14.4c0.2-0.8,0.6-1,1.3-1c13.7,0,27.4,0,41.1,0c0.3,0,0.7,0,1.1,0c-1,3.5-2,6.8-2.8,10.1
		c-0.5,2.2-1.6,3.8-3.2,5.4c-7.9,7.8-15.7,15.6-23.6,23.4c-0.3,0.3-0.7,0.4-1,0.6C521.8,71.4,521.9,71.6,522,71.7z"/>
	<path class="st0" d="M364.6,87.8c-7.7,0-15.4,0-23.2,0c0.1-0.3,0.1-0.6,0.2-0.8c6-18.1,12.1-36.2,18.1-54.3c0.2-0.5,0.3-1,1.1-1
		c7.3,0,14.6,0,21.9,0c0.2,0,0.3,0,0.6,0c-1.1,3.3-2.1,6.4-3.2,9.6c0.1,0,0.2,0.1,0.3,0.1c0.3-0.6,0.7-1.1,1-1.7
		c2-4.6,5-8.5,9.3-11.2c1.8-1.1,3.7-1.9,5.8-2.1c4.4-0.4,7.7,2.4,8.5,6.9c0.7,4.2-0.3,8.1-2.2,11.8c-2.4,4.8-5.8,8.6-10.7,10.8
		c-1.6,0.7-3.3,1.1-5.1,0.9c-2.6-0.2-4.5-1.4-5.8-3.6c-0.2-0.4-0.4-0.7-0.6-1.2c-1.7,1-3,2.3-4.1,3.9c-1.7,2.3-2.9,5-3.8,7.7
		c-2.5,7.7-5.1,15.3-7.6,22.9C364.8,87.2,364.7,87.5,364.6,87.8z"/>
	<path class="st0" d="M103.3,44c-2.9,0-5.6,0-8.4,0c0-0.1-0.1-0.2-0.1-0.2c14.2-11,28.3-22.1,42.7-33.3c-2,5.9-3.9,11.6-5.8,17.4
		c3.9,0,7.7,0,11.6,0c-0.2,0.7-0.4,1.3-0.6,1.9c-1.5,4.4-3,8.8-4.4,13.3c-0.2,0.7-0.6,0.9-1.3,0.9c-3.3,0-6.6,0-9.8,0
		c-0.6,0-0.9,0.1-1.1,0.7c-2.2,6.8-4.5,13.6-6.8,20.5c-0.4,1.1-0.5,2.3-0.6,3.4c-0.1,2.1,1.2,3.3,3.3,3.5c2.1,0.2,4.1-0.3,6.1-0.9
		c0.2-0.1,0.4-0.1,0.8-0.2c-0.1,0.3-0.1,0.5-0.2,0.8c-1.6,4.9-3.2,9.7-4.9,14.6c-0.1,0.4-0.5,0.8-0.8,0.9
		c-6.5,1.9-13.2,2.7-19.9,1.3c-7-1.5-10.5-6.9-9.4-14c0.6-4,2.1-7.8,3.3-11.7C99,56.9,101,51,103,45C103.1,44.7,103.1,44.4,103.3,44
		z"/>
	<path class="st0" d="M147.8,44c-2.9,0-5.6,0-8.4,0c0-0.1-0.1-0.2-0.1-0.2c14.1-11,28.3-22,42.4-33c0.1,0,0.1,0.1,0.2,0.1
		c-1.9,5.6-3.7,11.2-5.6,17c4,0,7.8,0,11.7,0c-1,2.9-1.9,5.7-2.8,8.5c-0.7,2.2-1.5,4.4-2.2,6.6c-0.2,0.7-0.5,1-1.3,1
		c-3.2-0.1-6.5,0-9.7,0c-0.7,0-1,0.1-1.3,0.8c-2.2,6.6-4.4,13.2-6.6,19.8c-0.4,1.1-0.6,2.3-0.7,3.4c-0.3,2.4,1.1,4,3.5,4
		c1.8,0,3.5-0.4,5.3-0.7c0.4-0.1,0.9-0.2,1.4-0.4c-0.1,0.4-0.1,0.6-0.2,0.9c-1.6,4.8-3.2,9.7-4.9,14.5c-0.1,0.4-0.5,0.8-0.8,0.9
		c-6.7,2-13.6,2.8-20.4,1.1c-6.2-1.4-9.4-6.2-8.9-12.5c0.3-4,1.7-7.7,2.9-11.4c2.1-6.5,4.3-13,6.5-19.4
		C147.6,44.7,147.7,44.4,147.8,44z"/>
	<path class="st0" d="M172.1,87.8c6.8-20.2,13.5-40.4,20.3-60.6c3.4,2.6,7.3,3.7,11.5,3.7c4.1,0.1,8-0.8,11.7-3.3
		c-0.9,2.6-1.6,5-2.4,7.4c-5.8,17.3-11.5,34.5-17.3,51.8c-0.3,0.8-0.6,1.1-1.5,1.1c-7,0-14.1,0-21.1,0
		C172.9,87.8,172.6,87.8,172.1,87.8z"/>
	<path class="st0" d="M220.1,17.4c-0.2,3.9-2.3,7.6-6.2,10.1c-3.3,2.1-6.8,1-8.3-2.6c-2-4.8-0.8-9,2.6-12.7c1.1-1.2,2.4-2.2,3.8-2.9
		c2.6-1.4,5.2-0.4,6.7,2.1C219.7,13,220.2,14.7,220.1,17.4z"/>
	<path class="st0" d="M47.9,114.7c-1.2,0-2.3,0-3.5,0c0-0.4,0-0.7,0-1c0-2.5,0-4.9,0-7.4c0-1.7-0.9-2.6-2.3-2.6
		c-1.4,0-2.4,1-2.4,2.6c0,2.8,0,5.6,0,8.4c-1.2,0-2.2,0-3.4,0c0-4.6,0-9.2,0-13.9c1.1,0,2.1,0,3.2,0c0.1,0.3,0.1,0.6,0.2,1
		c2.5-1.7,4.9-1.9,7.2,0.5c1.2-1.3,2.8-1.8,4.5-1.7c2.3,0.1,4.3,1.5,4.4,3.7c0.2,3.4,0.1,6.9,0.1,10.4c-1,0-2.1,0-3.3,0
		c0-0.3,0-0.7-0.1-1c0-2.6,0-5.2,0-7.8c-0.1-1.9-2-2.9-3.6-1.9c-0.9,0.5-1.1,1.4-1.1,2.3c0,2.4,0,4.8,0,7.2
		C47.9,113.9,47.9,114.2,47.9,114.7z"/>
	<path class="st0" d="M377.2,105.9c-0.9,2.7-1.8,5.2-2.6,7.7c-0.3,0.9-0.6,1.3-1.5,1.1c-0.2,0-0.5,0-0.7,0c-0.8,0.2-1.1-0.3-1.4-1
		c-1.2-3.9-2.4-7.9-3.6-11.8c-0.1-0.4-0.2-0.7-0.3-1.2c1.1,0,2.2,0,3.2,0c0.2,0,0.5,0.4,0.6,0.7c0.7,2.4,1.3,4.8,1.9,7.1
		c0,0.2,0.1,0.3,0.3,0.7c0.5-1.4,0.9-2.6,1.3-3.7c0.4-1.1,0.7-2.2,1.1-3.2c0.5-1.7,0.5-1.7,2.3-1.7c0.6,0,0.9,0.2,1.1,0.8
		c0.7,2.2,1.5,4.4,2.2,6.6c0.1,0.3,0.2,0.6,0.4,1.2c0.2-0.6,0.3-1,0.4-1.3c0.5-2.1,1.1-4.2,1.6-6.3c0.2-0.9,0.6-1.1,1.4-1
		c0.8,0.1,1.6,0,2.6,0c-0.6,2-1.1,3.8-1.7,5.7c-0.8,2.5-1.6,5-2.3,7.5c-0.2,0.6-0.4,0.9-1.1,0.9c-2,0-2,0-2.7-2
		c-0.6-1.9-1.3-3.8-1.9-5.7C377.5,106.8,377.4,106.4,377.2,105.9z"/>
	<path class="st0" d="M17.1,114.7c1.5-4.1,3-8.1,4.4-12.2c0.8-2.1,1.5-4.1,2.2-6.2c0.2-0.7,0.5-0.9,1.2-0.9c0.6,0.1,1.3,0,2,0
		c2.3,6.4,4.7,12.8,7,19.3c-1.2,0-2.3,0-3.4,0c-0.2,0-0.5-0.3-0.6-0.6c-0.3-0.7-0.5-1.4-0.7-2.1c-0.1-0.5-0.4-0.7-1-0.7
		c-1.8,0-3.6,0-5.4,0c-0.5,0-0.8,0.2-1,0.7c-0.3,0.9-0.4,2.1-1,2.5c-0.7,0.5-1.9,0.2-2.9,0.2C17.7,114.7,17.4,114.7,17.1,114.7z
		 M23.2,108.1c1.7,0,3.2,0,4.8,0c-0.8-2.3-1.5-4.6-2.4-7C24.7,103.6,24,105.8,23.2,108.1z"/>
	<path class="st0" d="M337.8,95.5c2.7,0,5.3-0.1,7.9,0c3.5,0.1,5.9,2.6,5.9,6.1c0,3.3-2.4,5.8-6,5.9c-1.3,0.1-2.7,0-4.1,0
		c0,1.3,0,2.5,0,3.6c0,1.2,0,2.3,0,3.5c-1.3,0-2.4,0-3.6,0C337.8,108.3,337.8,101.9,337.8,95.5z M341.5,98.8c0,1.7,0,3.2,0,4.8
		c0,0.2,0.4,0.5,0.6,0.5c1.1,0,2.2,0.1,3.3,0c1.6-0.1,2.5-1.1,2.5-2.6c0-1.5-0.9-2.6-2.4-2.7C344.2,98.7,342.9,98.8,341.5,98.8z"/>
	<path class="st0" d="M265.7,112.4c0.8-0.8,1.6-1.5,2.4-2.3c1.7,1.4,3.8,1.8,6,1.3c1.4-0.3,2.1-1.1,2-2.4c-0.1-1.3-0.7-1.9-2.2-2.1
		c-1.1-0.2-2.2-0.3-3.4-0.6c-1.9-0.4-3.4-1.3-3.9-3.3c-0.6-2.1-0.3-4.1,1.2-5.7c2.6-2.8,8.8-2.6,11.3,0.3c-0.7,0.7-1.5,1.4-2.3,2.2
		c-1.1-1-2.6-1.2-4.1-1.2c-0.4,0-0.8,0.1-1.2,0.2c-1,0.3-1.6,1.3-1.6,2.3c0,1,0.6,1.7,1.7,1.9c1.2,0.3,2.4,0.4,3.5,0.6
		c2.5,0.4,4,1.8,4.4,4c0.5,2.7-0.5,4.9-2.6,6.2C273.7,115.8,268.1,115.1,265.7,112.4z"/>
	<path class="st0" d="M438.3,113.5c-1.4,1.4-3,1.6-4.7,1.2c-2-0.4-3.1-1.7-3.3-3.6c-0.2-2.3-0.3-4.6,0-6.9c0.5-3.5,4.6-5,7.4-2.9
		c0.1,0.1,0.3,0.2,0.6,0.4c0-2.2,0-4.2,0-6.3c1.2,0,2.3,0,3.4,0c0,6.4,0,12.7,0,19.1c-1.1,0-2.2,0-3.3,0
		C438.4,114.3,438.4,114,438.3,113.5z M433.4,107.7c0.1,0.8,0.1,1.5,0.3,2.3c0.3,1.2,1,1.8,2.1,1.8c1.1,0,1.9-0.5,2.2-1.6
		c0.5-1.7,0.4-3.3,0-5c-0.3-1.1-1.1-1.6-2.3-1.6c-1.1,0-1.8,0.6-2,1.7C433.6,106.1,433.5,106.9,433.4,107.7z"/>
	<path class="st0" d="M198.3,95.5c1.2,0,2.3,0,3.4,0c0,6.4,0,12.7,0,19.1c-1.1,0-2.2,0-3.3,0c0-0.3-0.1-0.6-0.1-1.1
		c-1.4,1.3-2.9,1.6-4.6,1.3c-1.8-0.3-3-1.4-3.4-3.2c-0.6-2.5-0.6-5.1,0-7.6c0.7-3.3,4.6-4.6,7.4-2.6c0.1,0.1,0.3,0.2,0.6,0.4
		C198.3,99.6,198.3,97.6,198.3,95.5z M193.4,107.7c0.1,0.8,0.1,1.6,0.3,2.3c0.2,1.2,1,1.7,2.1,1.8c1.1,0,1.9-0.5,2.2-1.6
		c0.5-1.6,0.5-3.3,0-5c-0.3-1.1-1.1-1.6-2.2-1.6c-1.1,0-1.9,0.6-2.1,1.8C193.5,106.2,193.5,106.9,193.4,107.7z"/>
	<path class="st0" d="M452.6,95.5c1.2,0,2.3,0,3.4,0c0.2,0,0.6,0.5,0.7,0.8c1.1,3.5,2.2,7.1,3.3,10.7c0.1,0.3,0.2,0.6,0.4,1.1
		c0.7-2.3,1.4-4.4,2-6.4c0.6-2,1.3-4.1,1.9-6.1c1.3,0,2.5,0,3.9,0c-0.4,1.3-0.8,2.4-1.2,3.6c-1.6,4.9-3.3,9.8-4.9,14.8
		c-0.2,0.6-0.5,0.9-1.1,0.8c-1.9,0-1.9,0-2.6-1.8c-1.8-5.4-3.6-10.9-5.4-16.3C452.8,96.2,452.7,95.9,452.6,95.5z"/>
	<path class="st0" d="M535.1,106.4c0.1-1.1,0.1-2-0.9-2.6c-1.2-0.7-3-0.4-4.5,0.8c-0.7-0.7-1.3-1.4-2-2.1c0.7-0.9,1.6-1.6,2.8-1.7
		c1.5-0.1,3.1-0.2,4.6,0.1c2.1,0.3,3.4,1.8,3.5,4c0.1,3.3,0,6.5,0,9.9c-1.1,0-2.2,0-3.3,0c-0.1-0.3-0.1-0.6-0.2-1
		c-1.4,1.2-3,1.4-4.8,1c-2.2-0.4-3.4-2-3.4-4.3c0-2.1,1.4-3.6,3.5-3.9c1.1-0.1,2.2-0.1,3.3-0.2C534.2,106.4,534.6,106.4,535.1,106.4
		z M535.1,108.9c-1.2,0-2.3-0.1-3.4,0c-0.9,0.1-1.3,0.6-1.3,1.5c0,0.8,0.4,1.4,1.2,1.6C533.5,112.3,535.5,111.8,535.1,108.9z"/>
	<path class="st0" d="M114.7,113.7c-1.5,1.2-3.1,1.4-4.8,1.1c-2.1-0.4-3.4-2.1-3.3-4.3c0-2,1.3-3.5,3.4-3.9c0.8-0.1,1.6-0.1,2.4-0.2
		c0.7,0,1.5,0,2.3,0c0.1-1,0.1-2-0.8-2.6c-1.2-0.7-3-0.4-4.5,0.8c-0.7-0.7-1.3-1.4-2.2-2.3c0.9-0.5,1.7-1.2,2.6-1.5
		c1.8-0.5,3.7-0.5,5.5,0.1c1.7,0.6,2.8,1.8,2.9,3.6c0.1,3.4,0,6.7,0,10.2c-1.1,0-2.1,0-3.2,0C114.8,114.4,114.8,114.1,114.7,113.7z
		 M114.6,108.9c-1.1,0-2.2-0.1-3.3,0c-0.8,0.1-1.3,0.6-1.4,1.4c0,0.9,0.4,1.5,1.3,1.7C113.3,112.3,115.1,111.7,114.6,108.9z"/>
	<path class="st0" d="M317.3,114.7c-1.1,0-2.2,0-3.2,0c-0.1-0.3-0.1-0.6-0.2-1c-1.5,1.3-3.2,1.4-4.9,1.1c-2-0.4-3.3-2.1-3.2-4.2
		c0-2,1.3-3.6,3.4-3.9c1.5-0.2,3.1-0.2,4.7-0.3c0.1-0.9,0.2-1.9-0.8-2.5c-1.2-0.8-3-0.5-4.5,0.7c-0.6-0.7-1.3-1.4-2-2.2
		c0.8-1.1,2.1-1.7,3.5-1.8c1.4,0,2.9,0,4.3,0.4c1.8,0.4,2.9,1.8,2.9,3.7C317.3,108,317.3,111.3,317.3,114.7z M313.7,108.9
		c-1.1,0-2.2,0-3.3,0c-0.8,0-1.3,0.5-1.4,1.4c-0.1,0.9,0.3,1.5,1.1,1.7C312.2,112.4,314.3,111.8,313.7,108.9z"/>
	<path class="st0" d="M186.6,114.7c-1.1,0-2.2,0-3.2,0c0-0.3-0.1-0.6-0.1-1.1c-1.5,1.3-3.1,1.5-4.9,1.1c-2.1-0.4-3.3-2-3.3-4.2
		c0-2,1.3-3.6,3.3-3.9c0.9-0.2,1.8-0.1,2.7-0.2c0.7,0,1.3,0,2.1,0c0.1-1.1,0.2-2-0.8-2.6c-1.2-0.7-2.9-0.4-4.7,0.9
		c-0.2-0.3-0.5-0.7-0.8-1c-0.4-0.4-0.8-0.7-1.2-1c0.9-1.1,1.9-1.7,3.1-1.9c1.7-0.3,3.4-0.3,5,0.3c1.6,0.5,2.8,1.7,2.8,3.4
		C186.7,107.7,186.6,111.2,186.6,114.7z M183.2,108.9c-1.2,0-2.3-0.1-3.4,0c-0.7,0-1.2,0.5-1.3,1.3c-0.1,0.8,0.2,1.4,1,1.7
		c1,0.3,2.1,0.4,3.1-0.3C183.4,110.9,183.2,109.9,183.2,108.9z"/>
	<path class="st0" d="M426.9,112.7c-2.3,2.4-5,2.7-7.9,1.8c-2.7-0.8-3.7-3-3.8-5.5c-0.1-1.4,0-2.9,0.4-4.3c0.8-2.8,3-4.2,6.2-4.1
		c2.7,0.1,4.8,1.9,5.4,4.6c0.2,1.1,0.2,2.3,0.3,3.6c-3,0-5.9,0-8.7,0c-0.2,1.2,0.2,2.2,1.1,2.7c1.8,1,3.4,0.5,5-0.8
		C425.4,111.3,426.1,112,426.9,112.7z M418.6,106.3c1.7,0,3.5,0,5.2,0c0.1-1.7-0.9-2.9-2.6-2.9C419.5,103.4,418.5,104.6,418.6,106.3
		z"/>
	<path class="st0" d="M217.4,108.8c-3.1,0-6,0-8.9,0c0.1,1.3,0.4,2.4,1.6,2.8c1.7,0.7,3.3,0.3,4.8-1c0.6,0.7,1.2,1.5,1.8,2.3
		c-0.9,1.1-2.3,1.8-4,1.9c-1.1,0.1-2.2,0-3.3-0.2c-2.2-0.5-3.4-2-4-4.1c-0.5-1.8-0.5-3.7,0-5.5c0.8-3.1,3.1-4.7,6.4-4.5
		c2.8,0.1,5,2.1,5.4,5.1C217.3,106.6,217.4,107.6,217.4,108.8z M213.8,106.3c0.1-1.7-1-2.9-2.5-2.9c-1.7,0-2.7,1-2.8,2.9
		C210.3,106.3,212.1,106.3,213.8,106.3z"/>
	<path class="st0" d="M172.8,108.8c-3.1,0-6,0-8.9,0c0,1.3,0.4,2.3,1.6,2.8c1.7,0.8,3.3,0.4,4.8-1c0.6,0.7,1.3,1.4,1.9,2.1
		c-1.6,2-4.7,2.7-7.8,1.7c-2.1-0.7-3.7-2.8-3.8-5.4c-0.1-1.4,0-2.9,0.3-4.3c0.8-3,3.2-4.5,6.4-4.3c2.7,0.2,4.8,2.2,5.2,5
		C172.8,106.6,172.8,107.6,172.8,108.8z M169.3,106.3c0.1-1.6-0.9-2.9-2.4-2.9c-1.8-0.1-2.8,1-2.9,2.9
		C165.8,106.3,167.5,106.3,169.3,106.3z"/>
	<path class="st0" d="M62.7,108.8c0.1,1.4,0.5,2.4,1.6,2.9c1.7,0.7,3.3,0.3,4.7-1c0.6,0.7,1.2,1.4,1.9,2.2c-1.6,1.9-3.9,2.3-6.3,2
		c-3.2-0.4-5-2.4-5.2-5.6c-0.1-1.4-0.1-2.8,0.2-4.1c0.7-3.1,3.1-4.7,6.3-4.5c2.8,0.1,5,2.2,5.4,5.2c0.5,3.1,0.5,3.1-2.6,3.1
		C66.8,108.8,64.8,108.8,62.7,108.8z M68,106.3c0-1.7-1-2.9-2.5-2.9c-1.7,0-2.7,1.1-2.8,2.9C64.5,106.3,66.3,106.3,68,106.3z"/>
	<path class="st0" d="M481,108.8c-2.9,0-5.8,0-8.6,0c-0.1,1.2,0.3,2.3,1.3,2.8c1.8,0.8,3.4,0.5,4.8-0.8c0.6,0.7,1.3,1.4,1.9,2.2
		c-0.9,1.1-2.3,1.9-4,2c-1.1,0.1-2.2,0-3.3-0.2c-2.1-0.5-3.4-1.9-4-4c-0.5-1.8-0.5-3.7,0-5.6c0.8-3.2,3.2-4.8,6.5-4.5
		c2.9,0.2,5,2.4,5.3,5.5C481.1,106.9,481,107.8,481,108.8z M477.6,106.3c0-1.9-1.1-3-2.8-2.9c-1.5,0.1-2.5,1.4-2.4,2.9
		C474.1,106.3,475.8,106.3,477.6,106.3z"/>
	<path class="st0" d="M398.4,110.7c0.7,0.7,1.3,1.4,2,2.1c-1.7,2-4,2.4-6.5,2.1c-3.1-0.4-4.9-2.3-5.1-5.5c-0.1-1.4-0.1-2.8,0.2-4.1
		c0.7-3.2,3.1-4.8,6.4-4.6c2.9,0.2,5,2.3,5.4,5.4c0.1,0.9,0,1.9,0,2.9c-2.9,0-5.8,0-8.7,0c0,1.3,0.4,2.3,1.4,2.8
		C395.3,112.4,396.9,112,398.4,110.7z M397.4,106.3c0-1.9-1.1-3-2.8-2.9c-1.5,0-2.6,1.2-2.5,3c1.5,0,3,0,4.5,0
		C396.9,106.4,397.2,106.4,397.4,106.3z"/>
	<path class="st0" d="M256.9,114.7c-1.2,0-2.2,0-3.4,0c0-0.3,0-0.7,0-1c0-2.5,0-5.1,0-7.6c0-1.9-1.7-3-3.4-2.3
		c-1,0.4-1.4,1.2-1.4,2.3c0,2.5,0,4.9,0,7.4c0,0.4,0,0.7,0,1.1c-1.2,0-2.3,0-3.4,0c0-4.6,0-9.2,0-13.9c1,0,2.1,0,3.2,0
		c0,0.3,0.1,0.6,0.1,0.9c1-0.4,1.9-0.9,2.9-1c2.9-0.4,5.2,1.4,5.3,4.4C257,108.2,256.9,111.4,256.9,114.7z"/>
	<path class="st0" d="M579.4,114.7c-1.2,0-2.3,0-3.4,0c0-4.7,0-9.3,0-13.9c1.1,0,2.2,0,3.2,0c0,0.3,0.1,0.7,0.1,0.7
		c1.2-0.3,2.5-0.9,3.7-0.9c2.3-0.1,4.2,1.5,4.4,3.8c0.2,2,0.1,4,0.2,6c0,1.4,0,2.8,0,4.3c-1.2,0-2.3,0-3.5,0c0-0.5,0-0.9,0-1.3
		c0-2.4,0-4.7,0-7.1c0-2-1.6-3.1-3.3-2.4c-1.1,0.5-1.4,1.4-1.4,2.4c0,2.4,0,4.9,0,7.3C579.4,113.9,579.4,114.3,579.4,114.7z"/>
	<path class="st0" d="M560.2,107.7c0.1-0.9,0.1-1.8,0.3-2.7c0.6-3,2.9-4.6,6.2-4.5c2.8,0.1,5,2,5.3,4.9c0.1,1.5,0.2,3,0,4.4
		c-0.3,3.3-2.6,5.1-6.2,5.1c-3-0.1-5.2-2.2-5.5-5.4c0-0.6,0-1.2,0-1.8C560.2,107.7,560.2,107.7,560.2,107.7z M563.6,107.4
		c0.1,0.9,0.1,1.5,0.1,2.1c0,0.2,0.1,0.4,0.1,0.6c0.3,1.1,1.2,1.7,2.3,1.7c1.1,0,2.1-0.7,2.2-1.8c0.1-1.5,0.1-3,0-4.5
		c-0.1-1.1-1.1-1.8-2.2-1.8c-1.1,0-2,0.6-2.3,1.7C563.7,106.1,563.7,106.9,563.6,107.4z"/>
	<path class="st0" d="M353.6,107.5c0.1-0.9,0.2-2,0.5-3.1c0.7-2.6,3-4,6.2-3.9c2.6,0.1,4.8,2,5.1,4.5c0.2,1.7,0.2,3.6,0,5.3
		c-0.3,2.7-2.6,4.5-5.5,4.6c-3.1,0-5.4-1.7-5.9-4.4C353.8,109.6,353.7,108.6,353.6,107.5z M357.1,107.7c0.1,0.8,0.1,1.6,0.3,2.4
		c0.2,1.1,1.1,1.7,2.2,1.7c1.1,0,2.2-0.6,2.3-1.7c0.2-1.6,0.2-3.2,0-4.7c-0.1-1.1-1.1-1.7-2.2-1.7c-1.1,0-2,0.6-2.2,1.8
		C357.2,106.1,357.2,106.9,357.1,107.7z"/>
	<path class="st0" d="M294.5,108c-0.1,0.9-0.1,1.6-0.2,2.3c-0.5,2.8-2.7,4.6-5.5,4.6c-3.1,0.1-5.5-1.6-5.9-4.4
		c-0.3-1.8-0.3-3.7,0-5.5c0.4-3,2.9-4.6,6.2-4.4c2.8,0.1,4.9,2.1,5.3,4.9C294.4,106.4,294.4,107.3,294.5,108z M285.9,107.7
		c0.1,0.7,0.1,1.4,0.2,2.1c0.2,1.2,1.1,2,2.2,2c1.2,0,2.3-0.7,2.4-2c0.1-1.4,0.1-2.8,0-4.2c-0.1-1.3-1.1-2-2.4-2
		c-1.2,0-2.1,0.8-2.3,2C286,106.3,286,107,285.9,107.7z"/>
	<path class="st0" d="M484.9,100.7c1.1,0,2.1,0,3.2,0c0,0.3,0.1,0.7,0.1,1.1c0.3-0.2,0.5-0.3,0.8-0.5c3.1-2,7-0.3,7.3,3.3
		c0.3,3.3,0.1,6.7,0.1,10.1c-1.1,0-2.1,0-3.4,0c0-0.4,0-0.7,0-1c0-2.4,0-4.8,0-7.2c0-0.9-0.2-1.8-0.9-2.3c-1.5-1.1-3.7-0.2-3.7,1.7
		c-0.1,2.5-0.1,5.1-0.1,7.6c0,0.4,0,0.8,0,1.3c-1.2,0-2.2,0-3.4,0C484.9,110.1,484.9,105.4,484.9,100.7z"/>
	<path class="st0" d="M158.3,111.4c0,1.2,0,2.2,0,3.2c-4.1,0-8.2,0-12.4,0c0-6.3,0-12.7,0-19.1c1.2,0,2.4,0,3.6,0
		c0,5.3,0,10.5,0,15.9C152.6,111.4,155.4,111.4,158.3,111.4z"/>
	<path class="st0" d="M137.3,102.2c-0.7,0.6-1.4,1.3-1.9,1.8c-1.3-0.2-2.5-0.4-3.8-0.6c-0.3,0-0.8,0-1,0.2c-0.3,0.3-0.7,0.8-0.7,1.3
		c0,0.3,0.5,0.8,0.9,0.9c0.8,0.2,1.7,0.3,2.6,0.3c2.3,0.2,3.7,1.2,4.2,2.9c0.4,1.7,0.1,3.3-1.3,4.5c-2.5,2.1-8.1,1.7-10.3-0.6
		c0.7-0.7,1.5-1.4,2.3-2.2c1.3,1,2.9,1.4,4.6,1c0.3-0.1,0.7-0.1,0.9-0.3c0.3-0.4,0.6-0.9,0.6-1.3c0-0.4-0.5-0.8-0.9-0.9
		c-1-0.2-2-0.3-3.1-0.4c-2.2-0.2-3.4-1.3-3.7-3.1c-0.3-2.1,0.6-3.8,2.5-4.7C131.6,100,135.7,100.5,137.3,102.2z"/>
	<path class="st0" d="M104.7,102.4c-0.7,0.8-1.5,1.5-2.2,2.3c-0.2-0.2-0.4-0.3-0.5-0.4c-1.6-1.2-3.7-0.6-4.2,1.3
		c-0.3,1.2-0.3,2.6-0.1,3.8c0.4,2.4,2.7,3.2,4.6,1.6c0.1-0.1,0.2-0.1,0.3-0.2c0.7,0.8,1.4,1.5,2.2,2.3c-1.5,1.6-3.4,2.1-5.5,1.8
		c-2.7-0.4-4.5-2-5-4.7c-0.4-2.1-0.5-4.2,0.4-6.2C96.4,100.1,102,99.2,104.7,102.4z"/>
	<path class="st0" d="M504.6,101.1c0.9,0,1.7,0,2.5,0c0,0.9,0,1.7,0,2.6c-0.8,0-1.6,0-2.4,0c0,1.7,0,3.2,0,4.8c0,0.2,0,0.5,0,0.7
		c0.1,2.3-0.3,2.6,2.4,2.8c0,0.9,0,1.8,0,2.9c-1.2-0.1-2.4,0-3.5-0.4c-1.7-0.5-2.4-2-2.4-3.7c0-1.9,0-3.9,0-5.8c0-0.3,0-0.7,0-1.1
		c-0.5-0.1-0.9-0.1-1.4-0.2c0-0.8,0-1.6,0-2.5c0.4,0,0.8-0.1,1.4-0.1c0-1.4,0-2.7,0-4.1c1.2,0,2.3,0,3.5,0
		C504.6,98.3,504.6,99.6,504.6,101.1z"/>
	<path class="st0" d="M543.2,103.8c-0.6-0.1-0.9-0.1-1.4-0.1c0-0.8,0-1.6,0-2.5c0.4,0,0.8-0.1,1.3-0.1c0-1.3,0-2.7,0-4.1
		c1.2,0,2.3,0,3.5,0c0,1.4,0,2.7,0,4.1c0.9,0,1.6,0,2.4,0c0,0.9,0,1.7,0,2.6c-0.6,0-1.2,0-1.8,0c-0.5,0-0.7,0.2-0.7,0.7c0,2,0,4,0,6
		c0,1.1,0.4,1.4,1.4,1.4c0.3,0,0.6,0,1,0c0,1,0,1.9,0,2.8c-1,0-1.9,0.1-2.9,0c-1.6-0.2-2.8-1.5-2.9-3.1c-0.1-2.1-0.1-4.2-0.1-6.3
		C543.2,104.7,543.2,104.3,543.2,103.8z"/>
	<path class="st0" d="M303.8,111.9c0,1,0,1.8,0,2.9c-1.2-0.1-2.4,0-3.5-0.3c-1.7-0.5-2.5-1.9-2.5-3.6c0-5,0-10.1,0-15.1
		c0-0.1,0.1-0.2,0.1-0.3c1.1,0,2.1,0,3.4,0c0,0.4,0,0.7,0,1.1c0,4.3,0,8.7,0,13c0,2,0.1,2.1,2,2.2
		C303.4,111.8,303.5,111.9,303.8,111.9z"/>
	<path class="st0" d="M524.6,111.9c0,1,0,1.8,0,2.9c-1.2-0.1-2.3,0-3.4-0.3c-1.5-0.4-2.6-1.7-2.6-3.2c-0.1-5.2,0-10.4,0-15.7
		c1.1,0,2.2,0,3.5,0c0,0.4,0,0.8,0,1.2c0,4.3,0,8.7,0,13c0,1.9,0.1,2,2,2.1C524.2,111.8,524.4,111.8,524.6,111.9z"/>
	<path class="st0" d="M85.1,101.8c-1,0.9-1.8,1.7-2.7,2.6c-0.1-0.1-0.3-0.2-0.4-0.3c-1.6-1-3.4-0.2-3.7,1.7
		c-0.1,0.9-0.1,1.9-0.1,2.8c0,2,0,4,0,6.1c-1.2,0-2.3,0-3.4,0c0-4.6,0-9.2,0-13.9c1.1,0,2.1,0,3.3,0c0,0.3,0.1,0.7,0.1,1.1
		C80.5,100.2,82.8,99.9,85.1,101.8z"/>
	<path class="st0" d="M407.6,100.8c0,0.4,0,0.7,0.1,1.1c2.3-1.6,4.5-1.9,6.8-0.1c-0.9,0.9-1.8,1.7-2.8,2.5c0,0-0.2-0.2-0.4-0.3
		c-1.4-0.8-3-0.2-3.4,1.4c-0.1,0.5-0.1,1-0.1,1.5c0,2.6,0,5.1,0,7.7c-1.2,0-2.3,0-3.4,0c0-4.6,0-9.2,0-13.9
		C405.4,100.8,406.5,100.8,407.6,100.8z"/>
	<path class="st0" d="M220.8,100.7c1.1,0,2.1,0,3.2,0c0,0.4,0.1,0.7,0.1,1c3.2-1.7,5.2-1.7,6.8,0.1c-0.9,0.8-1.7,1.6-2.7,2.5
		c0.2,0,0.1,0,0.1,0c-0.8-0.7-1.8-1-2.8-0.5c-1.1,0.5-1.3,1.5-1.3,2.6c0,2.4,0,4.7,0,7.1c0,0.3,0,0.7,0,1.1c-1.2,0-2.2,0-3.4,0
		C220.8,110.1,220.8,105.4,220.8,100.7z"/>
	<path class="st0" d="M331.4,101.8c-1,0.9-1.8,1.7-2.7,2.5c0,0-0.1-0.1-0.2-0.1c-0.8-0.6-1.7-0.7-2.6-0.3c-0.8,0.4-1.2,1.2-1.2,2.2
		c0,2.5,0,5,0,7.5c0,0.4,0,0.7,0,1.1c-1.2,0-2.2,0-3.4,0c0-4.6,0-9.2,0-13.9c1.1,0,2.1,0,3.2,0c0,0.3,0.1,0.6,0.1,1.1
		C326.8,100.2,329.1,99.9,331.4,101.8z"/>
	<path class="st0" d="M556.3,114.7c-1.1,0-2.2,0-3.3,0c0-4.5,0-9,0-13.5c1.1,0,2.2,0,3.3,0C556.3,105.6,556.3,110.1,556.3,114.7z"/>
	<path class="st0" d="M90.6,114.7c-1.1,0-2.2,0-3.3,0c0-4.5,0-9,0-13.5c1.1,0,2.2,0,3.3,0C90.6,105.7,90.6,110.1,90.6,114.7z"/>
	<path class="st0" d="M510.9,101.1c1.1,0,2.2,0,3.3,0c0,4.5,0,9,0,13.5c-1.1,0-2.2,0-3.3,0C510.9,110.2,510.9,105.7,510.9,101.1z"/>
	<path class="st0" d="M237.8,101.1c1.1,0,2.2,0,3.3,0c0,4.5,0,9,0,13.5c-1.1,0-2.2,0-3.3,0C237.8,110.2,237.8,105.7,237.8,101.1z"/>
	<path class="st0" d="M121.9,95.5c1.2,0,2.3,0,3.6,0c0,1,0,2,0,2.9c0,0.2-0.1,0.4-0.3,0.6c-1,0.8-2.1,1.6-3.3,2.5
		C121.9,99.5,121.9,97.6,121.9,95.5z"/>
	<path class="st0" d="M241.2,95.4c0,0.9,0,1.8,0,2.7c-1.2,0-2.3,0-3.5,0c0-0.9,0-1.8,0-2.7C238.9,95.4,240,95.4,241.2,95.4z"/>
	<path class="st0" d="M510.8,98.1c0-0.9,0-1.7,0-2.6c1.1,0,2.2,0,3.4,0c0,0.9,0,1.7,0,2.6C513.1,98.1,512,98.1,510.8,98.1z"/>
	<path class="st0" d="M90.6,95.4c0,1,0,1.8,0,2.7c-1.1,0-2.2,0-3.5,0c0-0.7,0-1.5,0-2.3c0-0.2,0.4-0.4,0.6-0.4
		C88.7,95.4,89.6,95.4,90.6,95.4z"/>
	<path class="st0" d="M556.3,98.1c-1.2,0-2.3,0-3.4,0c0-0.9,0-1.8,0-2.7c1.1,0,2.2,0,3.4,0C556.3,96.4,556.3,97.2,556.3,98.1z"/>
</g>
</svg>
